<svg xmlns="http://www.w3.org/2000/svg" xmlns:xlink="http://www.w3.org/1999/xlink" width="600" height="400" viewBox="0 0 2400 1600">
<defs>
  <clipPath id="clip900">
    <rect x="0" y="0" width="2400" height="1600"></rect>
  </clipPath>
</defs>
<path clip-path="url(#clip900)" d="
M0 1600 L2400 1600 L2400 0 L0 0  Z
  " fill="#ffffff" fill-rule="evenodd" fill-opacity="1"></path>
<defs>
  <clipPath id="clip901">
    <rect x="480" y="0" width="1681" height="1600"></rect>
  </clipPath>
</defs>
<defs>
  <clipPath id="clip902">
    <rect x="336" y="47" width="2017" height="1377"></rect>
  </clipPath>
</defs>
<path clip-path="url(#clip900)" d="
M249.542 1423.18 L2352.76 1423.18 L2352.76 47.2441 L249.542 47.2441  Z
  " fill="#ffffff" fill-rule="evenodd" fill-opacity="1"></path>
<defs>
  <clipPath id="clip903">
    <rect x="249" y="47" width="2104" height="1377"></rect>
  </clipPath>
</defs>
<polyline clip-path="url(#clip903)" style="stroke:#000000; stroke-linecap:round; stroke-linejoin:round; stroke-width:2; stroke-opacity:0.1; fill:none" points="
  275.437,1423.18 275.437,47.2441 
  "></polyline>
<polyline clip-path="url(#clip903)" style="stroke:#000000; stroke-linecap:round; stroke-linejoin:round; stroke-width:2; stroke-opacity:0.1; fill:none" points="
  611.736,1423.18 611.736,47.2441 
  "></polyline>
<polyline clip-path="url(#clip903)" style="stroke:#000000; stroke-linecap:round; stroke-linejoin:round; stroke-width:2; stroke-opacity:0.1; fill:none" points="
  948.035,1423.18 948.035,47.2441 
  "></polyline>
<polyline clip-path="url(#clip903)" style="stroke:#000000; stroke-linecap:round; stroke-linejoin:round; stroke-width:2; stroke-opacity:0.1; fill:none" points="
  1284.33,1423.18 1284.33,47.2441 
  "></polyline>
<polyline clip-path="url(#clip903)" style="stroke:#000000; stroke-linecap:round; stroke-linejoin:round; stroke-width:2; stroke-opacity:0.1; fill:none" points="
  1620.63,1423.18 1620.63,47.2441 
  "></polyline>
<polyline clip-path="url(#clip903)" style="stroke:#000000; stroke-linecap:round; stroke-linejoin:round; stroke-width:2; stroke-opacity:0.1; fill:none" points="
  1956.93,1423.18 1956.93,47.2441 
  "></polyline>
<polyline clip-path="url(#clip903)" style="stroke:#000000; stroke-linecap:round; stroke-linejoin:round; stroke-width:2; stroke-opacity:0.1; fill:none" points="
  2293.23,1423.18 2293.23,47.2441 
  "></polyline>
<polyline clip-path="url(#clip900)" style="stroke:#000000; stroke-linecap:round; stroke-linejoin:round; stroke-width:4; stroke-opacity:1; fill:none" points="
  249.542,1423.18 2352.76,1423.18 
  "></polyline>
<polyline clip-path="url(#clip900)" style="stroke:#000000; stroke-linecap:round; stroke-linejoin:round; stroke-width:4; stroke-opacity:1; fill:none" points="
  275.437,1423.18 275.437,1404.28 
  "></polyline>
<polyline clip-path="url(#clip900)" style="stroke:#000000; stroke-linecap:round; stroke-linejoin:round; stroke-width:4; stroke-opacity:1; fill:none" points="
  611.736,1423.18 611.736,1404.28 
  "></polyline>
<polyline clip-path="url(#clip900)" style="stroke:#000000; stroke-linecap:round; stroke-linejoin:round; stroke-width:4; stroke-opacity:1; fill:none" points="
  948.035,1423.18 948.035,1404.28 
  "></polyline>
<polyline clip-path="url(#clip900)" style="stroke:#000000; stroke-linecap:round; stroke-linejoin:round; stroke-width:4; stroke-opacity:1; fill:none" points="
  1284.33,1423.18 1284.33,1404.28 
  "></polyline>
<polyline clip-path="url(#clip900)" style="stroke:#000000; stroke-linecap:round; stroke-linejoin:round; stroke-width:4; stroke-opacity:1; fill:none" points="
  1620.63,1423.18 1620.63,1404.28 
  "></polyline>
<polyline clip-path="url(#clip900)" style="stroke:#000000; stroke-linecap:round; stroke-linejoin:round; stroke-width:4; stroke-opacity:1; fill:none" points="
  1956.93,1423.18 1956.93,1404.28 
  "></polyline>
<polyline clip-path="url(#clip900)" style="stroke:#000000; stroke-linecap:round; stroke-linejoin:round; stroke-width:4; stroke-opacity:1; fill:none" points="
  2293.23,1423.18 2293.23,1404.28 
  "></polyline>
<path clip-path="url(#clip900)" d="M275.437 1454.1 Q271.826 1454.1 269.997 1457.66 Q268.192 1461.2 268.192 1468.33 Q268.192 1475.44 269.997 1479.01 Q271.826 1482.55 275.437 1482.55 Q279.071 1482.55 280.877 1479.01 Q282.706 1475.44 282.706 1468.33 Q282.706 1461.2 280.877 1457.66 Q279.071 1454.1 275.437 1454.1 M275.437 1450.39 Q281.247 1450.39 284.303 1455 Q287.381 1459.58 287.381 1468.33 Q287.381 1477.06 284.303 1481.67 Q281.247 1486.25 275.437 1486.25 Q269.627 1486.25 266.548 1481.67 Q263.493 1477.06 263.493 1468.33 Q263.493 1459.58 266.548 1455 Q269.627 1450.39 275.437 1450.39 Z" fill="#000000" fill-rule="evenodd" fill-opacity="1"></path><path clip-path="url(#clip900)" d="M586.424 1481.64 L594.063 1481.64 L594.063 1455.28 L585.752 1456.95 L585.752 1452.69 L594.016 1451.02 L598.692 1451.02 L598.692 1481.64 L606.331 1481.64 L606.331 1485.58 L586.424 1485.58 L586.424 1481.64 Z" fill="#000000" fill-rule="evenodd" fill-opacity="1"></path><path clip-path="url(#clip900)" d="M625.775 1454.1 Q622.164 1454.1 620.336 1457.66 Q618.53 1461.2 618.53 1468.33 Q618.53 1475.44 620.336 1479.01 Q622.164 1482.55 625.775 1482.55 Q629.41 1482.55 631.215 1479.01 Q633.044 1475.44 633.044 1468.33 Q633.044 1461.2 631.215 1457.66 Q629.41 1454.1 625.775 1454.1 M625.775 1450.39 Q631.585 1450.39 634.641 1455 Q637.72 1459.58 637.72 1468.33 Q637.72 1477.06 634.641 1481.67 Q631.585 1486.25 625.775 1486.25 Q619.965 1486.25 616.886 1481.67 Q613.831 1477.06 613.831 1468.33 Q613.831 1459.58 616.886 1455 Q619.965 1450.39 625.775 1450.39 Z" fill="#000000" fill-rule="evenodd" fill-opacity="1"></path><path clip-path="url(#clip900)" d="M926.808 1481.64 L943.128 1481.64 L943.128 1485.58 L921.183 1485.58 L921.183 1481.64 Q923.845 1478.89 928.429 1474.26 Q933.035 1469.61 934.216 1468.27 Q936.461 1465.74 937.341 1464.01 Q938.243 1462.25 938.243 1460.56 Q938.243 1457.8 936.299 1456.07 Q934.378 1454.33 931.276 1454.33 Q929.077 1454.33 926.623 1455.09 Q924.193 1455.86 921.415 1457.41 L921.415 1452.69 Q924.239 1451.55 926.693 1450.97 Q929.146 1450.39 931.183 1450.39 Q936.554 1450.39 939.748 1453.08 Q942.942 1455.77 942.942 1460.26 Q942.942 1462.39 942.132 1464.31 Q941.345 1466.2 939.239 1468.8 Q938.66 1469.47 935.558 1472.69 Q932.456 1475.88 926.808 1481.64 Z" fill="#000000" fill-rule="evenodd" fill-opacity="1"></path><path clip-path="url(#clip900)" d="M962.942 1454.1 Q959.331 1454.1 957.503 1457.66 Q955.697 1461.2 955.697 1468.33 Q955.697 1475.44 957.503 1479.01 Q959.331 1482.55 962.942 1482.55 Q966.577 1482.55 968.382 1479.01 Q970.211 1475.44 970.211 1468.33 Q970.211 1461.2 968.382 1457.66 Q966.577 1454.1 962.942 1454.1 M962.942 1450.39 Q968.753 1450.39 971.808 1455 Q974.887 1459.58 974.887 1468.33 Q974.887 1477.06 971.808 1481.67 Q968.753 1486.25 962.942 1486.25 Q957.132 1486.25 954.054 1481.67 Q950.998 1477.06 950.998 1468.33 Q950.998 1459.58 954.054 1455 Q957.132 1450.39 962.942 1450.39 Z" fill="#000000" fill-rule="evenodd" fill-opacity="1"></path><path clip-path="url(#clip900)" d="M1273.18 1466.95 Q1276.53 1467.66 1278.41 1469.93 Q1280.31 1472.2 1280.31 1475.53 Q1280.31 1480.65 1276.79 1483.45 Q1273.27 1486.25 1266.79 1486.25 Q1264.61 1486.25 1262.3 1485.81 Q1260.01 1485.39 1257.55 1484.54 L1257.55 1480.02 Q1259.5 1481.16 1261.81 1481.74 Q1264.13 1482.32 1266.65 1482.32 Q1271.05 1482.32 1273.34 1480.58 Q1275.65 1478.84 1275.65 1475.53 Q1275.65 1472.48 1273.5 1470.77 Q1271.37 1469.03 1267.55 1469.03 L1263.52 1469.03 L1263.52 1465.19 L1267.74 1465.19 Q1271.19 1465.19 1273.01 1463.82 Q1274.84 1462.43 1274.84 1459.84 Q1274.84 1457.18 1272.95 1455.77 Q1271.07 1454.33 1267.55 1454.33 Q1265.63 1454.33 1263.43 1454.75 Q1261.23 1455.16 1258.59 1456.04 L1258.59 1451.88 Q1261.26 1451.14 1263.57 1450.77 Q1265.91 1450.39 1267.97 1450.39 Q1273.29 1450.39 1276.39 1452.83 Q1279.5 1455.23 1279.5 1459.35 Q1279.5 1462.22 1277.85 1464.21 Q1276.21 1466.18 1273.18 1466.95 Z" fill="#000000" fill-rule="evenodd" fill-opacity="1"></path><path clip-path="url(#clip900)" d="M1299.17 1454.1 Q1295.56 1454.1 1293.73 1457.66 Q1291.93 1461.2 1291.93 1468.33 Q1291.93 1475.44 1293.73 1479.01 Q1295.56 1482.55 1299.17 1482.55 Q1302.81 1482.55 1304.61 1479.01 Q1306.44 1475.44 1306.44 1468.33 Q1306.44 1461.2 1304.61 1457.66 Q1302.81 1454.1 1299.17 1454.1 M1299.17 1450.39 Q1304.98 1450.39 1308.04 1455 Q1311.12 1459.58 1311.12 1468.33 Q1311.12 1477.06 1308.04 1481.67 Q1304.98 1486.25 1299.17 1486.25 Q1293.36 1486.25 1290.28 1481.67 Q1287.23 1477.06 1287.23 1468.33 Q1287.23 1459.58 1290.28 1455 Q1293.36 1450.39 1299.17 1450.39 Z" fill="#000000" fill-rule="evenodd" fill-opacity="1"></path><path clip-path="url(#clip900)" d="M1608.8 1455.09 L1597 1473.54 L1608.8 1473.54 L1608.8 1455.09 M1607.58 1451.02 L1613.46 1451.02 L1613.46 1473.54 L1618.39 1473.54 L1618.39 1477.43 L1613.46 1477.43 L1613.46 1485.58 L1608.8 1485.58 L1608.8 1477.43 L1593.2 1477.43 L1593.2 1472.92 L1607.58 1451.02 Z" fill="#000000" fill-rule="evenodd" fill-opacity="1"></path><path clip-path="url(#clip900)" d="M1636.12 1454.1 Q1632.51 1454.1 1630.68 1457.66 Q1628.87 1461.2 1628.87 1468.33 Q1628.87 1475.44 1630.68 1479.01 Q1632.51 1482.55 1636.12 1482.55 Q1639.75 1482.55 1641.56 1479.01 Q1643.39 1475.44 1643.39 1468.33 Q1643.39 1461.2 1641.56 1457.66 Q1639.75 1454.1 1636.12 1454.1 M1636.12 1450.39 Q1641.93 1450.39 1644.98 1455 Q1648.06 1459.58 1648.06 1468.33 Q1648.06 1477.06 1644.98 1481.67 Q1641.93 1486.25 1636.12 1486.25 Q1630.31 1486.25 1627.23 1481.67 Q1624.17 1477.06 1624.17 1468.33 Q1624.17 1459.58 1627.23 1455 Q1630.31 1450.39 1636.12 1450.39 Z" fill="#000000" fill-rule="evenodd" fill-opacity="1"></path><path clip-path="url(#clip900)" d="M1931.63 1451.02 L1949.99 1451.02 L1949.99 1454.96 L1935.91 1454.96 L1935.91 1463.43 Q1936.93 1463.08 1937.95 1462.92 Q1938.97 1462.73 1939.99 1462.73 Q1945.77 1462.73 1949.15 1465.9 Q1952.53 1469.08 1952.53 1474.49 Q1952.53 1480.07 1949.06 1483.17 Q1945.59 1486.25 1939.27 1486.25 Q1937.09 1486.25 1934.83 1485.88 Q1932.58 1485.51 1930.17 1484.77 L1930.17 1480.07 Q1932.26 1481.2 1934.48 1481.76 Q1936.7 1482.32 1939.18 1482.32 Q1943.18 1482.32 1945.52 1480.21 Q1947.86 1478.1 1947.86 1474.49 Q1947.86 1470.88 1945.52 1468.77 Q1943.18 1466.67 1939.18 1466.67 Q1937.3 1466.67 1935.43 1467.08 Q1933.58 1467.5 1931.63 1468.38 L1931.63 1451.02 Z" fill="#000000" fill-rule="evenodd" fill-opacity="1"></path><path clip-path="url(#clip900)" d="M1971.75 1454.1 Q1968.14 1454.1 1966.31 1457.66 Q1964.5 1461.2 1964.5 1468.33 Q1964.5 1475.44 1966.31 1479.01 Q1968.14 1482.55 1971.75 1482.55 Q1975.38 1482.55 1977.19 1479.01 Q1979.02 1475.44 1979.02 1468.33 Q1979.02 1461.2 1977.19 1457.66 Q1975.38 1454.1 1971.75 1454.1 M1971.75 1450.39 Q1977.56 1450.39 1980.61 1455 Q1983.69 1459.58 1983.69 1468.33 Q1983.69 1477.06 1980.61 1481.67 Q1977.56 1486.25 1971.75 1486.25 Q1965.94 1486.25 1962.86 1481.67 Q1959.8 1477.06 1959.8 1468.33 Q1959.8 1459.58 1962.86 1455 Q1965.94 1450.39 1971.75 1450.39 Z" fill="#000000" fill-rule="evenodd" fill-opacity="1"></path><path clip-path="url(#clip900)" d="M2278.64 1466.44 Q2275.49 1466.44 2273.64 1468.59 Q2271.81 1470.74 2271.81 1474.49 Q2271.81 1478.22 2273.64 1480.39 Q2275.49 1482.55 2278.64 1482.55 Q2281.78 1482.55 2283.61 1480.39 Q2285.46 1478.22 2285.46 1474.49 Q2285.46 1470.74 2283.61 1468.59 Q2281.78 1466.44 2278.64 1466.44 M2287.92 1451.78 L2287.92 1456.04 Q2286.16 1455.21 2284.35 1454.77 Q2282.57 1454.33 2280.81 1454.33 Q2276.18 1454.33 2273.73 1457.45 Q2271.3 1460.58 2270.95 1466.9 Q2272.32 1464.89 2274.38 1463.82 Q2276.44 1462.73 2278.91 1462.73 Q2284.12 1462.73 2287.13 1465.9 Q2290.16 1469.05 2290.16 1474.49 Q2290.16 1479.82 2287.02 1483.03 Q2283.87 1486.25 2278.64 1486.25 Q2272.64 1486.25 2269.47 1481.67 Q2266.3 1477.06 2266.3 1468.33 Q2266.3 1460.14 2270.19 1455.28 Q2274.08 1450.39 2280.63 1450.39 Q2282.39 1450.39 2284.17 1450.74 Q2285.97 1451.09 2287.92 1451.78 Z" fill="#000000" fill-rule="evenodd" fill-opacity="1"></path><path clip-path="url(#clip900)" d="M2308.22 1454.1 Q2304.61 1454.1 2302.78 1457.66 Q2300.97 1461.2 2300.97 1468.33 Q2300.97 1475.44 2302.78 1479.01 Q2304.61 1482.55 2308.22 1482.55 Q2311.85 1482.55 2313.66 1479.01 Q2315.49 1475.44 2315.49 1468.33 Q2315.49 1461.2 2313.66 1457.66 Q2311.85 1454.1 2308.22 1454.1 M2308.22 1450.39 Q2314.03 1450.39 2317.09 1455 Q2320.16 1459.58 2320.16 1468.33 Q2320.16 1477.06 2317.09 1481.67 Q2314.03 1486.25 2308.22 1486.25 Q2302.41 1486.25 2299.33 1481.67 Q2296.27 1477.06 2296.27 1468.33 Q2296.27 1459.58 2299.33 1455 Q2302.41 1450.39 2308.22 1450.39 Z" fill="#000000" fill-rule="evenodd" fill-opacity="1"></path><path clip-path="url(#clip900)" d="M1079.35 1525.81 L1079.35 1543.66 L1087.44 1543.66 Q1091.92 1543.66 1094.37 1541.34 Q1096.83 1539.02 1096.83 1534.72 Q1096.83 1530.45 1094.37 1528.13 Q1091.92 1525.81 1087.44 1525.81 L1079.35 1525.81 M1072.92 1520.52 L1087.44 1520.52 Q1095.43 1520.52 1099.5 1524.15 Q1103.61 1527.75 1103.61 1534.72 Q1103.61 1541.75 1099.5 1545.35 Q1095.43 1548.95 1087.44 1548.95 L1079.35 1548.95 L1079.35 1568.04 L1072.92 1568.04 L1072.92 1520.52 Z" fill="#000000" fill-rule="evenodd" fill-opacity="1"></path><path clip-path="url(#clip900)" d="M1131.49 1537.87 Q1130.5 1537.3 1129.32 1537.04 Q1128.18 1536.76 1126.78 1536.76 Q1121.81 1536.76 1119.14 1540 Q1116.5 1543.22 1116.5 1549.27 L1116.5 1568.04 L1110.61 1568.04 L1110.61 1532.4 L1116.5 1532.4 L1116.5 1537.93 Q1118.34 1534.69 1121.3 1533.13 Q1124.26 1531.54 1128.5 1531.54 Q1129.1 1531.54 1129.83 1531.63 Q1130.56 1531.7 1131.46 1531.85 L1131.49 1537.87 Z" fill="#000000" fill-rule="evenodd" fill-opacity="1"></path><path clip-path="url(#clip900)" d="M1166.69 1548.76 L1166.69 1551.62 L1139.76 1551.62 Q1140.14 1557.67 1143.39 1560.85 Q1146.67 1564 1152.49 1564 Q1155.87 1564 1159.02 1563.17 Q1162.2 1562.35 1165.32 1560.69 L1165.32 1566.23 Q1162.17 1567.57 1158.86 1568.27 Q1155.55 1568.97 1152.14 1568.97 Q1143.61 1568.97 1138.62 1564 Q1133.65 1559.04 1133.65 1550.57 Q1133.65 1541.82 1138.36 1536.69 Q1143.1 1531.54 1151.13 1531.54 Q1158.32 1531.54 1162.49 1536.18 Q1166.69 1540.8 1166.69 1548.76 M1160.83 1547.04 Q1160.77 1542.23 1158.13 1539.37 Q1155.52 1536.5 1151.19 1536.5 Q1146.29 1536.5 1143.33 1539.27 Q1140.4 1542.04 1139.95 1547.07 L1160.83 1547.04 Z" fill="#000000" fill-rule="evenodd" fill-opacity="1"></path><path clip-path="url(#clip900)" d="M1199.03 1533.45 L1199.03 1538.98 Q1196.54 1537.71 1193.87 1537.07 Q1191.2 1536.44 1188.33 1536.44 Q1183.97 1536.44 1181.78 1537.77 Q1179.61 1539.11 1179.61 1541.79 Q1179.61 1543.82 1181.17 1545 Q1182.73 1546.15 1187.44 1547.2 L1189.45 1547.64 Q1195.69 1548.98 1198.3 1551.43 Q1200.94 1553.85 1200.94 1558.21 Q1200.94 1563.17 1196.99 1566.07 Q1193.08 1568.97 1186.2 1568.97 Q1183.34 1568.97 1180.22 1568.39 Q1177.13 1567.85 1173.69 1566.74 L1173.69 1560.69 Q1176.94 1562.38 1180.09 1563.24 Q1183.24 1564.07 1186.33 1564.07 Q1190.47 1564.07 1192.69 1562.66 Q1194.92 1561.23 1194.92 1558.65 Q1194.92 1556.27 1193.3 1554.99 Q1191.71 1553.72 1186.26 1552.54 L1184.23 1552.07 Q1178.78 1550.92 1176.37 1548.56 Q1173.95 1546.18 1173.95 1542.04 Q1173.95 1537.01 1177.51 1534.27 Q1181.08 1531.54 1187.63 1531.54 Q1190.88 1531.54 1193.74 1532.01 Q1196.61 1532.49 1199.03 1533.45 Z" fill="#000000" fill-rule="evenodd" fill-opacity="1"></path><path clip-path="url(#clip900)" d="M1232.99 1533.45 L1232.99 1538.98 Q1230.51 1537.71 1227.83 1537.07 Q1225.16 1536.44 1222.29 1536.44 Q1217.93 1536.44 1215.74 1537.77 Q1213.57 1539.11 1213.57 1541.79 Q1213.57 1543.82 1215.13 1545 Q1216.69 1546.15 1221.4 1547.2 L1223.41 1547.64 Q1229.65 1548.98 1232.26 1551.43 Q1234.9 1553.85 1234.9 1558.21 Q1234.9 1563.17 1230.95 1566.07 Q1227.04 1568.97 1220.16 1568.97 Q1217.3 1568.97 1214.18 1568.39 Q1211.09 1567.85 1207.65 1566.74 L1207.65 1560.69 Q1210.9 1562.38 1214.05 1563.24 Q1217.2 1564.07 1220.29 1564.07 Q1224.43 1564.07 1226.65 1562.66 Q1228.88 1561.23 1228.88 1558.65 Q1228.88 1556.27 1227.26 1554.99 Q1225.67 1553.72 1220.22 1552.54 L1218.19 1552.07 Q1212.75 1550.92 1210.33 1548.56 Q1207.91 1546.18 1207.91 1542.04 Q1207.91 1537.01 1211.47 1534.27 Q1215.04 1531.54 1221.59 1531.54 Q1224.84 1531.54 1227.7 1532.01 Q1230.57 1532.49 1232.99 1533.45 Z" fill="#000000" fill-rule="evenodd" fill-opacity="1"></path><path clip-path="url(#clip900)" d="M1243.62 1553.98 L1243.62 1532.4 L1249.48 1532.4 L1249.48 1553.75 Q1249.48 1558.81 1251.45 1561.36 Q1253.42 1563.87 1257.37 1563.87 Q1262.11 1563.87 1264.85 1560.85 Q1267.62 1557.83 1267.62 1552.61 L1267.62 1532.4 L1273.47 1532.4 L1273.47 1568.04 L1267.62 1568.04 L1267.62 1562.57 Q1265.49 1565.82 1262.65 1567.41 Q1259.85 1568.97 1256.13 1568.97 Q1249.98 1568.97 1246.8 1565.15 Q1243.62 1561.33 1243.62 1553.98 M1258.36 1531.54 L1258.36 1531.54 Z" fill="#000000" fill-rule="evenodd" fill-opacity="1"></path><path clip-path="url(#clip900)" d="M1306.19 1537.87 Q1305.21 1537.3 1304.03 1537.04 Q1302.88 1536.76 1301.48 1536.76 Q1296.52 1536.76 1293.84 1540 Q1291.2 1543.22 1291.2 1549.27 L1291.2 1568.04 L1285.31 1568.04 L1285.31 1532.4 L1291.2 1532.4 L1291.2 1537.93 Q1293.05 1534.69 1296.01 1533.13 Q1298.97 1531.54 1303.2 1531.54 Q1303.81 1531.54 1304.54 1531.63 Q1305.27 1531.7 1306.16 1531.85 L1306.19 1537.87 Z" fill="#000000" fill-rule="evenodd" fill-opacity="1"></path><path clip-path="url(#clip900)" d="M1341.4 1548.76 L1341.4 1551.62 L1314.47 1551.62 Q1314.85 1557.67 1318.1 1560.85 Q1321.38 1564 1327.2 1564 Q1330.57 1564 1333.73 1563.17 Q1336.91 1562.35 1340.03 1560.69 L1340.03 1566.23 Q1336.88 1567.57 1333.57 1568.27 Q1330.26 1568.97 1326.85 1568.97 Q1318.32 1568.97 1313.32 1564 Q1308.36 1559.04 1308.36 1550.57 Q1308.36 1541.82 1313.07 1536.69 Q1317.81 1531.54 1325.83 1531.54 Q1333.03 1531.54 1337.19 1536.18 Q1341.4 1540.8 1341.4 1548.76 M1335.54 1547.04 Q1335.48 1542.23 1332.83 1539.37 Q1330.22 1536.5 1325.9 1536.5 Q1320.99 1536.5 1318.03 1539.27 Q1315.11 1542.04 1314.66 1547.07 L1335.54 1547.04 Z" fill="#000000" fill-rule="evenodd" fill-opacity="1"></path><path clip-path="url(#clip900)" d="M1394.52 1545.76 Q1396.59 1546.46 1398.53 1548.76 Q1400.5 1551.05 1402.48 1555.06 L1409 1568.04 L1402.09 1568.04 L1396.01 1555.85 Q1393.66 1551.08 1391.43 1549.52 Q1389.23 1547.96 1385.42 1547.96 L1378.41 1547.96 L1378.41 1568.04 L1371.98 1568.04 L1371.98 1520.52 L1386.5 1520.52 Q1394.65 1520.52 1398.66 1523.93 Q1402.67 1527.34 1402.67 1534.21 Q1402.67 1538.7 1400.57 1541.66 Q1398.5 1544.62 1394.52 1545.76 M1378.41 1525.81 L1378.41 1542.68 L1386.5 1542.68 Q1391.14 1542.68 1393.5 1540.54 Q1395.89 1538.38 1395.89 1534.21 Q1395.89 1530.04 1393.5 1527.94 Q1391.14 1525.81 1386.5 1525.81 L1378.41 1525.81 Z" fill="#000000" fill-rule="evenodd" fill-opacity="1"></path><path clip-path="url(#clip900)" d="M1431.79 1550.12 Q1424.69 1550.12 1421.95 1551.75 Q1419.22 1553.37 1419.22 1557.29 Q1419.22 1560.4 1421.25 1562.25 Q1423.32 1564.07 1426.86 1564.07 Q1431.73 1564.07 1434.65 1560.63 Q1437.61 1557.16 1437.61 1551.43 L1437.61 1550.12 L1431.79 1550.12 M1443.47 1547.71 L1443.47 1568.04 L1437.61 1568.04 L1437.61 1562.63 Q1435.61 1565.88 1432.62 1567.44 Q1429.62 1568.97 1425.3 1568.97 Q1419.82 1568.97 1416.58 1565.91 Q1413.36 1562.82 1413.36 1557.67 Q1413.36 1551.65 1417.37 1548.6 Q1421.41 1545.54 1429.4 1545.54 L1437.61 1545.54 L1437.61 1544.97 Q1437.61 1540.93 1434.94 1538.73 Q1432.3 1536.5 1427.49 1536.5 Q1424.44 1536.5 1421.54 1537.23 Q1418.64 1537.97 1415.97 1539.43 L1415.97 1534.02 Q1419.19 1532.78 1422.21 1532.17 Q1425.23 1531.54 1428.1 1531.54 Q1435.83 1531.54 1439.65 1535.55 Q1443.47 1539.56 1443.47 1547.71 Z" fill="#000000" fill-rule="evenodd" fill-opacity="1"></path><path clip-path="url(#clip900)" d="M1461.33 1522.27 L1461.33 1532.4 L1473.39 1532.4 L1473.39 1536.95 L1461.33 1536.95 L1461.33 1556.3 Q1461.33 1560.66 1462.5 1561.9 Q1463.71 1563.14 1467.37 1563.14 L1473.39 1563.14 L1473.39 1568.04 L1467.37 1568.04 Q1460.59 1568.04 1458.02 1565.53 Q1455.44 1562.98 1455.44 1556.3 L1455.44 1536.95 L1451.14 1536.95 L1451.14 1532.4 L1455.44 1532.4 L1455.44 1522.27 L1461.33 1522.27 Z" fill="#000000" fill-rule="evenodd" fill-opacity="1"></path><path clip-path="url(#clip900)" d="M1481.09 1532.4 L1486.95 1532.4 L1486.95 1568.04 L1481.09 1568.04 L1481.09 1532.4 M1481.09 1518.52 L1486.95 1518.52 L1486.95 1525.93 L1481.09 1525.93 L1481.09 1518.52 Z" fill="#000000" fill-rule="evenodd" fill-opacity="1"></path><path clip-path="url(#clip900)" d="M1513.02 1536.5 Q1508.3 1536.5 1505.57 1540.19 Q1502.83 1543.85 1502.83 1550.25 Q1502.83 1556.65 1505.54 1560.34 Q1508.27 1564 1513.02 1564 Q1517.69 1564 1520.43 1560.31 Q1523.17 1556.62 1523.17 1550.25 Q1523.17 1543.92 1520.43 1540.23 Q1517.69 1536.5 1513.02 1536.5 M1513.02 1531.54 Q1520.65 1531.54 1525.01 1536.5 Q1529.38 1541.47 1529.38 1550.25 Q1529.38 1559 1525.01 1564 Q1520.65 1568.97 1513.02 1568.97 Q1505.34 1568.97 1500.98 1564 Q1496.66 1559 1496.66 1550.25 Q1496.66 1541.47 1500.98 1536.5 Q1505.34 1531.54 1513.02 1531.54 Z" fill="#000000" fill-rule="evenodd" fill-opacity="1"></path><polyline clip-path="url(#clip903)" style="stroke:#000000; stroke-linecap:round; stroke-linejoin:round; stroke-width:2; stroke-opacity:0.1; fill:none" points="
  249.542,1423.18 2352.76,1423.18 
  "></polyline>
<polyline clip-path="url(#clip903)" style="stroke:#000000; stroke-linecap:round; stroke-linejoin:round; stroke-width:2; stroke-opacity:0.1; fill:none" points="
  249.542,1095.58 2352.76,1095.58 
  "></polyline>
<polyline clip-path="url(#clip903)" style="stroke:#000000; stroke-linecap:round; stroke-linejoin:round; stroke-width:2; stroke-opacity:0.1; fill:none" points="
  249.542,767.972 2352.76,767.972 
  "></polyline>
<polyline clip-path="url(#clip903)" style="stroke:#000000; stroke-linecap:round; stroke-linejoin:round; stroke-width:2; stroke-opacity:0.1; fill:none" points="
  249.542,440.369 2352.76,440.369 
  "></polyline>
<polyline clip-path="url(#clip903)" style="stroke:#000000; stroke-linecap:round; stroke-linejoin:round; stroke-width:2; stroke-opacity:0.1; fill:none" points="
  249.542,112.765 2352.76,112.765 
  "></polyline>
<polyline clip-path="url(#clip900)" style="stroke:#000000; stroke-linecap:round; stroke-linejoin:round; stroke-width:4; stroke-opacity:1; fill:none" points="
  249.542,1423.18 249.542,47.2441 
  "></polyline>
<polyline clip-path="url(#clip900)" style="stroke:#000000; stroke-linecap:round; stroke-linejoin:round; stroke-width:4; stroke-opacity:1; fill:none" points="
  249.542,1423.18 268.44,1423.18 
  "></polyline>
<polyline clip-path="url(#clip900)" style="stroke:#000000; stroke-linecap:round; stroke-linejoin:round; stroke-width:4; stroke-opacity:1; fill:none" points="
  249.542,1095.58 268.44,1095.58 
  "></polyline>
<polyline clip-path="url(#clip900)" style="stroke:#000000; stroke-linecap:round; stroke-linejoin:round; stroke-width:4; stroke-opacity:1; fill:none" points="
  249.542,767.972 268.44,767.972 
  "></polyline>
<polyline clip-path="url(#clip900)" style="stroke:#000000; stroke-linecap:round; stroke-linejoin:round; stroke-width:4; stroke-opacity:1; fill:none" points="
  249.542,440.369 268.44,440.369 
  "></polyline>
<polyline clip-path="url(#clip900)" style="stroke:#000000; stroke-linecap:round; stroke-linejoin:round; stroke-width:4; stroke-opacity:1; fill:none" points="
  249.542,112.765 268.44,112.765 
  "></polyline>
<path clip-path="url(#clip900)" d="M126.205 1408.98 Q122.593 1408.98 120.765 1412.54 Q118.959 1416.08 118.959 1423.21 Q118.959 1430.32 120.765 1433.89 Q122.593 1437.43 126.205 1437.43 Q129.839 1437.43 131.644 1433.89 Q133.473 1430.32 133.473 1423.21 Q133.473 1416.08 131.644 1412.54 Q129.839 1408.98 126.205 1408.98 M126.205 1405.27 Q132.015 1405.27 135.07 1409.88 Q138.149 1414.46 138.149 1423.21 Q138.149 1431.94 135.07 1436.55 Q132.015 1441.13 126.205 1441.13 Q120.394 1441.13 117.316 1436.55 Q114.26 1431.94 114.26 1423.21 Q114.26 1414.46 117.316 1409.88 Q120.394 1405.27 126.205 1405.27 Z" fill="#000000" fill-rule="evenodd" fill-opacity="1"></path><path clip-path="url(#clip900)" d="M146.366 1434.58 L151.251 1434.58 L151.251 1440.46 L146.366 1440.46 L146.366 1434.58 Z" fill="#000000" fill-rule="evenodd" fill-opacity="1"></path><path clip-path="url(#clip900)" d="M171.436 1408.98 Q167.825 1408.98 165.996 1412.54 Q164.19 1416.08 164.19 1423.21 Q164.19 1430.32 165.996 1433.89 Q167.825 1437.43 171.436 1437.43 Q175.07 1437.43 176.876 1433.89 Q178.704 1430.32 178.704 1423.21 Q178.704 1416.08 176.876 1412.54 Q175.07 1408.98 171.436 1408.98 M171.436 1405.27 Q177.246 1405.27 180.301 1409.88 Q183.38 1414.46 183.38 1423.21 Q183.38 1431.94 180.301 1436.55 Q177.246 1441.13 171.436 1441.13 Q165.626 1441.13 162.547 1436.55 Q159.491 1431.94 159.491 1423.21 Q159.491 1414.46 162.547 1409.88 Q165.626 1405.27 171.436 1405.27 Z" fill="#000000" fill-rule="evenodd" fill-opacity="1"></path><path clip-path="url(#clip900)" d="M201.598 1408.98 Q197.987 1408.98 196.158 1412.54 Q194.352 1416.08 194.352 1423.21 Q194.352 1430.32 196.158 1433.89 Q197.987 1437.43 201.598 1437.43 Q205.232 1437.43 207.037 1433.89 Q208.866 1430.32 208.866 1423.21 Q208.866 1416.08 207.037 1412.54 Q205.232 1408.98 201.598 1408.98 M201.598 1405.27 Q207.408 1405.27 210.463 1409.88 Q213.542 1414.46 213.542 1423.21 Q213.542 1431.94 210.463 1436.55 Q207.408 1441.13 201.598 1441.13 Q195.787 1441.13 192.709 1436.55 Q189.653 1431.94 189.653 1423.21 Q189.653 1414.46 192.709 1409.88 Q195.787 1405.27 201.598 1405.27 Z" fill="#000000" fill-rule="evenodd" fill-opacity="1"></path><path clip-path="url(#clip900)" d="M127.2 1081.37 Q123.589 1081.37 121.76 1084.94 Q119.955 1088.48 119.955 1095.61 Q119.955 1102.72 121.76 1106.28 Q123.589 1109.82 127.2 1109.82 Q130.834 1109.82 132.64 1106.28 Q134.468 1102.72 134.468 1095.61 Q134.468 1088.48 132.64 1084.94 Q130.834 1081.37 127.2 1081.37 M127.2 1077.67 Q133.01 1077.67 136.066 1082.28 Q139.144 1086.86 139.144 1095.61 Q139.144 1104.34 136.066 1108.94 Q133.01 1113.53 127.2 1113.53 Q121.39 1113.53 118.311 1108.94 Q115.256 1104.34 115.256 1095.61 Q115.256 1086.86 118.311 1082.28 Q121.39 1077.67 127.2 1077.67 Z" fill="#000000" fill-rule="evenodd" fill-opacity="1"></path><path clip-path="url(#clip900)" d="M147.362 1106.98 L152.246 1106.98 L152.246 1112.86 L147.362 1112.86 L147.362 1106.98 Z" fill="#000000" fill-rule="evenodd" fill-opacity="1"></path><path clip-path="url(#clip900)" d="M166.459 1108.92 L182.778 1108.92 L182.778 1112.86 L160.834 1112.86 L160.834 1108.92 Q163.496 1106.17 168.079 1101.54 Q172.686 1096.88 173.866 1095.54 Q176.112 1093.02 176.991 1091.28 Q177.894 1089.52 177.894 1087.83 Q177.894 1085.08 175.95 1083.34 Q174.028 1081.61 170.927 1081.61 Q168.727 1081.61 166.274 1082.37 Q163.843 1083.13 161.065 1084.68 L161.065 1079.96 Q163.89 1078.83 166.343 1078.25 Q168.797 1077.67 170.834 1077.67 Q176.204 1077.67 179.399 1080.36 Q182.593 1083.04 182.593 1087.53 Q182.593 1089.66 181.783 1091.58 Q180.996 1093.48 178.889 1096.07 Q178.311 1096.75 175.209 1099.96 Q172.107 1103.16 166.459 1108.92 Z" fill="#000000" fill-rule="evenodd" fill-opacity="1"></path><path clip-path="url(#clip900)" d="M192.639 1078.3 L210.996 1078.3 L210.996 1082.23 L196.922 1082.23 L196.922 1090.7 Q197.94 1090.36 198.959 1090.19 Q199.977 1090.01 200.996 1090.01 Q206.783 1090.01 210.162 1093.18 Q213.542 1096.35 213.542 1101.77 Q213.542 1107.35 210.07 1110.45 Q206.598 1113.53 200.278 1113.53 Q198.102 1113.53 195.834 1113.16 Q193.588 1112.79 191.181 1112.05 L191.181 1107.35 Q193.264 1108.48 195.487 1109.04 Q197.709 1109.59 200.186 1109.59 Q204.19 1109.59 206.528 1107.49 Q208.866 1105.38 208.866 1101.77 Q208.866 1098.16 206.528 1096.05 Q204.19 1093.94 200.186 1093.94 Q198.311 1093.94 196.436 1094.36 Q194.584 1094.78 192.639 1095.66 L192.639 1078.3 Z" fill="#000000" fill-rule="evenodd" fill-opacity="1"></path><path clip-path="url(#clip900)" d="M126.205 753.771 Q122.593 753.771 120.765 757.336 Q118.959 760.877 118.959 768.007 Q118.959 775.114 120.765 778.678 Q122.593 782.22 126.205 782.22 Q129.839 782.22 131.644 778.678 Q133.473 775.114 133.473 768.007 Q133.473 760.877 131.644 757.336 Q129.839 753.771 126.205 753.771 M126.205 750.067 Q132.015 750.067 135.07 754.674 Q138.149 759.257 138.149 768.007 Q138.149 776.734 135.07 781.34 Q132.015 785.924 126.205 785.924 Q120.394 785.924 117.316 781.34 Q114.26 776.734 114.26 768.007 Q114.26 759.257 117.316 754.674 Q120.394 750.067 126.205 750.067 Z" fill="#000000" fill-rule="evenodd" fill-opacity="1"></path><path clip-path="url(#clip900)" d="M146.366 779.373 L151.251 779.373 L151.251 785.252 L146.366 785.252 L146.366 779.373 Z" fill="#000000" fill-rule="evenodd" fill-opacity="1"></path><path clip-path="url(#clip900)" d="M161.482 750.692 L179.839 750.692 L179.839 754.628 L165.765 754.628 L165.765 763.1 Q166.783 762.752 167.802 762.59 Q168.82 762.405 169.839 762.405 Q175.626 762.405 179.005 765.577 Q182.385 768.748 182.385 774.164 Q182.385 779.743 178.913 782.845 Q175.44 785.924 169.121 785.924 Q166.945 785.924 164.677 785.553 Q162.431 785.183 160.024 784.442 L160.024 779.743 Q162.107 780.877 164.329 781.433 Q166.552 781.988 169.028 781.988 Q173.033 781.988 175.371 779.882 Q177.709 777.776 177.709 774.164 Q177.709 770.553 175.371 768.447 Q173.033 766.34 169.028 766.34 Q167.153 766.34 165.278 766.757 Q163.427 767.174 161.482 768.053 L161.482 750.692 Z" fill="#000000" fill-rule="evenodd" fill-opacity="1"></path><path clip-path="url(#clip900)" d="M201.598 753.771 Q197.987 753.771 196.158 757.336 Q194.352 760.877 194.352 768.007 Q194.352 775.114 196.158 778.678 Q197.987 782.22 201.598 782.22 Q205.232 782.22 207.037 778.678 Q208.866 775.114 208.866 768.007 Q208.866 760.877 207.037 757.336 Q205.232 753.771 201.598 753.771 M201.598 750.067 Q207.408 750.067 210.463 754.674 Q213.542 759.257 213.542 768.007 Q213.542 776.734 210.463 781.34 Q207.408 785.924 201.598 785.924 Q195.787 785.924 192.709 781.34 Q189.653 776.734 189.653 768.007 Q189.653 759.257 192.709 754.674 Q195.787 750.067 201.598 750.067 Z" fill="#000000" fill-rule="evenodd" fill-opacity="1"></path><path clip-path="url(#clip900)" d="M127.2 426.167 Q123.589 426.167 121.76 429.732 Q119.955 433.274 119.955 440.403 Q119.955 447.51 121.76 451.075 Q123.589 454.616 127.2 454.616 Q130.834 454.616 132.64 451.075 Q134.468 447.51 134.468 440.403 Q134.468 433.274 132.64 429.732 Q130.834 426.167 127.2 426.167 M127.2 422.464 Q133.01 422.464 136.066 427.07 Q139.144 431.653 139.144 440.403 Q139.144 449.13 136.066 453.737 Q133.01 458.32 127.2 458.32 Q121.39 458.32 118.311 453.737 Q115.256 449.13 115.256 440.403 Q115.256 431.653 118.311 427.07 Q121.39 422.464 127.2 422.464 Z" fill="#000000" fill-rule="evenodd" fill-opacity="1"></path><path clip-path="url(#clip900)" d="M147.362 451.769 L152.246 451.769 L152.246 457.649 L147.362 457.649 L147.362 451.769 Z" fill="#000000" fill-rule="evenodd" fill-opacity="1"></path><path clip-path="url(#clip900)" d="M161.251 423.089 L183.473 423.089 L183.473 425.079 L170.927 457.649 L166.042 457.649 L177.848 427.024 L161.251 427.024 L161.251 423.089 Z" fill="#000000" fill-rule="evenodd" fill-opacity="1"></path><path clip-path="url(#clip900)" d="M192.639 423.089 L210.996 423.089 L210.996 427.024 L196.922 427.024 L196.922 435.496 Q197.94 435.149 198.959 434.987 Q199.977 434.801 200.996 434.801 Q206.783 434.801 210.162 437.973 Q213.542 441.144 213.542 446.561 Q213.542 452.139 210.07 455.241 Q206.598 458.32 200.278 458.32 Q198.102 458.32 195.834 457.95 Q193.588 457.579 191.181 456.838 L191.181 452.139 Q193.264 453.274 195.487 453.829 Q197.709 454.385 200.186 454.385 Q204.19 454.385 206.528 452.278 Q208.866 450.172 208.866 446.561 Q208.866 442.95 206.528 440.843 Q204.19 438.737 200.186 438.737 Q198.311 438.737 196.436 439.153 Q194.584 439.57 192.639 440.45 L192.639 423.089 Z" fill="#000000" fill-rule="evenodd" fill-opacity="1"></path><path clip-path="url(#clip900)" d="M117.015 126.11 L124.654 126.11 L124.654 99.7441 L116.343 101.411 L116.343 97.1515 L124.607 95.4848 L129.283 95.4848 L129.283 126.11 L136.922 126.11 L136.922 130.045 L117.015 130.045 L117.015 126.11 Z" fill="#000000" fill-rule="evenodd" fill-opacity="1"></path><path clip-path="url(#clip900)" d="M146.366 124.165 L151.251 124.165 L151.251 130.045 L146.366 130.045 L146.366 124.165 Z" fill="#000000" fill-rule="evenodd" fill-opacity="1"></path><path clip-path="url(#clip900)" d="M171.436 98.5635 Q167.825 98.5635 165.996 102.128 Q164.19 105.67 164.19 112.8 Q164.19 119.906 165.996 123.471 Q167.825 127.012 171.436 127.012 Q175.07 127.012 176.876 123.471 Q178.704 119.906 178.704 112.8 Q178.704 105.67 176.876 102.128 Q175.07 98.5635 171.436 98.5635 M171.436 94.8598 Q177.246 94.8598 180.301 99.4663 Q183.38 104.05 183.38 112.8 Q183.38 121.526 180.301 126.133 Q177.246 130.716 171.436 130.716 Q165.626 130.716 162.547 126.133 Q159.491 121.526 159.491 112.8 Q159.491 104.05 162.547 99.4663 Q165.626 94.8598 171.436 94.8598 Z" fill="#000000" fill-rule="evenodd" fill-opacity="1"></path><path clip-path="url(#clip900)" d="M201.598 98.5635 Q197.987 98.5635 196.158 102.128 Q194.352 105.67 194.352 112.8 Q194.352 119.906 196.158 123.471 Q197.987 127.012 201.598 127.012 Q205.232 127.012 207.037 123.471 Q208.866 119.906 208.866 112.8 Q208.866 105.67 207.037 102.128 Q205.232 98.5635 201.598 98.5635 M201.598 94.8598 Q207.408 94.8598 210.463 99.4663 Q213.542 104.05 213.542 112.8 Q213.542 121.526 210.463 126.133 Q207.408 130.716 201.598 130.716 Q195.787 130.716 192.709 126.133 Q189.653 121.526 189.653 112.8 Q189.653 104.05 192.709 99.4663 Q195.787 94.8598 201.598 94.8598 Z" fill="#000000" fill-rule="evenodd" fill-opacity="1"></path><path clip-path="url(#clip900)" d="M18.0438 1064.45 L24.314 1064.45 Q22.5634 1068.11 21.704 1071.35 Q20.8447 1074.6 20.8447 1077.62 Q20.8447 1082.88 22.8817 1085.74 Q24.9187 1088.57 28.6745 1088.57 Q31.8255 1088.57 33.4488 1086.69 Q35.0402 1084.78 36.0269 1079.5 L36.8226 1075.62 Q38.1912 1068.42 41.6605 1065.02 Q45.098 1061.58 50.8908 1061.58 Q57.7976 1061.58 61.3624 1066.23 Q64.9272 1070.84 64.9272 1079.79 Q64.9272 1083.16 64.1633 1086.98 Q63.3994 1090.77 61.9035 1094.84 L55.2831 1094.84 Q57.4793 1090.93 58.5933 1087.17 Q59.7073 1083.42 59.7073 1079.79 Q59.7073 1074.28 57.543 1071.29 Q55.3786 1068.3 51.3682 1068.3 Q47.8671 1068.3 45.8937 1070.46 Q43.9204 1072.59 42.9337 1077.5 L42.1698 1081.41 Q40.7375 1088.6 37.682 1091.82 Q34.6264 1095.03 29.1837 1095.03 Q22.8817 1095.03 19.2532 1090.61 Q15.6248 1086.15 15.6248 1078.36 Q15.6248 1075.01 16.2295 1071.54 Q16.8343 1068.07 18.0438 1064.45 Z" fill="#000000" fill-rule="evenodd" fill-opacity="1"></path><path clip-path="url(#clip900)" d="M44.7161 1021.32 L47.5806 1021.32 L47.5806 1048.25 Q53.6281 1047.86 56.8109 1044.62 Q59.9619 1041.34 59.9619 1035.51 Q59.9619 1032.14 59.1344 1028.99 Q58.3069 1025.81 56.6518 1022.69 L62.1899 1022.69 Q63.5267 1025.84 64.227 1029.15 Q64.9272 1032.46 64.9272 1035.86 Q64.9272 1044.39 59.9619 1049.39 Q54.9967 1054.36 46.5303 1054.36 Q37.7774 1054.36 32.6531 1049.65 Q27.4968 1044.9 27.4968 1036.88 Q27.4968 1029.69 32.1438 1025.52 Q36.7589 1021.32 44.7161 1021.32 M42.9973 1027.18 Q38.1912 1027.24 35.3266 1029.88 Q32.4621 1032.49 32.4621 1036.82 Q32.4621 1041.72 35.2312 1044.68 Q38.0002 1047.61 43.0292 1048.05 L42.9973 1027.18 Z" fill="#000000" fill-rule="evenodd" fill-opacity="1"></path><path clip-path="url(#clip900)" d="M29.7248 986.053 L35.1993 986.053 Q33.8307 988.535 33.1623 991.05 Q32.4621 993.532 32.4621 996.079 Q32.4621 1001.78 36.0905 1004.93 Q39.6872 1008.08 46.212 1008.08 Q52.7369 1008.08 56.3653 1004.93 Q59.9619 1001.78 59.9619 996.079 Q59.9619 993.532 59.2935 991.05 Q58.5933 988.535 57.2247 986.053 L62.6355 986.053 Q63.7814 988.503 64.3543 991.145 Q64.9272 993.755 64.9272 996.715 Q64.9272 1004.77 59.8664 1009.51 Q54.8057 1014.25 46.212 1014.25 Q37.491 1014.25 32.4939 1009.48 Q27.4968 1004.67 27.4968 996.333 Q27.4968 993.628 28.0697 991.05 Q28.6108 988.472 29.7248 986.053 Z" fill="#000000" fill-rule="evenodd" fill-opacity="1"></path><path clip-path="url(#clip900)" d="M32.4621 962.054 Q32.4621 966.765 36.1542 969.502 Q39.8145 972.239 46.212 972.239 Q52.6095 972.239 56.3017 969.534 Q59.9619 966.796 59.9619 962.054 Q59.9619 957.375 56.2698 954.638 Q52.5777 951.901 46.212 951.901 Q39.8781 951.901 36.186 954.638 Q32.4621 957.375 32.4621 962.054 M27.4968 962.054 Q27.4968 954.415 32.4621 950.055 Q37.4273 945.694 46.212 945.694 Q54.9649 945.694 59.9619 950.055 Q64.9272 954.415 64.9272 962.054 Q64.9272 969.725 59.9619 974.085 Q54.9649 978.414 46.212 978.414 Q37.4273 978.414 32.4621 974.085 Q27.4968 969.725 27.4968 962.054 Z" fill="#000000" fill-rule="evenodd" fill-opacity="1"></path><path clip-path="url(#clip900)" d="M42.4881 906.354 L64.0042 906.354 L64.0042 912.21 L42.679 912.21 Q37.6183 912.21 35.1038 914.184 Q32.5894 916.157 32.5894 920.104 Q32.5894 924.846 35.6131 927.584 Q38.6368 930.321 43.8567 930.321 L64.0042 930.321 L64.0042 936.209 L28.3562 936.209 L28.3562 930.321 L33.8944 930.321 Q30.6797 928.22 29.0883 925.387 Q27.4968 922.523 27.4968 918.799 Q27.4968 912.656 31.3163 909.505 Q35.1038 906.354 42.4881 906.354 Z" fill="#000000" fill-rule="evenodd" fill-opacity="1"></path><path clip-path="url(#clip900)" d="M33.7671 871.215 L14.479 871.215 L14.479 865.359 L64.0042 865.359 L64.0042 871.215 L58.657 871.215 Q61.8398 873.061 63.3994 875.894 Q64.9272 878.695 64.9272 882.642 Q64.9272 889.103 59.771 893.177 Q54.6147 897.219 46.212 897.219 Q37.8093 897.219 32.6531 893.177 Q27.4968 889.103 27.4968 882.642 Q27.4968 878.695 29.0564 875.894 Q30.5842 873.061 33.7671 871.215 M46.212 891.172 Q52.6732 891.172 56.3653 888.53 Q60.0256 885.856 60.0256 881.209 Q60.0256 876.562 56.3653 873.889 Q52.6732 871.215 46.212 871.215 Q39.7508 871.215 36.0905 873.889 Q32.3984 876.562 32.3984 881.209 Q32.3984 885.856 36.0905 888.53 Q39.7508 891.172 46.212 891.172 Z" fill="#000000" fill-rule="evenodd" fill-opacity="1"></path><path clip-path="url(#clip900)" d="M16.4842 832.321 L16.4842 825.891 L58.5933 825.891 L58.5933 802.752 L64.0042 802.752 L64.0042 832.321 L16.4842 832.321 Z" fill="#000000" fill-rule="evenodd" fill-opacity="1"></path><path clip-path="url(#clip900)" d="M46.0847 780.058 Q46.0847 787.156 47.7079 789.893 Q49.3312 792.631 53.2461 792.631 Q56.3653 792.631 58.2114 790.594 Q60.0256 788.525 60.0256 784.992 Q60.0256 780.122 56.5881 777.194 Q53.1188 774.234 47.3897 774.234 L46.0847 774.234 L46.0847 780.058 M43.6657 768.377 L64.0042 768.377 L64.0042 774.234 L58.5933 774.234 Q61.8398 776.239 63.3994 779.231 Q64.9272 782.223 64.9272 786.551 Q64.9272 792.026 61.8716 795.272 Q58.7843 798.487 53.6281 798.487 Q47.6125 798.487 44.5569 794.477 Q41.5014 790.434 41.5014 782.446 L41.5014 774.234 L40.9285 774.234 Q36.8862 774.234 34.6901 776.907 Q32.4621 779.549 32.4621 784.355 Q32.4621 787.411 33.1941 790.307 Q33.9262 793.204 35.3903 795.877 L29.9795 795.877 Q28.7381 792.662 28.1334 789.639 Q27.4968 786.615 27.4968 783.75 Q27.4968 776.016 31.5072 772.197 Q35.5176 768.377 43.6657 768.377 Z" fill="#000000" fill-rule="evenodd" fill-opacity="1"></path><path clip-path="url(#clip900)" d="M28.3562 759.72 L28.3562 753.863 L56.1743 746.543 L28.3562 739.254 L28.3562 732.347 L56.1743 725.027 L28.3562 717.738 L28.3562 711.882 L64.0042 721.207 L64.0042 728.114 L34.7856 735.785 L64.0042 743.487 L64.0042 750.394 L28.3562 759.72 Z" fill="#000000" fill-rule="evenodd" fill-opacity="1"></path><path clip-path="url(#clip900)" d="M16.4842 682.026 L16.4842 651.98 L21.895 651.98 L21.895 675.597 L35.9632 675.597 L35.9632 652.967 L41.3741 652.967 L41.3741 675.597 L58.5933 675.597 L58.5933 651.407 L64.0042 651.407 L64.0042 682.026 L16.4842 682.026 Z" fill="#000000" fill-rule="evenodd" fill-opacity="1"></path><path clip-path="url(#clip900)" d="M14.479 623.048 L19.3487 623.048 L19.3487 628.65 Q19.3487 631.801 20.6219 633.042 Q21.895 634.252 25.2052 634.252 L28.3562 634.252 L28.3562 624.608 L32.9077 624.608 L32.9077 634.252 L64.0042 634.252 L64.0042 640.14 L32.9077 640.14 L32.9077 645.742 L28.3562 645.742 L28.3562 640.14 L25.8736 640.14 Q19.9216 640.14 17.2162 637.371 Q14.479 634.602 14.479 628.586 L14.479 623.048 Z" fill="#000000" fill-rule="evenodd" fill-opacity="1"></path><path clip-path="url(#clip900)" d="M14.479 600.1 L19.3487 600.1 L19.3487 605.702 Q19.3487 608.853 20.6219 610.094 Q21.895 611.303 25.2052 611.303 L28.3562 611.303 L28.3562 601.659 L32.9077 601.659 L32.9077 611.303 L64.0042 611.303 L64.0042 617.192 L32.9077 617.192 L32.9077 622.794 L28.3562 622.794 L28.3562 617.192 L25.8736 617.192 Q19.9216 617.192 17.2162 614.423 Q14.479 611.654 14.479 605.638 L14.479 600.1 Z" fill="#000000" fill-rule="evenodd" fill-opacity="1"></path><path clip-path="url(#clip900)" d="M28.3562 595.198 L28.3562 589.342 L64.0042 589.342 L64.0042 595.198 L28.3562 595.198 M14.479 595.198 L14.479 589.342 L21.895 589.342 L21.895 595.198 L14.479 595.198 Z" fill="#000000" fill-rule="evenodd" fill-opacity="1"></path><path clip-path="url(#clip900)" d="M29.7248 551.434 L35.1993 551.434 Q33.8307 553.917 33.1623 556.431 Q32.4621 558.914 32.4621 561.46 Q32.4621 567.157 36.0905 570.308 Q39.6872 573.459 46.212 573.459 Q52.7369 573.459 56.3653 570.308 Q59.9619 567.157 59.9619 561.46 Q59.9619 558.914 59.2935 556.431 Q58.5933 553.917 57.2247 551.434 L62.6355 551.434 Q63.7814 553.885 64.3543 556.527 Q64.9272 559.137 64.9272 562.097 Q64.9272 570.149 59.8664 574.892 Q54.8057 579.634 46.212 579.634 Q37.491 579.634 32.4939 574.86 Q27.4968 570.054 27.4968 561.715 Q27.4968 559.009 28.0697 556.431 Q28.6108 553.853 29.7248 551.434 Z" fill="#000000" fill-rule="evenodd" fill-opacity="1"></path><path clip-path="url(#clip900)" d="M28.3562 541.249 L28.3562 535.392 L64.0042 535.392 L64.0042 541.249 L28.3562 541.249 M14.479 541.249 L14.479 535.392 L21.895 535.392 L21.895 541.249 L14.479 541.249 Z" fill="#000000" fill-rule="evenodd" fill-opacity="1"></path><path clip-path="url(#clip900)" d="M44.7161 492.647 L47.5806 492.647 L47.5806 519.574 Q53.6281 519.192 56.8109 515.945 Q59.9619 512.667 59.9619 506.842 Q59.9619 503.468 59.1344 500.317 Q58.3069 497.135 56.6518 494.015 L62.1899 494.015 Q63.5267 497.166 64.227 500.477 Q64.9272 503.787 64.9272 507.192 Q64.9272 515.722 59.9619 520.719 Q54.9967 525.685 46.5303 525.685 Q37.7774 525.685 32.6531 520.974 Q27.4968 516.232 27.4968 508.211 Q27.4968 501.018 32.1438 496.848 Q36.7589 492.647 44.7161 492.647 M42.9973 498.503 Q38.1912 498.567 35.3266 501.209 Q32.4621 503.819 32.4621 508.147 Q32.4621 513.049 35.2312 516.009 Q38.0002 518.937 43.0292 519.383 L42.9973 498.503 Z" fill="#000000" fill-rule="evenodd" fill-opacity="1"></path><path clip-path="url(#clip900)" d="M42.4881 453.402 L64.0042 453.402 L64.0042 459.259 L42.679 459.259 Q37.6183 459.259 35.1038 461.232 Q32.5894 463.205 32.5894 467.152 Q32.5894 471.895 35.6131 474.632 Q38.6368 477.369 43.8567 477.369 L64.0042 477.369 L64.0042 483.257 L28.3562 483.257 L28.3562 477.369 L33.8944 477.369 Q30.6797 475.268 29.0883 472.436 Q27.4968 469.571 27.4968 465.847 Q27.4968 459.704 31.3163 456.553 Q35.1038 453.402 42.4881 453.402 Z" fill="#000000" fill-rule="evenodd" fill-opacity="1"></path><path clip-path="url(#clip900)" d="M29.7248 416.067 L35.1993 416.067 Q33.8307 418.55 33.1623 421.064 Q32.4621 423.547 32.4621 426.093 Q32.4621 431.791 36.0905 434.942 Q39.6872 438.093 46.212 438.093 Q52.7369 438.093 56.3653 434.942 Q59.9619 431.791 59.9619 426.093 Q59.9619 423.547 59.2935 421.064 Q58.5933 418.55 57.2247 416.067 L62.6355 416.067 Q63.7814 418.518 64.3543 421.16 Q64.9272 423.77 64.9272 426.73 Q64.9272 434.782 59.8664 439.525 Q54.8057 444.267 46.212 444.267 Q37.491 444.267 32.4939 439.493 Q27.4968 434.687 27.4968 426.348 Q27.4968 423.642 28.0697 421.064 Q28.6108 418.486 29.7248 416.067 Z" fill="#000000" fill-rule="evenodd" fill-opacity="1"></path><path clip-path="url(#clip900)" d="M67.3143 391.05 Q73.68 393.533 75.6216 395.888 Q77.5631 398.243 77.5631 402.19 L77.5631 406.869 L72.6615 406.869 L72.6615 403.431 Q72.6615 401.012 71.5157 399.676 Q70.3699 398.339 66.1048 396.716 L63.4312 395.665 L28.3562 410.084 L28.3562 403.877 L56.238 392.737 L28.3562 381.597 L28.3562 375.39 L67.3143 391.05 Z" fill="#000000" fill-rule="evenodd" fill-opacity="1"></path><path clip-path="url(#clip903)" d="
M342.697 112.765 L376.327 112.765 L409.957 112.765 L443.587 112.765 L477.216 112.765 L510.846 112.765 L544.476 112.765 L578.106 112.765 L611.736 112.765 L645.366 112.765 
  L678.996 112.765 L712.626 112.765 L746.256 112.765 L779.886 112.765 L813.515 112.765 L847.145 112.765 L880.775 112.765 L914.405 112.765 L948.035 112.765 L981.665 112.765 
  L1015.29 112.765 L1048.92 112.765 L1082.55 112.765 L1116.18 112.765 L1149.81 112.765 L1183.44 112.765 L1217.07 112.765 L1250.7 112.765 L1284.33 112.765 L1317.96 112.765 
  L1351.59 112.765 L1385.22 112.765 L1418.85 112.765 L1452.48 112.765 L1486.11 112.765 L1519.74 112.765 L1553.37 112.765 L1587 112.765 L1620.63 112.765 L1654.26 112.765 
  L1687.89 112.765 L1721.52 112.765 L1755.15 112.765 L1788.78 112.765 L1822.41 112.765 L1856.04 112.765 L1889.67 112.765 L1923.3 112.765 L1956.93 112.765 L1990.56 112.765 
  L2024.19 112.765 L2057.82 112.765 L2091.45 112.765 L2125.08 112.765 L2158.71 112.765 L2192.34 112.765 L2225.97 112.765 L2259.6 112.765 L2293.23 112.765 L2293.23 112.765 
  L2259.6 112.765 L2225.97 112.765 L2192.34 112.765 L2158.71 112.765 L2125.08 112.765 L2091.45 112.765 L2057.82 112.765 L2024.19 112.765 L1990.56 112.765 L1956.93 112.765 
  L1923.3 112.765 L1889.67 112.765 L1856.04 112.765 L1822.41 112.765 L1788.78 112.765 L1755.15 112.765 L1721.52 112.765 L1687.89 112.765 L1654.26 112.765 L1620.63 112.765 
  L1587 112.765 L1553.37 112.765 L1519.74 112.765 L1486.11 112.765 L1452.48 112.765 L1418.85 112.765 L1385.22 112.765 L1351.59 112.765 L1317.96 112.765 L1284.33 112.765 
  L1250.7 112.765 L1217.07 112.765 L1183.44 112.765 L1149.81 112.765 L1116.18 112.765 L1082.55 112.765 L1048.92 112.765 L1015.29 112.765 L981.665 112.765 L948.035 112.765 
  L914.405 112.765 L880.775 112.765 L847.145 112.765 L813.515 112.765 L779.886 112.765 L746.256 112.765 L712.626 112.765 L678.996 112.765 L645.366 112.765 L611.736 112.765 
  L578.106 112.765 L544.476 112.765 L510.846 112.765 L477.216 112.765 L443.587 112.765 L409.957 112.765 L376.327 112.765 L342.697 112.765  Z
  " fill="#009af9" fill-rule="evenodd" fill-opacity="0.5"></path>
<polyline clip-path="url(#clip903)" style="stroke:#009af9; stroke-linecap:round; stroke-linejoin:round; stroke-width:4; stroke-opacity:0.2; fill:none" points="
  342.697,112.765 376.327,112.765 409.957,112.765 443.587,112.765 477.216,112.765 510.846,112.765 544.476,112.765 578.106,112.765 611.736,112.765 645.366,112.765 
  678.996,112.765 712.626,112.765 746.256,112.765 779.886,112.765 813.515,112.765 847.145,112.765 880.775,112.765 914.405,112.765 948.035,112.765 981.665,112.765 
  1015.29,112.765 1048.92,112.765 1082.55,112.765 1116.18,112.765 1149.81,112.765 1183.44,112.765 1217.07,112.765 1250.7,112.765 1284.33,112.765 1317.96,112.765 
  1351.59,112.765 1385.22,112.765 1418.85,112.765 1452.48,112.765 1486.11,112.765 1519.74,112.765 1553.37,112.765 1587,112.765 1620.63,112.765 1654.26,112.765 
  1687.89,112.765 1721.52,112.765 1755.15,112.765 1788.78,112.765 1822.41,112.765 1856.04,112.765 1889.67,112.765 1923.3,112.765 1956.93,112.765 1990.56,112.765 
  2024.19,112.765 2057.82,112.765 2091.45,112.765 2125.08,112.765 2158.71,112.765 2192.34,112.765 2225.97,112.765 2259.6,112.765 2293.23,112.765 
  "></polyline>
<polyline clip-path="url(#clip903)" style="stroke:#009af9; stroke-linecap:round; stroke-linejoin:round; stroke-width:4; stroke-opacity:1; fill:none" stroke-dasharray="16, 10" points="
  342.697,112.765 376.327,112.765 409.957,112.765 443.587,112.765 477.216,112.765 510.846,112.765 544.476,112.765 578.106,112.765 611.736,112.765 645.366,112.765 
  678.996,112.765 712.626,112.765 746.256,112.765 779.886,112.765 813.515,112.765 847.145,112.765 880.775,112.765 914.405,112.765 948.035,112.765 981.665,112.765 
  1015.29,112.765 1048.92,112.765 1082.55,112.765 1116.18,112.765 1149.81,112.765 1183.44,112.765 1217.07,112.765 1250.7,112.765 1284.33,112.765 1317.96,112.765 
  1351.59,112.765 1385.22,112.765 1418.85,112.765 1452.48,112.765 1486.11,112.765 1519.74,112.765 1553.37,112.765 1587,112.765 1620.63,112.765 1654.26,112.765 
  1687.89,112.765 1721.52,112.765 1755.15,112.765 1788.78,112.765 1822.41,112.765 1856.04,112.765 1889.67,112.765 1923.3,112.765 1956.93,112.765 1990.56,112.765 
  2024.19,112.765 2057.82,112.765 2091.45,112.765 2125.08,112.765 2158.71,112.765 2192.34,112.765 2225.97,112.765 2259.6,112.765 2293.23,112.765 
  "></polyline>
<polyline clip-path="url(#clip903)" style="stroke:#009af9; stroke-linecap:round; stroke-linejoin:round; stroke-width:4; stroke-opacity:1; fill:none" points="
  342.697,112.765 376.327,112.765 409.957,112.765 443.587,112.765 477.216,112.765 510.846,112.765 544.476,112.765 578.106,112.765 611.736,112.765 645.366,112.765 
  678.996,112.765 712.626,112.765 746.256,112.765 779.886,112.765 813.515,112.765 847.145,112.765 880.775,112.765 914.405,112.765 948.035,112.765 981.665,112.765 
  1015.29,112.765 1048.92,112.765 1082.55,112.765 1116.18,112.765 1149.81,112.765 1183.44,112.765 1217.07,112.765 1250.7,112.765 1284.33,112.765 1317.96,112.765 
  1351.59,112.765 1385.22,112.765 1418.85,112.765 1452.48,112.765 1486.11,112.765 1519.74,112.765 1553.37,112.765 1587,112.765 1620.63,112.765 1654.26,112.765 
  1687.89,112.765 1721.52,112.765 1755.15,112.765 1788.78,112.765 1822.41,112.765 1856.04,112.765 1889.67,112.765 1923.3,112.765 1956.93,112.765 1990.56,112.765 
  2024.19,112.765 2057.82,112.765 2091.45,112.765 2125.08,112.765 2158.71,112.765 2192.34,112.765 2225.97,112.765 2259.6,112.765 2293.23,112.765 
  "></polyline>
<path clip-path="url(#clip903)" d="
M342.697 112.765 L376.327 112.765 L409.957 112.765 L443.587 112.765 L477.216 112.765 L510.846 112.765 L544.476 112.765 L578.106 112.765 L611.736 112.765 L645.366 112.765 
  L678.996 112.765 L712.626 112.765 L746.256 112.765 L779.886 112.765 L813.515 112.765 L847.145 112.765 L880.775 112.765 L914.405 112.765 L948.035 112.765 L981.665 112.765 
  L1015.29 112.765 L1048.92 112.765 L1082.55 112.765 L1116.18 112.765 L1149.81 112.765 L1183.44 112.765 L1217.07 112.765 L1250.7 112.765 L1284.33 112.765 L1317.96 112.765 
  L1351.59 112.765 L1385.22 112.765 L1418.85 112.765 L1452.48 112.765 L1486.11 112.765 L1519.74 112.765 L1553.37 112.765 L1587 112.765 L1620.63 112.765 L1654.26 112.765 
  L1687.89 112.765 L1721.52 112.765 L1755.15 112.765 L1788.78 112.765 L1822.41 112.765 L1856.04 112.765 L1889.67 112.765 L1923.3 112.765 L1956.93 112.765 L1990.56 112.765 
  L2024.19 112.765 L2057.82 112.765 L2091.45 112.765 L2125.08 112.765 L2158.71 112.765 L2192.34 112.765 L2225.97 112.765 L2259.6 112.765 L2293.23 112.765 L2293.23 112.765 
  L2259.6 112.765 L2225.97 112.765 L2192.34 112.765 L2158.71 112.765 L2125.08 112.765 L2091.45 112.765 L2057.82 112.765 L2024.19 112.765 L1990.56 112.765 L1956.93 112.765 
  L1923.3 112.765 L1889.67 112.765 L1856.04 112.765 L1822.41 112.765 L1788.78 112.765 L1755.15 112.765 L1721.52 112.765 L1687.89 112.765 L1654.26 112.765 L1620.63 112.765 
  L1587 112.765 L1553.37 112.765 L1519.74 112.765 L1486.11 112.765 L1452.48 112.765 L1418.85 112.765 L1385.22 112.765 L1351.59 112.765 L1317.96 112.765 L1284.33 112.765 
  L1250.7 112.765 L1217.07 112.765 L1183.44 112.765 L1149.81 112.765 L1116.18 112.765 L1082.55 112.765 L1048.92 112.765 L1015.29 112.765 L981.665 112.765 L948.035 112.765 
  L914.405 112.765 L880.775 112.765 L847.145 112.765 L813.515 112.765 L779.886 112.765 L746.256 112.765 L712.626 112.765 L678.996 112.765 L645.366 112.765 L611.736 112.765 
  L578.106 112.765 L544.476 112.765 L510.846 112.765 L477.216 112.765 L443.587 112.765 L409.957 112.765 L376.327 112.765 L342.697 112.765  Z
  " fill="#e26f46" fill-rule="evenodd" fill-opacity="0.5"></path>
<polyline clip-path="url(#clip903)" style="stroke:#e26f46; stroke-linecap:round; stroke-linejoin:round; stroke-width:4; stroke-opacity:0.2; fill:none" points="
  342.697,112.765 376.327,112.765 409.957,112.765 443.587,112.765 477.216,112.765 510.846,112.765 544.476,112.765 578.106,112.765 611.736,112.765 645.366,112.765 
  678.996,112.765 712.626,112.765 746.256,112.765 779.886,112.765 813.515,112.765 847.145,112.765 880.775,112.765 914.405,112.765 948.035,112.765 981.665,112.765 
  1015.29,112.765 1048.92,112.765 1082.55,112.765 1116.18,112.765 1149.81,112.765 1183.44,112.765 1217.07,112.765 1250.7,112.765 1284.33,112.765 1317.96,112.765 
  1351.59,112.765 1385.22,112.765 1418.85,112.765 1452.48,112.765 1486.11,112.765 1519.74,112.765 1553.37,112.765 1587,112.765 1620.63,112.765 1654.26,112.765 
  1687.89,112.765 1721.52,112.765 1755.15,112.765 1788.78,112.765 1822.41,112.765 1856.04,112.765 1889.67,112.765 1923.3,112.765 1956.93,112.765 1990.56,112.765 
  2024.19,112.765 2057.82,112.765 2091.45,112.765 2125.08,112.765 2158.71,112.765 2192.34,112.765 2225.97,112.765 2259.6,112.765 2293.23,112.765 
  "></polyline>
<polyline clip-path="url(#clip903)" style="stroke:#e26f46; stroke-linecap:round; stroke-linejoin:round; stroke-width:4; stroke-opacity:1; fill:none" stroke-dasharray="16, 10" points="
  342.697,112.765 376.327,112.765 409.957,112.765 443.587,112.765 477.216,112.765 510.846,112.765 544.476,112.765 578.106,112.765 611.736,112.765 645.366,112.765 
  678.996,112.765 712.626,112.765 746.256,112.765 779.886,112.765 813.515,112.765 847.145,112.765 880.775,112.765 914.405,112.765 948.035,112.765 981.665,112.765 
  1015.29,112.765 1048.92,112.765 1082.55,112.765 1116.18,112.765 1149.81,112.765 1183.44,112.765 1217.07,112.765 1250.7,112.765 1284.33,112.765 1317.96,112.765 
  1351.59,112.765 1385.22,112.765 1418.85,112.765 1452.48,112.765 1486.11,112.765 1519.74,112.765 1553.37,112.765 1587,112.765 1620.63,112.765 1654.26,112.765 
  1687.89,112.765 1721.52,112.765 1755.15,112.765 1788.78,112.765 1822.41,112.765 1856.04,112.765 1889.67,112.765 1923.3,112.765 1956.93,112.765 1990.56,112.765 
  2024.19,112.765 2057.82,112.765 2091.45,112.765 2125.08,112.765 2158.71,112.765 2192.34,112.765 2225.97,112.765 2259.6,112.765 2293.23,112.765 
  "></polyline>
<polyline clip-path="url(#clip903)" style="stroke:#e26f46; stroke-linecap:round; stroke-linejoin:round; stroke-width:4; stroke-opacity:1; fill:none" points="
  342.697,112.765 376.327,112.765 409.957,112.765 443.587,112.765 477.216,112.765 510.846,112.765 544.476,112.765 578.106,112.765 611.736,112.765 645.366,112.765 
  678.996,112.765 712.626,112.765 746.256,112.765 779.886,112.765 813.515,112.765 847.145,112.765 880.775,112.765 914.405,112.765 948.035,112.765 981.665,112.765 
  1015.29,112.765 1048.92,112.765 1082.55,112.765 1116.18,112.765 1149.81,112.765 1183.44,112.765 1217.07,112.765 1250.7,112.765 1284.33,112.765 1317.96,112.765 
  1351.59,112.765 1385.22,112.765 1418.85,112.765 1452.48,112.765 1486.11,112.765 1519.74,112.765 1553.37,112.765 1587,112.765 1620.63,112.765 1654.26,112.765 
  1687.89,112.765 1721.52,112.765 1755.15,112.765 1788.78,112.765 1822.41,112.765 1856.04,112.765 1889.67,112.765 1923.3,112.765 1956.93,112.765 1990.56,112.765 
  2024.19,112.765 2057.82,112.765 2091.45,112.765 2125.08,112.765 2158.71,112.765 2192.34,112.765 2225.97,112.765 2259.6,112.765 2293.23,112.765 
  "></polyline>
<path clip-path="url(#clip903)" d="
M342.697 112.765 L376.327 112.765 L409.957 112.765 L443.587 112.765 L477.216 112.765 L510.846 112.765 L544.476 112.765 L578.106 112.765 L611.736 112.765 L645.366 112.765 
  L678.996 112.765 L712.626 112.765 L746.256 112.765 L779.886 112.765 L813.515 112.765 L847.145 112.765 L880.775 112.765 L914.405 112.765 L948.035 112.765 L981.665 112.765 
  L1015.29 112.765 L1048.92 112.765 L1082.55 112.765 L1116.18 112.765 L1149.81 112.765 L1183.44 112.765 L1217.07 112.765 L1250.7 112.765 L1284.33 112.765 L1317.96 112.765 
  L1351.59 112.765 L1385.22 112.765 L1418.85 112.765 L1452.48 112.765 L1486.11 112.765 L1519.74 112.765 L1553.37 112.765 L1587 112.765 L1620.63 112.765 L1654.26 112.765 
  L1687.89 112.765 L1721.52 112.765 L1755.15 112.765 L1788.78 112.765 L1822.41 112.765 L1856.04 112.765 L1889.67 112.765 L1923.3 112.765 L1956.93 112.765 L1990.56 112.765 
  L2024.19 112.765 L2057.82 112.765 L2091.45 112.765 L2125.08 112.765 L2158.71 112.765 L2192.34 112.765 L2225.97 112.765 L2259.6 112.765 L2293.23 112.765 L2293.23 112.765 
  L2259.6 112.765 L2225.97 112.765 L2192.34 112.765 L2158.71 112.765 L2125.08 112.765 L2091.45 112.765 L2057.82 112.765 L2024.19 112.765 L1990.56 112.765 L1956.93 112.765 
  L1923.3 112.765 L1889.67 112.765 L1856.04 112.765 L1822.41 112.765 L1788.78 112.765 L1755.15 112.765 L1721.52 112.765 L1687.89 112.765 L1654.26 112.765 L1620.63 112.765 
  L1587 112.765 L1553.37 112.765 L1519.74 112.765 L1486.11 112.765 L1452.48 112.765 L1418.85 112.765 L1385.22 112.765 L1351.59 112.765 L1317.96 112.765 L1284.33 112.765 
  L1250.7 112.765 L1217.07 112.765 L1183.44 112.765 L1149.81 112.765 L1116.18 112.765 L1082.55 112.765 L1048.92 112.765 L1015.29 112.765 L981.665 112.765 L948.035 112.765 
  L914.405 112.765 L880.775 112.765 L847.145 112.765 L813.515 112.765 L779.886 112.765 L746.256 112.765 L712.626 112.765 L678.996 112.765 L645.366 112.765 L611.736 112.765 
  L578.106 112.765 L544.476 112.765 L510.846 112.765 L477.216 112.765 L443.587 112.765 L409.957 112.765 L376.327 112.765 L342.697 112.765  Z
  " fill="#3da44d" fill-rule="evenodd" fill-opacity="0.5"></path>
<polyline clip-path="url(#clip903)" style="stroke:#3da44d; stroke-linecap:round; stroke-linejoin:round; stroke-width:4; stroke-opacity:0.2; fill:none" points="
  342.697,112.765 376.327,112.765 409.957,112.765 443.587,112.765 477.216,112.765 510.846,112.765 544.476,112.765 578.106,112.765 611.736,112.765 645.366,112.765 
  678.996,112.765 712.626,112.765 746.256,112.765 779.886,112.765 813.515,112.765 847.145,112.765 880.775,112.765 914.405,112.765 948.035,112.765 981.665,112.765 
  1015.29,112.765 1048.92,112.765 1082.55,112.765 1116.18,112.765 1149.81,112.765 1183.44,112.765 1217.07,112.765 1250.7,112.765 1284.33,112.765 1317.96,112.765 
  1351.59,112.765 1385.22,112.765 1418.85,112.765 1452.48,112.765 1486.11,112.765 1519.74,112.765 1553.37,112.765 1587,112.765 1620.63,112.765 1654.26,112.765 
  1687.89,112.765 1721.52,112.765 1755.15,112.765 1788.78,112.765 1822.41,112.765 1856.04,112.765 1889.67,112.765 1923.3,112.765 1956.93,112.765 1990.56,112.765 
  2024.19,112.765 2057.82,112.765 2091.45,112.765 2125.08,112.765 2158.71,112.765 2192.34,112.765 2225.97,112.765 2259.6,112.765 2293.23,112.765 
  "></polyline>
<polyline clip-path="url(#clip903)" style="stroke:#3da44d; stroke-linecap:round; stroke-linejoin:round; stroke-width:4; stroke-opacity:1; fill:none" stroke-dasharray="16, 10" points="
  342.697,112.765 376.327,112.765 409.957,112.765 443.587,112.765 477.216,112.765 510.846,112.765 544.476,112.765 578.106,112.765 611.736,112.765 645.366,112.765 
  678.996,112.765 712.626,112.765 746.256,112.765 779.886,112.765 813.515,112.765 847.145,112.765 880.775,112.765 914.405,112.765 948.035,112.765 981.665,112.765 
  1015.29,112.765 1048.92,112.765 1082.55,112.765 1116.18,112.765 1149.81,112.765 1183.44,112.765 1217.07,112.765 1250.7,112.765 1284.33,112.765 1317.96,112.765 
  1351.59,112.765 1385.22,112.765 1418.85,112.765 1452.48,112.765 1486.11,112.765 1519.74,112.765 1553.37,112.765 1587,112.765 1620.63,112.765 1654.26,112.765 
  1687.89,112.765 1721.52,112.765 1755.15,112.765 1788.78,112.765 1822.41,112.765 1856.04,112.765 1889.67,112.765 1923.3,112.765 1956.93,112.765 1990.56,112.765 
  2024.19,112.765 2057.82,112.765 2091.45,112.765 2125.08,112.765 2158.71,112.765 2192.34,112.765 2225.97,112.765 2259.6,112.765 2293.23,112.765 
  "></polyline>
<polyline clip-path="url(#clip903)" style="stroke:#3da44d; stroke-linecap:round; stroke-linejoin:round; stroke-width:4; stroke-opacity:1; fill:none" points="
  342.697,112.765 376.327,112.765 409.957,112.765 443.587,112.765 477.216,112.765 510.846,112.765 544.476,112.765 578.106,112.765 611.736,112.765 645.366,112.765 
  678.996,112.765 712.626,112.765 746.256,112.765 779.886,112.765 813.515,112.765 847.145,112.765 880.775,112.765 914.405,112.765 948.035,112.765 981.665,112.765 
  1015.29,112.765 1048.92,112.765 1082.55,112.765 1116.18,112.765 1149.81,112.765 1183.44,112.765 1217.07,112.765 1250.7,112.765 1284.33,112.765 1317.96,112.765 
  1351.59,112.765 1385.22,112.765 1418.85,112.765 1452.48,112.765 1486.11,112.765 1519.74,112.765 1553.37,112.765 1587,112.765 1620.63,112.765 1654.26,112.765 
  1687.89,112.765 1721.52,112.765 1755.15,112.765 1788.78,112.765 1822.41,112.765 1856.04,112.765 1889.67,112.765 1923.3,112.765 1956.93,112.765 1990.56,112.765 
  2024.19,112.765 2057.82,112.765 2091.45,112.765 2125.08,112.765 2158.71,112.765 2192.34,112.765 2225.97,112.765 2259.6,112.765 2293.23,112.765 
  "></polyline>
<path clip-path="url(#clip903)" d="
M342.697 112.765 L376.327 112.765 L409.957 112.765 L443.587 112.765 L477.216 112.765 L510.846 112.765 L544.476 112.765 L578.106 112.765 L611.736 112.765 L645.366 112.765 
  L678.996 112.765 L712.626 112.765 L746.256 112.765 L779.886 112.765 L813.515 112.765 L847.145 112.765 L880.775 112.765 L914.405 112.765 L948.035 112.765 L981.665 112.765 
  L1015.29 112.765 L1048.92 112.765 L1082.55 112.765 L1116.18 112.765 L1149.81 112.765 L1183.44 112.765 L1217.07 112.765 L1250.7 112.765 L1284.33 112.765 L1317.96 112.765 
  L1351.59 112.765 L1385.22 112.765 L1418.85 112.765 L1452.48 112.765 L1486.11 112.765 L1519.74 112.765 L1553.37 112.765 L1587 112.765 L1620.63 112.765 L1654.26 112.765 
  L1687.89 112.765 L1721.52 112.765 L1755.15 112.765 L1788.78 112.765 L1822.41 112.765 L1856.04 112.765 L1889.67 112.765 L1923.3 112.765 L1956.93 112.765 L1990.56 112.765 
  L2024.19 112.765 L2057.82 112.765 L2091.45 112.765 L2125.08 112.765 L2158.71 112.765 L2192.34 112.765 L2225.97 112.765 L2259.6 112.765 L2293.23 112.765 L2293.23 112.765 
  L2259.6 112.765 L2225.97 112.765 L2192.34 112.765 L2158.71 112.765 L2125.08 112.765 L2091.45 112.765 L2057.82 112.765 L2024.19 112.765 L1990.56 112.765 L1956.93 112.765 
  L1923.3 112.765 L1889.67 112.765 L1856.04 112.765 L1822.41 112.765 L1788.78 112.765 L1755.15 112.765 L1721.52 112.765 L1687.89 112.765 L1654.26 112.765 L1620.63 112.765 
  L1587 112.765 L1553.37 112.765 L1519.74 112.765 L1486.11 112.765 L1452.48 112.765 L1418.85 112.765 L1385.22 112.765 L1351.59 112.765 L1317.96 112.765 L1284.33 112.765 
  L1250.7 112.765 L1217.07 112.765 L1183.44 112.765 L1149.81 112.765 L1116.18 112.765 L1082.55 112.765 L1048.92 112.765 L1015.29 112.765 L981.665 112.765 L948.035 112.765 
  L914.405 112.765 L880.775 112.765 L847.145 112.765 L813.515 112.765 L779.886 112.765 L746.256 112.765 L712.626 112.765 L678.996 112.765 L645.366 112.765 L611.736 112.765 
  L578.106 112.765 L544.476 112.765 L510.846 112.765 L477.216 112.765 L443.587 112.765 L409.957 112.765 L376.327 112.765 L342.697 112.765  Z
  " fill="#c271d2" fill-rule="evenodd" fill-opacity="0.5"></path>
<polyline clip-path="url(#clip903)" style="stroke:#c271d2; stroke-linecap:round; stroke-linejoin:round; stroke-width:4; stroke-opacity:0.2; fill:none" points="
  342.697,112.765 376.327,112.765 409.957,112.765 443.587,112.765 477.216,112.765 510.846,112.765 544.476,112.765 578.106,112.765 611.736,112.765 645.366,112.765 
  678.996,112.765 712.626,112.765 746.256,112.765 779.886,112.765 813.515,112.765 847.145,112.765 880.775,112.765 914.405,112.765 948.035,112.765 981.665,112.765 
  1015.29,112.765 1048.92,112.765 1082.55,112.765 1116.18,112.765 1149.81,112.765 1183.44,112.765 1217.07,112.765 1250.7,112.765 1284.33,112.765 1317.96,112.765 
  1351.59,112.765 1385.22,112.765 1418.85,112.765 1452.48,112.765 1486.11,112.765 1519.74,112.765 1553.37,112.765 1587,112.765 1620.63,112.765 1654.26,112.765 
  1687.89,112.765 1721.52,112.765 1755.15,112.765 1788.78,112.765 1822.41,112.765 1856.04,112.765 1889.67,112.765 1923.3,112.765 1956.93,112.765 1990.56,112.765 
  2024.19,112.765 2057.82,112.765 2091.45,112.765 2125.08,112.765 2158.71,112.765 2192.34,112.765 2225.97,112.765 2259.6,112.765 2293.23,112.765 
  "></polyline>
<polyline clip-path="url(#clip903)" style="stroke:#c271d2; stroke-linecap:round; stroke-linejoin:round; stroke-width:4; stroke-opacity:1; fill:none" stroke-dasharray="16, 10" points="
  342.697,112.765 376.327,112.765 409.957,112.765 443.587,112.765 477.216,112.765 510.846,112.765 544.476,112.765 578.106,112.765 611.736,112.765 645.366,112.765 
  678.996,112.765 712.626,112.765 746.256,112.765 779.886,112.765 813.515,112.765 847.145,112.765 880.775,112.765 914.405,112.765 948.035,112.765 981.665,112.765 
  1015.29,112.765 1048.92,112.765 1082.55,112.765 1116.18,112.765 1149.81,112.765 1183.44,112.765 1217.07,112.765 1250.7,112.765 1284.33,112.765 1317.96,112.765 
  1351.59,112.765 1385.22,112.765 1418.85,112.765 1452.48,112.765 1486.11,112.765 1519.74,112.765 1553.37,112.765 1587,112.765 1620.63,112.765 1654.26,112.765 
  1687.89,112.765 1721.52,112.765 1755.15,112.765 1788.78,112.765 1822.41,112.765 1856.04,112.765 1889.67,112.765 1923.3,112.765 1956.93,112.765 1990.56,112.765 
  2024.19,112.765 2057.82,112.765 2091.45,112.765 2125.08,112.765 2158.71,112.765 2192.34,112.765 2225.97,112.765 2259.6,112.765 2293.23,112.765 
  "></polyline>
<polyline clip-path="url(#clip903)" style="stroke:#c271d2; stroke-linecap:round; stroke-linejoin:round; stroke-width:4; stroke-opacity:1; fill:none" points="
  342.697,112.765 376.327,112.765 409.957,112.765 443.587,112.765 477.216,112.765 510.846,112.765 544.476,112.765 578.106,112.765 611.736,112.765 645.366,112.765 
  678.996,112.765 712.626,112.765 746.256,112.765 779.886,112.765 813.515,112.765 847.145,112.765 880.775,112.765 914.405,112.765 948.035,112.765 981.665,112.765 
  1015.29,112.765 1048.92,112.765 1082.55,112.765 1116.18,112.765 1149.81,112.765 1183.44,112.765 1217.07,112.765 1250.7,112.765 1284.33,112.765 1317.96,112.765 
  1351.59,112.765 1385.22,112.765 1418.85,112.765 1452.48,112.765 1486.11,112.765 1519.74,112.765 1553.37,112.765 1587,112.765 1620.63,112.765 1654.26,112.765 
  1687.89,112.765 1721.52,112.765 1755.15,112.765 1788.78,112.765 1822.41,112.765 1856.04,112.765 1889.67,112.765 1923.3,112.765 1956.93,112.765 1990.56,112.765 
  2024.19,112.765 2057.82,112.765 2091.45,112.765 2125.08,112.765 2158.71,112.765 2192.34,112.765 2225.97,112.765 2259.6,112.765 2293.23,112.765 
  "></polyline>
<path clip-path="url(#clip900)" d="
M1999.3 1377.32 L2282.65 1377.32 L2282.65 1118.12 L1999.3 1118.12  Z
  " fill="#ffffff" fill-rule="evenodd" fill-opacity="1"></path>
<polyline clip-path="url(#clip900)" style="stroke:#000000; stroke-linecap:round; stroke-linejoin:round; stroke-width:4; stroke-opacity:1; fill:none" points="
  1999.3,1377.32 2282.65,1377.32 2282.65,1118.12 1999.3,1118.12 1999.3,1377.32 
  "></polyline>
<path clip-path="url(#clip900)" d="
M2022.67 1190.69 L2162.89 1190.69 L2162.89 1149.22 L2022.67 1149.22 L2022.67 1190.69  Z
  " fill="#009af9" fill-rule="evenodd" fill-opacity="0.5"></path>
<polyline clip-path="url(#clip900)" style="stroke:#009af9; stroke-linecap:round; stroke-linejoin:round; stroke-width:4; stroke-opacity:0.2; fill:none" points="
  2022.67,1149.22 2162.89,1149.22 
  "></polyline>
<path clip-path="url(#clip900)" d="M2219.17 1185.73 Q2219.17 1186.17 2218.98 1186.41 Q2218.81 1186.62 2218.65 1186.67 Q2218.51 1186.69 2218.3 1186.69 Q2217.69 1186.69 2215.58 1186.62 Q2213.47 1186.55 2212.86 1186.55 Q2211.88 1186.55 2209.87 1186.62 Q2207.85 1186.69 2206.87 1186.69 Q2206.21 1186.69 2206.21 1186.15 Q2206.21 1185.8 2206.28 1185.61 Q2206.35 1185.4 2206.54 1185.33 Q2206.75 1185.24 2206.87 1185.24 Q2207.01 1185.21 2207.36 1185.21 Q2207.83 1185.21 2208.32 1185.17 Q2208.81 1185.1 2209.42 1184.96 Q2210.03 1184.82 2210.41 1184.46 Q2210.8 1184.11 2210.8 1183.62 Q2210.8 1183.41 2210.64 1181.68 Q2210.48 1179.94 2210.26 1177.93 Q2210.05 1175.89 2210.03 1175.61 L2197.99 1175.61 Q2196.89 1177.51 2196.12 1178.82 Q2195.34 1180.13 2195.06 1180.58 Q2194.78 1181.02 2194.62 1181.3 Q2194.45 1181.58 2194.36 1181.75 Q2193.68 1182.99 2193.68 1183.53 Q2193.68 1185.03 2195.93 1185.21 Q2196.7 1185.21 2196.7 1185.78 Q2196.7 1186.2 2196.52 1186.43 Q2196.33 1186.64 2196.16 1186.67 Q2196.02 1186.69 2195.79 1186.69 Q2195.02 1186.69 2193.4 1186.62 Q2191.78 1186.55 2190.99 1186.55 Q2190.31 1186.55 2188.9 1186.62 Q2187.5 1186.69 2186.87 1186.69 Q2186.58 1186.69 2186.42 1186.53 Q2186.26 1186.36 2186.26 1186.15 Q2186.26 1185.82 2186.3 1185.64 Q2186.37 1185.45 2186.56 1185.35 Q2186.75 1185.26 2186.84 1185.26 Q2186.94 1185.24 2187.26 1185.21 Q2189.04 1185.1 2190.43 1184.25 Q2191.83 1183.39 2193.17 1181.16 L2209.84 1153.15 Q2210.01 1152.87 2210.12 1152.73 Q2210.24 1152.59 2210.48 1152.47 Q2210.73 1152.35 2211.11 1152.35 Q2211.69 1152.35 2211.81 1152.54 Q2211.93 1152.7 2212 1153.5 L2214.93 1183.48 Q2215 1184.11 2215.04 1184.37 Q2215.11 1184.61 2215.42 1184.86 Q2215.75 1185.1 2216.33 1185.17 Q2216.94 1185.21 2218.06 1185.21 Q2218.49 1185.21 2218.65 1185.24 Q2218.81 1185.24 2218.98 1185.35 Q2219.17 1185.47 2219.17 1185.73 M2209.89 1174.11 L2208.37 1158.3 L2198.9 1174.11 L2209.89 1174.11 Z" fill="#000000" fill-rule="evenodd" fill-opacity="1"></path><path clip-path="url(#clip900)" d="M2240.65 1168.61 Q2240.65 1169.85 2239.83 1170.65 Q2239.03 1171.44 2238 1171.44 Q2237.11 1171.44 2236.64 1170.93 Q2236.17 1170.41 2236.17 1169.76 Q2236.17 1168.82 2236.9 1168.05 Q2237.63 1167.27 2238.68 1167.11 Q2237.91 1166.55 2236.67 1166.55 Q2234.63 1166.55 2232.82 1168.12 Q2232.03 1168.84 2231.16 1170.18 Q2230.3 1171.49 2230.13 1172.05 L2228.61 1178.3 Q2228.47 1179.01 2227.6 1182.38 Q2226.76 1185.73 2226.69 1185.87 Q2226.45 1186.53 2225.94 1186.88 Q2225.42 1187.23 2224.91 1187.23 Q2224.32 1187.23 2223.92 1186.88 Q2223.53 1186.53 2223.53 1185.92 Q2223.53 1185.82 2223.6 1185.47 Q2223.67 1185.12 2223.78 1184.63 Q2223.9 1184.14 2223.95 1183.86 L2226.74 1172.78 Q2227.25 1170.76 2227.37 1170.13 Q2227.51 1169.47 2227.51 1168.75 Q2227.51 1167.48 2227.11 1167.01 Q2226.71 1166.55 2226.01 1166.55 Q2224.79 1166.55 2223.99 1168 Q2223.2 1169.45 2222.52 1172.26 Q2222.31 1173.03 2222.17 1173.2 Q2222.05 1173.36 2221.7 1173.36 Q2221.11 1173.34 2221.11 1172.87 Q2221.11 1172.75 2221.3 1172 Q2221.49 1171.23 2221.84 1170.11 Q2222.21 1168.96 2222.61 1168.23 Q2222.85 1167.74 2223.06 1167.41 Q2223.27 1167.09 2223.69 1166.57 Q2224.11 1166.05 2224.74 1165.77 Q2225.38 1165.49 2226.15 1165.49 Q2227.84 1165.49 2229.03 1166.52 Q2230.25 1167.55 2230.53 1169.17 Q2231.12 1168.33 2231.84 1167.6 Q2232.57 1166.85 2233.9 1166.17 Q2235.24 1165.49 2236.67 1165.49 Q2238.45 1165.49 2239.55 1166.41 Q2240.65 1167.3 2240.65 1168.61 Z" fill="#000000" fill-rule="evenodd" fill-opacity="1"></path><path clip-path="url(#clip900)" d="
M2022.67 1242.53 L2162.89 1242.53 L2162.89 1201.06 L2022.67 1201.06 L2022.67 1242.53  Z
  " fill="#e26f46" fill-rule="evenodd" fill-opacity="0.5"></path>
<polyline clip-path="url(#clip900)" style="stroke:#e26f46; stroke-linecap:round; stroke-linejoin:round; stroke-width:4; stroke-opacity:0.2; fill:none" points="
  2022.67,1201.06 2162.89,1201.06 
  "></polyline>
<path clip-path="url(#clip900)" d="M2219.17 1237.57 Q2219.17 1238.01 2218.98 1238.25 Q2218.81 1238.46 2218.65 1238.51 Q2218.51 1238.53 2218.3 1238.53 Q2217.69 1238.53 2215.58 1238.46 Q2213.47 1238.39 2212.86 1238.39 Q2211.88 1238.39 2209.87 1238.46 Q2207.85 1238.53 2206.87 1238.53 Q2206.21 1238.53 2206.21 1237.99 Q2206.21 1237.64 2206.28 1237.45 Q2206.35 1237.24 2206.54 1237.17 Q2206.75 1237.08 2206.87 1237.08 Q2207.01 1237.05 2207.36 1237.05 Q2207.83 1237.05 2208.32 1237.01 Q2208.81 1236.94 2209.42 1236.8 Q2210.03 1236.66 2210.41 1236.3 Q2210.8 1235.95 2210.8 1235.46 Q2210.8 1235.25 2210.64 1233.52 Q2210.48 1231.78 2210.26 1229.77 Q2210.05 1227.73 2210.03 1227.45 L2197.99 1227.45 Q2196.89 1229.35 2196.12 1230.66 Q2195.34 1231.97 2195.06 1232.42 Q2194.78 1232.86 2194.62 1233.14 Q2194.45 1233.42 2194.36 1233.59 Q2193.68 1234.83 2193.68 1235.37 Q2193.68 1236.87 2195.93 1237.05 Q2196.7 1237.05 2196.7 1237.62 Q2196.7 1238.04 2196.52 1238.27 Q2196.33 1238.48 2196.16 1238.51 Q2196.02 1238.53 2195.79 1238.53 Q2195.02 1238.53 2193.4 1238.46 Q2191.78 1238.39 2190.99 1238.39 Q2190.31 1238.39 2188.9 1238.46 Q2187.5 1238.53 2186.87 1238.53 Q2186.58 1238.53 2186.42 1238.37 Q2186.26 1238.2 2186.26 1237.99 Q2186.26 1237.66 2186.3 1237.48 Q2186.37 1237.29 2186.56 1237.19 Q2186.75 1237.1 2186.84 1237.1 Q2186.94 1237.08 2187.26 1237.05 Q2189.04 1236.94 2190.43 1236.09 Q2191.83 1235.23 2193.17 1233 L2209.84 1204.99 Q2210.01 1204.71 2210.12 1204.57 Q2210.24 1204.43 2210.48 1204.31 Q2210.73 1204.19 2211.11 1204.19 Q2211.69 1204.19 2211.81 1204.38 Q2211.93 1204.54 2212 1205.34 L2214.93 1235.32 Q2215 1235.95 2215.04 1236.21 Q2215.11 1236.45 2215.42 1236.7 Q2215.75 1236.94 2216.33 1237.01 Q2216.94 1237.05 2218.06 1237.05 Q2218.49 1237.05 2218.65 1237.08 Q2218.81 1237.08 2218.98 1237.19 Q2219.17 1237.31 2219.17 1237.57 M2209.89 1225.95 L2208.37 1210.14 L2198.9 1225.95 L2209.89 1225.95 Z" fill="#000000" fill-rule="evenodd" fill-opacity="1"></path><path clip-path="url(#clip900)" d="M2233.36 1208.55 Q2233.36 1209.58 2232.52 1210.35 Q2231.7 1211.1 2230.81 1211.1 Q2229.99 1211.1 2229.48 1210.61 Q2228.98 1210.09 2228.98 1209.37 Q2228.98 1208.41 2229.8 1207.61 Q2230.62 1206.82 2231.58 1206.82 Q2232.38 1206.82 2232.87 1207.31 Q2233.36 1207.8 2233.36 1208.55 M2233.79 1231.67 Q2233.79 1231.85 2233.57 1232.6 Q2233.36 1233.33 2232.85 1234.45 Q2232.36 1235.56 2231.68 1236.59 Q2231 1237.62 2229.87 1238.34 Q2228.77 1239.07 2227.51 1239.07 Q2225.8 1239.07 2224.67 1237.94 Q2223.57 1236.82 2223.57 1235.13 Q2223.57 1234.22 2224.67 1231.29 Q2227.86 1222.77 2227.98 1222.42 Q2228.52 1221.08 2228.52 1219.91 Q2228.52 1219.37 2228.4 1219.04 Q2228.28 1218.69 2228.05 1218.57 Q2227.81 1218.43 2227.67 1218.41 Q2227.55 1218.39 2227.32 1218.39 Q2225.94 1218.39 2224.65 1219.79 Q2223.36 1221.2 2222.47 1224.34 Q2222.28 1224.92 2222.17 1225.06 Q2222.05 1225.2 2221.7 1225.2 Q2221.11 1225.18 2221.11 1224.71 Q2221.11 1224.57 2221.28 1224.03 Q2221.44 1223.47 2221.75 1222.63 Q2222.05 1221.76 2222.59 1220.87 Q2223.13 1219.96 2223.78 1219.16 Q2224.46 1218.36 2225.42 1217.85 Q2226.38 1217.33 2227.46 1217.33 Q2229.22 1217.33 2230.3 1218.48 Q2231.4 1219.6 2231.4 1221.27 Q2231.4 1222.18 2230.76 1223.8 Q2229.99 1225.9 2229.71 1226.58 L2227.84 1231.62 Q2227.16 1233.45 2226.95 1234.01 Q2226.76 1234.55 2226.59 1235.2 Q2226.45 1235.84 2226.45 1236.42 Q2226.45 1237.24 2226.71 1237.62 Q2226.99 1237.99 2227.6 1237.99 Q2229.29 1237.99 2230.53 1236.33 Q2231.77 1234.64 2232.5 1232.07 Q2232.52 1231.99 2232.54 1231.88 Q2232.73 1231.29 2232.92 1231.22 Q2233.01 1231.2 2233.2 1231.2 Q2233.79 1231.2 2233.79 1231.67 Z" fill="#000000" fill-rule="evenodd" fill-opacity="1"></path><path clip-path="url(#clip900)" d="M2257.41 1220.45 Q2257.41 1221.69 2256.59 1222.49 Q2255.79 1223.28 2254.76 1223.28 Q2253.87 1223.28 2253.4 1222.77 Q2252.93 1222.25 2252.93 1221.6 Q2252.93 1220.66 2253.66 1219.89 Q2254.39 1219.11 2255.44 1218.95 Q2254.67 1218.39 2253.42 1218.39 Q2251.39 1218.39 2249.58 1219.96 Q2248.79 1220.68 2247.92 1222.02 Q2247.05 1223.33 2246.89 1223.89 L2245.37 1230.14 Q2245.23 1230.85 2244.36 1234.22 Q2243.52 1237.57 2243.45 1237.71 Q2243.21 1238.37 2242.7 1238.72 Q2242.18 1239.07 2241.67 1239.07 Q2241.08 1239.07 2240.68 1238.72 Q2240.28 1238.37 2240.28 1237.76 Q2240.28 1237.66 2240.36 1237.31 Q2240.43 1236.96 2240.54 1236.47 Q2240.66 1235.98 2240.71 1235.7 L2243.49 1224.62 Q2244.01 1222.6 2244.13 1221.97 Q2244.27 1221.31 2244.27 1220.59 Q2244.27 1219.32 2243.87 1218.85 Q2243.47 1218.39 2242.77 1218.39 Q2241.55 1218.39 2240.75 1219.84 Q2239.96 1221.29 2239.28 1224.1 Q2239.07 1224.87 2238.93 1225.04 Q2238.81 1225.2 2238.46 1225.2 Q2237.87 1225.18 2237.87 1224.71 Q2237.87 1224.59 2238.06 1223.84 Q2238.25 1223.07 2238.6 1221.95 Q2238.97 1220.8 2239.37 1220.07 Q2239.61 1219.58 2239.82 1219.25 Q2240.03 1218.93 2240.45 1218.41 Q2240.87 1217.89 2241.5 1217.61 Q2242.14 1217.33 2242.91 1217.33 Q2244.59 1217.33 2245.79 1218.36 Q2247.01 1219.39 2247.29 1221.01 Q2247.87 1220.17 2248.6 1219.44 Q2249.33 1218.69 2250.66 1218.01 Q2252 1217.33 2253.42 1217.33 Q2255.2 1217.33 2256.31 1218.25 Q2257.41 1219.14 2257.41 1220.45 Z" fill="#000000" fill-rule="evenodd" fill-opacity="1"></path><path clip-path="url(#clip900)" d="
M2022.67 1294.37 L2162.89 1294.37 L2162.89 1252.9 L2022.67 1252.9 L2022.67 1294.37  Z
  " fill="#3da44d" fill-rule="evenodd" fill-opacity="0.5"></path>
<polyline clip-path="url(#clip900)" style="stroke:#3da44d; stroke-linecap:round; stroke-linejoin:round; stroke-width:4; stroke-opacity:0.2; fill:none" points="
  2022.67,1252.9 2162.89,1252.9 
  "></polyline>
<path clip-path="url(#clip900)" d="M2226.64 1257.37 Q2226.64 1258.05 2226.33 1258.19 Q2226.05 1258.33 2225.02 1258.33 Q2223.26 1258.33 2222.47 1258.56 Q2221.69 1258.77 2221.46 1259.15 Q2221.25 1259.5 2220.99 1260.53 L2214.5 1286.43 Q2214.5 1286.46 2214.43 1286.79 Q2214.36 1287.09 2214.36 1287.25 Q2214.36 1287.56 2214.55 1287.75 Q2214.76 1287.93 2215.28 1288.03 Q2215.79 1288.1 2216.19 1288.12 Q2216.61 1288.12 2217.48 1288.12 Q2218.56 1288.12 2218.72 1288.31 Q2218.81 1288.43 2218.81 1288.64 Q2218.81 1289.08 2218.63 1289.32 Q2218.46 1289.53 2218.3 1289.57 Q2218.16 1289.6 2217.88 1289.6 Q2217.39 1289.6 2216.33 1289.55 Q2215.28 1289.5 2214.74 1289.5 L2211.67 1289.46 L2205.58 1289.6 Q2204.92 1289.6 2204.92 1289.06 Q2204.92 1288.59 2205.09 1288.38 Q2205.25 1288.17 2205.42 1288.14 Q2205.6 1288.12 2206.07 1288.12 Q2208.48 1288.12 2209.28 1287.89 Q2210.1 1287.63 2210.43 1286.53 L2213.73 1273.29 L2199.12 1273.29 L2195.84 1286.43 Q2195.84 1286.46 2195.77 1286.79 Q2195.7 1287.09 2195.7 1287.25 Q2195.7 1287.56 2195.88 1287.75 Q2196.09 1287.93 2196.61 1288.03 Q2197.12 1288.1 2197.52 1288.12 Q2197.94 1288.12 2198.81 1288.12 Q2199.89 1288.12 2200.08 1288.31 Q2200.17 1288.43 2200.17 1288.64 Q2200.17 1288.96 2200.08 1289.2 Q2200.01 1289.41 2199.82 1289.48 Q2199.65 1289.55 2199.54 1289.57 Q2199.42 1289.6 2199.21 1289.6 Q2198.72 1289.6 2197.66 1289.55 Q2196.63 1289.5 2196.09 1289.5 L2193.03 1289.46 L2186.94 1289.6 Q2186.26 1289.6 2186.26 1289.06 Q2186.26 1288.59 2186.42 1288.4 Q2186.58 1288.19 2186.8 1288.17 Q2187.01 1288.12 2187.54 1288.12 Q2188.72 1288.12 2189.42 1288.05 Q2190.12 1287.98 2190.57 1287.89 Q2191.03 1287.77 2191.27 1287.44 Q2191.53 1287.11 2191.64 1286.83 Q2191.76 1286.53 2191.92 1285.85 L2198.34 1260.08 Q2198.53 1259.31 2198.53 1259.19 Q2198.53 1258.75 2198.25 1258.63 Q2197.99 1258.49 2197.24 1258.42 L2195.41 1258.33 Q2194.85 1258.33 2194.62 1258.3 Q2194.41 1258.28 2194.24 1258.16 Q2194.08 1258.05 2194.08 1257.79 Q2194.08 1257.46 2194.15 1257.25 Q2194.24 1257.02 2194.41 1256.95 Q2194.57 1256.88 2194.69 1256.85 Q2194.81 1256.83 2194.99 1256.83 L2201.18 1256.97 L2207.31 1256.83 Q2207.99 1256.83 2207.99 1257.37 Q2207.99 1258.05 2207.69 1258.19 Q2207.38 1258.33 2206.35 1258.33 Q2204.64 1258.33 2203.85 1258.56 Q2203.05 1258.77 2202.79 1259.15 Q2202.56 1259.52 2202.32 1260.53 L2199.49 1271.8 L2214.13 1271.8 L2217.01 1260.08 Q2217.2 1259.24 2217.2 1259.19 Q2217.2 1258.75 2216.92 1258.63 Q2216.66 1258.49 2215.91 1258.42 L2214.08 1258.33 Q2213.52 1258.33 2213.29 1258.3 Q2213.08 1258.28 2212.89 1258.16 Q2212.72 1258.05 2212.72 1257.79 Q2212.72 1257.46 2212.79 1257.25 Q2212.89 1257.02 2213.05 1256.95 Q2213.22 1256.88 2213.33 1256.85 Q2213.45 1256.83 2213.64 1256.83 L2219.82 1256.97 L2225.98 1256.83 Q2226.64 1256.83 2226.64 1257.37 Z" fill="#000000" fill-rule="evenodd" fill-opacity="1"></path><path clip-path="url(#clip900)" d="M2247.03 1284.05 Q2247.21 1284.26 2247.21 1284.47 Q2247.21 1284.68 2246.75 1285.29 Q2246.3 1285.9 2245.34 1286.72 Q2244.38 1287.54 2243.14 1288.31 Q2241.9 1289.08 2240.07 1289.6 Q2238.24 1290.13 2236.32 1290.13 Q2232.88 1290.13 2230.82 1287.68 Q2228.78 1285.22 2228.78 1281.45 Q2228.78 1279.03 2229.58 1276.9 Q2230.37 1274.75 2231.66 1273.22 Q2232.97 1271.7 2234.61 1270.6 Q2236.28 1269.48 2238.01 1268.94 Q2239.74 1268.4 2241.36 1268.4 Q2243.72 1268.4 2245.11 1269.59 Q2246.49 1270.79 2246.49 1272.47 Q2246.49 1272.87 2246.37 1273.36 Q2246.28 1273.86 2245.95 1274.63 Q2245.64 1275.4 2244.85 1276.18 Q2244.05 1276.92 2242.88 1277.42 Q2240.28 1278.52 2235.55 1278.52 L2233 1278.52 Q2232.25 1281.54 2232.25 1283.51 Q2232.25 1284.28 2232.39 1285.08 Q2232.53 1285.85 2232.9 1286.83 Q2233.3 1287.82 2234.19 1288.45 Q2235.1 1289.06 2236.42 1289.06 Q2236.84 1289.06 2237.28 1289.03 Q2237.75 1289.01 2238.92 1288.75 Q2240.12 1288.5 2241.17 1288.05 Q2242.23 1287.61 2243.56 1286.65 Q2244.92 1285.66 2246 1284.33 Q2246.37 1283.83 2246.63 1283.83 Q2246.84 1283.83 2247.03 1284.05 M2244.9 1272.47 Q2244.9 1271.19 2243.93 1270.32 Q2243 1269.45 2241.36 1269.45 Q2240.84 1269.45 2240.21 1269.57 Q2239.58 1269.69 2238.52 1270.18 Q2237.49 1270.67 2236.58 1271.49 Q2235.67 1272.29 2234.75 1273.86 Q2233.84 1275.4 2233.3 1277.46 L2235.27 1277.46 Q2235.95 1277.46 2236.44 1277.46 Q2236.93 1277.44 2238.01 1277.35 Q2239.11 1277.25 2239.91 1277.09 Q2240.7 1276.9 2241.71 1276.53 Q2242.72 1276.15 2243.35 1275.66 Q2244.01 1275.14 2244.45 1274.32 Q2244.9 1273.51 2244.9 1272.47 Z" fill="#000000" fill-rule="evenodd" fill-opacity="1"></path><path clip-path="url(#clip900)" d="
M2022.67 1346.21 L2162.89 1346.21 L2162.89 1304.74 L2022.67 1304.74 L2022.67 1346.21  Z
  " fill="#c271d2" fill-rule="evenodd" fill-opacity="0.5"></path>
<polyline clip-path="url(#clip900)" style="stroke:#c271d2; stroke-linecap:round; stroke-linejoin:round; stroke-width:4; stroke-opacity:0.2; fill:none" points="
  2022.67,1304.74 2162.89,1304.74 
  "></polyline>
<path clip-path="url(#clip900)" d="M2226.64 1302.83 Q2226.64 1303.51 2226.33 1303.65 Q2226.05 1303.79 2225.02 1303.79 Q2223.26 1303.79 2222.47 1304.02 Q2221.69 1304.23 2221.46 1304.61 Q2221.25 1304.96 2220.99 1305.99 L2214.5 1331.9 Q2214.5 1331.92 2214.43 1332.25 Q2214.36 1332.55 2214.36 1332.72 Q2214.36 1333.02 2214.55 1333.21 Q2214.76 1333.39 2215.28 1333.49 Q2215.79 1333.56 2216.19 1333.58 Q2216.61 1333.58 2217.48 1333.58 Q2218.56 1333.58 2218.72 1333.77 Q2218.81 1333.89 2218.81 1334.1 Q2218.81 1334.54 2218.63 1334.78 Q2218.46 1334.99 2218.3 1335.03 Q2218.16 1335.06 2217.88 1335.06 Q2217.39 1335.06 2216.33 1335.01 Q2215.28 1334.96 2214.74 1334.96 L2211.67 1334.92 L2205.58 1335.06 Q2204.92 1335.06 2204.92 1334.52 Q2204.92 1334.05 2205.09 1333.84 Q2205.25 1333.63 2205.42 1333.61 Q2205.6 1333.58 2206.07 1333.58 Q2208.48 1333.58 2209.28 1333.35 Q2210.1 1333.09 2210.43 1331.99 L2213.73 1318.76 L2199.12 1318.76 L2195.84 1331.9 Q2195.84 1331.92 2195.77 1332.25 Q2195.7 1332.55 2195.7 1332.72 Q2195.7 1333.02 2195.88 1333.21 Q2196.09 1333.39 2196.61 1333.49 Q2197.12 1333.56 2197.52 1333.58 Q2197.94 1333.58 2198.81 1333.58 Q2199.89 1333.58 2200.08 1333.77 Q2200.17 1333.89 2200.17 1334.1 Q2200.17 1334.42 2200.08 1334.66 Q2200.01 1334.87 2199.82 1334.94 Q2199.65 1335.01 2199.54 1335.03 Q2199.42 1335.06 2199.21 1335.06 Q2198.72 1335.06 2197.66 1335.01 Q2196.63 1334.96 2196.09 1334.96 L2193.03 1334.92 L2186.94 1335.06 Q2186.26 1335.06 2186.26 1334.52 Q2186.26 1334.05 2186.42 1333.86 Q2186.58 1333.65 2186.8 1333.63 Q2187.01 1333.58 2187.54 1333.58 Q2188.72 1333.58 2189.42 1333.51 Q2190.12 1333.44 2190.57 1333.35 Q2191.03 1333.23 2191.27 1332.9 Q2191.53 1332.57 2191.64 1332.29 Q2191.76 1331.99 2191.92 1331.31 L2198.34 1305.55 Q2198.53 1304.77 2198.53 1304.66 Q2198.53 1304.21 2198.25 1304.09 Q2197.99 1303.95 2197.24 1303.88 L2195.41 1303.79 Q2194.85 1303.79 2194.62 1303.76 Q2194.41 1303.74 2194.24 1303.62 Q2194.08 1303.51 2194.08 1303.25 Q2194.08 1302.92 2194.15 1302.71 Q2194.24 1302.48 2194.41 1302.41 Q2194.57 1302.34 2194.69 1302.31 Q2194.81 1302.29 2194.99 1302.29 L2201.18 1302.43 L2207.31 1302.29 Q2207.99 1302.29 2207.99 1302.83 Q2207.99 1303.51 2207.69 1303.65 Q2207.38 1303.79 2206.35 1303.79 Q2204.64 1303.79 2203.85 1304.02 Q2203.05 1304.23 2202.79 1304.61 Q2202.56 1304.98 2202.32 1305.99 L2199.49 1317.26 L2214.13 1317.26 L2217.01 1305.55 Q2217.2 1304.7 2217.2 1304.66 Q2217.2 1304.21 2216.92 1304.09 Q2216.66 1303.95 2215.91 1303.88 L2214.08 1303.79 Q2213.52 1303.79 2213.29 1303.76 Q2213.08 1303.74 2212.89 1303.62 Q2212.72 1303.51 2212.72 1303.25 Q2212.72 1302.92 2212.79 1302.71 Q2212.89 1302.48 2213.05 1302.41 Q2213.22 1302.34 2213.33 1302.31 Q2213.45 1302.29 2213.64 1302.29 L2219.82 1302.43 L2225.98 1302.29 Q2226.64 1302.29 2226.64 1302.83 Z" fill="#000000" fill-rule="evenodd" fill-opacity="1"></path><path clip-path="url(#clip900)" d="M2231.36 1348.35 Q2231.36 1347.74 2231.41 1347.56 Q2231.48 1347.38 2231.74 1347.1 L2238.18 1339.92 Q2241.71 1335.95 2241.71 1332.49 Q2241.71 1330.25 2240.53 1328.64 Q2239.36 1327.03 2237.21 1327.03 Q2235.74 1327.03 2234.49 1327.93 Q2233.25 1328.84 2232.67 1330.44 Q2232.77 1330.41 2233.12 1330.41 Q2233.95 1330.41 2234.41 1330.93 Q2234.89 1331.46 2234.89 1332.16 Q2234.89 1333.07 2234.3 1333.51 Q2233.72 1333.93 2233.15 1333.93 Q2232.92 1333.93 2232.61 1333.89 Q2232.31 1333.84 2231.84 1333.38 Q2231.36 1332.9 2231.36 1332.07 Q2231.36 1329.72 2233.13 1327.85 Q2234.92 1325.98 2237.64 1325.98 Q2240.72 1325.98 2242.74 1327.82 Q2244.77 1329.64 2244.77 1332.49 Q2244.77 1333.49 2244.46 1334.41 Q2244.17 1335.31 2243.76 1336.02 Q2243.36 1336.72 2242.28 1337.85 Q2241.2 1338.98 2240.33 1339.79 Q2239.46 1340.59 2237.51 1342.3 L2233.95 1345.76 L2240 1345.76 Q2242.95 1345.76 2243.18 1345.49 Q2243.51 1345.02 2243.92 1342.51 L2244.77 1342.51 L2243.82 1348.35 L2231.36 1348.35 Z" fill="#000000" fill-rule="evenodd" fill-opacity="1"></path></svg>