<svg xmlns="http://www.w3.org/2000/svg" xmlns:xlink="http://www.w3.org/1999/xlink" width="600" height="400" viewBox="0 0 2400 1600">
<defs>
  <clipPath id="clip270">
    <rect x="0" y="0" width="2400" height="1600"></rect>
  </clipPath>
</defs>
<path clip-path="url(#clip270)" d="M0 1600 L2400 1600 L2400 0 L0 0  Z" fill="#ffffff" fill-rule="evenodd" fill-opacity="1"></path>
<defs>
  <clipPath id="clip271">
    <rect x="480" y="0" width="1681" height="1600"></rect>
  </clipPath>
</defs>
<defs>
  <clipPath id="clip272">
    <rect x="262" y="47" width="2091" height="1377"></rect>
  </clipPath>
</defs>
<path clip-path="url(#clip270)" d="M262.551 1423.18 L2352.76 1423.18 L2352.76 47.2441 L262.551 47.2441  Z" fill="#ffffff" fill-rule="evenodd" fill-opacity="1"></path>
<polyline clip-path="url(#clip272)" style="stroke:#000000; stroke-linecap:round; stroke-linejoin:round; stroke-width:2; stroke-opacity:0.1; fill:none" points="288.286,1423.18 288.286,47.2441 "></polyline>
<polyline clip-path="url(#clip272)" style="stroke:#000000; stroke-linecap:round; stroke-linejoin:round; stroke-width:2; stroke-opacity:0.1; fill:none" points="622.505,1423.18 622.505,47.2441 "></polyline>
<polyline clip-path="url(#clip272)" style="stroke:#000000; stroke-linecap:round; stroke-linejoin:round; stroke-width:2; stroke-opacity:0.1; fill:none" points="956.724,1423.18 956.724,47.2441 "></polyline>
<polyline clip-path="url(#clip272)" style="stroke:#000000; stroke-linecap:round; stroke-linejoin:round; stroke-width:2; stroke-opacity:0.1; fill:none" points="1290.94,1423.18 1290.94,47.2441 "></polyline>
<polyline clip-path="url(#clip272)" style="stroke:#000000; stroke-linecap:round; stroke-linejoin:round; stroke-width:2; stroke-opacity:0.1; fill:none" points="1625.16,1423.18 1625.16,47.2441 "></polyline>
<polyline clip-path="url(#clip272)" style="stroke:#000000; stroke-linecap:round; stroke-linejoin:round; stroke-width:2; stroke-opacity:0.1; fill:none" points="1959.38,1423.18 1959.38,47.2441 "></polyline>
<polyline clip-path="url(#clip272)" style="stroke:#000000; stroke-linecap:round; stroke-linejoin:round; stroke-width:2; stroke-opacity:0.1; fill:none" points="2293.6,1423.18 2293.6,47.2441 "></polyline>
<polyline clip-path="url(#clip270)" style="stroke:#000000; stroke-linecap:round; stroke-linejoin:round; stroke-width:4; stroke-opacity:1; fill:none" points="262.551,1423.18 2352.76,1423.18 "></polyline>
<polyline clip-path="url(#clip270)" style="stroke:#000000; stroke-linecap:round; stroke-linejoin:round; stroke-width:4; stroke-opacity:1; fill:none" points="288.286,1423.18 288.286,1404.28 "></polyline>
<polyline clip-path="url(#clip270)" style="stroke:#000000; stroke-linecap:round; stroke-linejoin:round; stroke-width:4; stroke-opacity:1; fill:none" points="622.505,1423.18 622.505,1404.28 "></polyline>
<polyline clip-path="url(#clip270)" style="stroke:#000000; stroke-linecap:round; stroke-linejoin:round; stroke-width:4; stroke-opacity:1; fill:none" points="956.724,1423.18 956.724,1404.28 "></polyline>
<polyline clip-path="url(#clip270)" style="stroke:#000000; stroke-linecap:round; stroke-linejoin:round; stroke-width:4; stroke-opacity:1; fill:none" points="1290.94,1423.18 1290.94,1404.28 "></polyline>
<polyline clip-path="url(#clip270)" style="stroke:#000000; stroke-linecap:round; stroke-linejoin:round; stroke-width:4; stroke-opacity:1; fill:none" points="1625.16,1423.18 1625.16,1404.28 "></polyline>
<polyline clip-path="url(#clip270)" style="stroke:#000000; stroke-linecap:round; stroke-linejoin:round; stroke-width:4; stroke-opacity:1; fill:none" points="1959.38,1423.18 1959.38,1404.28 "></polyline>
<polyline clip-path="url(#clip270)" style="stroke:#000000; stroke-linecap:round; stroke-linejoin:round; stroke-width:4; stroke-opacity:1; fill:none" points="2293.6,1423.18 2293.6,1404.28 "></polyline>
<path clip-path="url(#clip270)" d="M288.286 1454.1 Q284.675 1454.1 282.846 1457.66 Q281.041 1461.2 281.041 1468.33 Q281.041 1475.44 282.846 1479.01 Q284.675 1482.55 288.286 1482.55 Q291.92 1482.55 293.726 1479.01 Q295.555 1475.44 295.555 1468.33 Q295.555 1461.2 293.726 1457.66 Q291.92 1454.1 288.286 1454.1 M288.286 1450.39 Q294.096 1450.39 297.152 1455 Q300.23 1459.58 300.23 1468.33 Q300.23 1477.06 297.152 1481.67 Q294.096 1486.25 288.286 1486.25 Q282.476 1486.25 279.397 1481.67 Q276.342 1477.06 276.342 1468.33 Q276.342 1459.58 279.397 1455 Q282.476 1450.39 288.286 1450.39 Z" fill="#000000" fill-rule="nonzero" fill-opacity="1"></path><path clip-path="url(#clip270)" d="M597.193 1481.64 L604.831 1481.64 L604.831 1455.28 L596.521 1456.95 L596.521 1452.69 L604.785 1451.02 L609.461 1451.02 L609.461 1481.64 L617.1 1481.64 L617.1 1485.58 L597.193 1485.58 L597.193 1481.64 Z" fill="#000000" fill-rule="nonzero" fill-opacity="1"></path><path clip-path="url(#clip270)" d="M636.544 1454.1 Q632.933 1454.1 631.104 1457.66 Q629.299 1461.2 629.299 1468.33 Q629.299 1475.44 631.104 1479.01 Q632.933 1482.55 636.544 1482.55 Q640.178 1482.55 641.984 1479.01 Q643.813 1475.44 643.813 1468.33 Q643.813 1461.2 641.984 1457.66 Q640.178 1454.1 636.544 1454.1 M636.544 1450.39 Q642.354 1450.39 645.41 1455 Q648.489 1459.58 648.489 1468.33 Q648.489 1477.06 645.41 1481.67 Q642.354 1486.25 636.544 1486.25 Q630.734 1486.25 627.655 1481.67 Q624.6 1477.06 624.6 1468.33 Q624.6 1459.58 627.655 1455 Q630.734 1450.39 636.544 1450.39 Z" fill="#000000" fill-rule="nonzero" fill-opacity="1"></path><path clip-path="url(#clip270)" d="M935.497 1481.64 L951.816 1481.64 L951.816 1485.58 L929.872 1485.58 L929.872 1481.64 Q932.534 1478.89 937.117 1474.26 Q941.724 1469.61 942.904 1468.27 Q945.15 1465.74 946.029 1464.01 Q946.932 1462.25 946.932 1460.56 Q946.932 1457.8 944.988 1456.07 Q943.066 1454.33 939.965 1454.33 Q937.766 1454.33 935.312 1455.09 Q932.881 1455.86 930.104 1457.41 L930.104 1452.69 Q932.928 1451.55 935.381 1450.97 Q937.835 1450.39 939.872 1450.39 Q945.242 1450.39 948.437 1453.08 Q951.631 1455.77 951.631 1460.26 Q951.631 1462.39 950.821 1464.31 Q950.034 1466.2 947.928 1468.8 Q947.349 1469.47 944.247 1472.69 Q941.145 1475.88 935.497 1481.64 Z" fill="#000000" fill-rule="nonzero" fill-opacity="1"></path><path clip-path="url(#clip270)" d="M971.631 1454.1 Q968.02 1454.1 966.191 1457.66 Q964.386 1461.2 964.386 1468.33 Q964.386 1475.44 966.191 1479.01 Q968.02 1482.55 971.631 1482.55 Q975.265 1482.55 977.071 1479.01 Q978.9 1475.44 978.9 1468.33 Q978.9 1461.2 977.071 1457.66 Q975.265 1454.1 971.631 1454.1 M971.631 1450.39 Q977.441 1450.39 980.497 1455 Q983.575 1459.58 983.575 1468.33 Q983.575 1477.06 980.497 1481.67 Q977.441 1486.25 971.631 1486.25 Q965.821 1486.25 962.742 1481.67 Q959.687 1477.06 959.687 1468.33 Q959.687 1459.58 962.742 1455 Q965.821 1450.39 971.631 1450.39 Z" fill="#000000" fill-rule="nonzero" fill-opacity="1"></path><path clip-path="url(#clip270)" d="M1279.79 1466.95 Q1283.14 1467.66 1285.02 1469.93 Q1286.91 1472.2 1286.91 1475.53 Q1286.91 1480.65 1283.4 1483.45 Q1279.88 1486.25 1273.4 1486.25 Q1271.22 1486.25 1268.91 1485.81 Q1266.61 1485.39 1264.16 1484.54 L1264.16 1480.02 Q1266.1 1481.16 1268.42 1481.74 Q1270.73 1482.32 1273.26 1482.32 Q1277.66 1482.32 1279.95 1480.58 Q1282.26 1478.84 1282.26 1475.53 Q1282.26 1472.48 1280.11 1470.77 Q1277.98 1469.03 1274.16 1469.03 L1270.13 1469.03 L1270.13 1465.19 L1274.35 1465.19 Q1277.79 1465.19 1279.62 1463.82 Q1281.45 1462.43 1281.45 1459.84 Q1281.45 1457.18 1279.55 1455.77 Q1277.68 1454.33 1274.16 1454.33 Q1272.24 1454.33 1270.04 1454.75 Q1267.84 1455.16 1265.2 1456.04 L1265.2 1451.88 Q1267.86 1451.14 1270.18 1450.77 Q1272.52 1450.39 1274.58 1450.39 Q1279.9 1450.39 1283 1452.83 Q1286.1 1455.23 1286.1 1459.35 Q1286.1 1462.22 1284.46 1464.21 Q1282.82 1466.18 1279.79 1466.95 Z" fill="#000000" fill-rule="nonzero" fill-opacity="1"></path><path clip-path="url(#clip270)" d="M1305.78 1454.1 Q1302.17 1454.1 1300.34 1457.66 Q1298.54 1461.2 1298.54 1468.33 Q1298.54 1475.44 1300.34 1479.01 Q1302.17 1482.55 1305.78 1482.55 Q1309.41 1482.55 1311.22 1479.01 Q1313.05 1475.44 1313.05 1468.33 Q1313.05 1461.2 1311.22 1457.66 Q1309.41 1454.1 1305.78 1454.1 M1305.78 1450.39 Q1311.59 1450.39 1314.65 1455 Q1317.72 1459.58 1317.72 1468.33 Q1317.72 1477.06 1314.65 1481.67 Q1311.59 1486.25 1305.78 1486.25 Q1299.97 1486.25 1296.89 1481.67 Q1293.84 1477.06 1293.84 1468.33 Q1293.84 1459.58 1296.89 1455 Q1299.97 1450.39 1305.78 1450.39 Z" fill="#000000" fill-rule="nonzero" fill-opacity="1"></path><path clip-path="url(#clip270)" d="M1613.33 1455.09 L1601.53 1473.54 L1613.33 1473.54 L1613.33 1455.09 M1612.11 1451.02 L1617.99 1451.02 L1617.99 1473.54 L1622.92 1473.54 L1622.92 1477.43 L1617.99 1477.43 L1617.99 1485.58 L1613.33 1485.58 L1613.33 1477.43 L1597.73 1477.43 L1597.73 1472.92 L1612.11 1451.02 Z" fill="#000000" fill-rule="nonzero" fill-opacity="1"></path><path clip-path="url(#clip270)" d="M1640.65 1454.1 Q1637.04 1454.1 1635.21 1457.66 Q1633.4 1461.2 1633.4 1468.33 Q1633.4 1475.44 1635.21 1479.01 Q1637.04 1482.55 1640.65 1482.55 Q1644.28 1482.55 1646.09 1479.01 Q1647.92 1475.44 1647.92 1468.33 Q1647.92 1461.2 1646.09 1457.66 Q1644.28 1454.1 1640.65 1454.1 M1640.65 1450.39 Q1646.46 1450.39 1649.51 1455 Q1652.59 1459.58 1652.59 1468.33 Q1652.59 1477.06 1649.51 1481.67 Q1646.46 1486.25 1640.65 1486.25 Q1634.84 1486.25 1631.76 1481.67 Q1628.7 1477.06 1628.7 1468.33 Q1628.7 1459.58 1631.76 1455 Q1634.84 1450.39 1640.65 1450.39 Z" fill="#000000" fill-rule="nonzero" fill-opacity="1"></path><path clip-path="url(#clip270)" d="M1934.08 1451.02 L1952.44 1451.02 L1952.44 1454.96 L1938.36 1454.96 L1938.36 1463.43 Q1939.38 1463.08 1940.4 1462.92 Q1941.42 1462.73 1942.44 1462.73 Q1948.22 1462.73 1951.6 1465.9 Q1954.98 1469.08 1954.98 1474.49 Q1954.98 1480.07 1951.51 1483.17 Q1948.04 1486.25 1941.72 1486.25 Q1939.54 1486.25 1937.27 1485.88 Q1935.03 1485.51 1932.62 1484.77 L1932.62 1480.07 Q1934.7 1481.2 1936.93 1481.76 Q1939.15 1482.32 1941.63 1482.32 Q1945.63 1482.32 1947.97 1480.21 Q1950.31 1478.1 1950.31 1474.49 Q1950.31 1470.88 1947.97 1468.77 Q1945.63 1466.67 1941.63 1466.67 Q1939.75 1466.67 1937.88 1467.08 Q1936.02 1467.5 1934.08 1468.38 L1934.08 1451.02 Z" fill="#000000" fill-rule="nonzero" fill-opacity="1"></path><path clip-path="url(#clip270)" d="M1974.2 1454.1 Q1970.58 1454.1 1968.76 1457.66 Q1966.95 1461.2 1966.95 1468.33 Q1966.95 1475.44 1968.76 1479.01 Q1970.58 1482.55 1974.2 1482.55 Q1977.83 1482.55 1979.63 1479.01 Q1981.46 1475.44 1981.46 1468.33 Q1981.46 1461.2 1979.63 1457.66 Q1977.83 1454.1 1974.2 1454.1 M1974.2 1450.39 Q1980.01 1450.39 1983.06 1455 Q1986.14 1459.58 1986.14 1468.33 Q1986.14 1477.06 1983.06 1481.67 Q1980.01 1486.25 1974.2 1486.25 Q1968.38 1486.25 1965.31 1481.67 Q1962.25 1477.06 1962.25 1468.33 Q1962.25 1459.58 1965.31 1455 Q1968.38 1450.39 1974.2 1450.39 Z" fill="#000000" fill-rule="nonzero" fill-opacity="1"></path><path clip-path="url(#clip270)" d="M2279 1466.44 Q2275.86 1466.44 2274 1468.59 Q2272.18 1470.74 2272.18 1474.49 Q2272.18 1478.22 2274 1480.39 Q2275.86 1482.55 2279 1482.55 Q2282.15 1482.55 2283.98 1480.39 Q2285.83 1478.22 2285.83 1474.49 Q2285.83 1470.74 2283.98 1468.59 Q2282.15 1466.44 2279 1466.44 M2288.29 1451.78 L2288.29 1456.04 Q2286.53 1455.21 2284.72 1454.77 Q2282.94 1454.33 2281.18 1454.33 Q2276.55 1454.33 2274.1 1457.45 Q2271.67 1460.58 2271.32 1466.9 Q2272.68 1464.89 2274.75 1463.82 Q2276.81 1462.73 2279.28 1462.73 Q2284.49 1462.73 2287.5 1465.9 Q2290.53 1469.05 2290.53 1474.49 Q2290.53 1479.82 2287.38 1483.03 Q2284.24 1486.25 2279 1486.25 Q2273.01 1486.25 2269.84 1481.67 Q2266.67 1477.06 2266.67 1468.33 Q2266.67 1460.14 2270.56 1455.28 Q2274.44 1450.39 2281 1450.39 Q2282.75 1450.39 2284.54 1450.74 Q2286.34 1451.09 2288.29 1451.78 Z" fill="#000000" fill-rule="nonzero" fill-opacity="1"></path><path clip-path="url(#clip270)" d="M2308.59 1454.1 Q2304.98 1454.1 2303.15 1457.66 Q2301.34 1461.2 2301.34 1468.33 Q2301.34 1475.44 2303.15 1479.01 Q2304.98 1482.55 2308.59 1482.55 Q2312.22 1482.55 2314.03 1479.01 Q2315.86 1475.44 2315.86 1468.33 Q2315.86 1461.2 2314.03 1457.66 Q2312.22 1454.1 2308.59 1454.1 M2308.59 1450.39 Q2314.4 1450.39 2317.45 1455 Q2320.53 1459.58 2320.53 1468.33 Q2320.53 1477.06 2317.45 1481.67 Q2314.4 1486.25 2308.59 1486.25 Q2302.78 1486.25 2299.7 1481.67 Q2296.64 1477.06 2296.64 1468.33 Q2296.64 1459.58 2299.7 1455 Q2302.78 1450.39 2308.59 1450.39 Z" fill="#000000" fill-rule="nonzero" fill-opacity="1"></path><path clip-path="url(#clip270)" d="M1085.86 1525.81 L1085.86 1543.66 L1093.94 1543.66 Q1098.43 1543.66 1100.88 1541.34 Q1103.33 1539.02 1103.33 1534.72 Q1103.33 1530.45 1100.88 1528.13 Q1098.43 1525.81 1093.94 1525.81 L1085.86 1525.81 M1079.43 1520.52 L1093.94 1520.52 Q1101.93 1520.52 1106 1524.15 Q1110.11 1527.75 1110.11 1534.72 Q1110.11 1541.75 1106 1545.35 Q1101.93 1548.95 1093.94 1548.95 L1085.86 1548.95 L1085.86 1568.04 L1079.43 1568.04 L1079.43 1520.52 Z" fill="#000000" fill-rule="nonzero" fill-opacity="1"></path><path clip-path="url(#clip270)" d="M1137.99 1537.87 Q1137 1537.3 1135.83 1537.04 Q1134.68 1536.76 1133.28 1536.76 Q1128.32 1536.76 1125.64 1540 Q1123 1543.22 1123 1549.27 L1123 1568.04 L1117.11 1568.04 L1117.11 1532.4 L1123 1532.4 L1123 1537.93 Q1124.85 1534.69 1127.81 1533.13 Q1130.77 1531.54 1135 1531.54 Q1135.6 1531.54 1136.34 1531.63 Q1137.07 1531.7 1137.96 1531.85 L1137.99 1537.87 Z" fill="#000000" fill-rule="nonzero" fill-opacity="1"></path><path clip-path="url(#clip270)" d="M1173.19 1548.76 L1173.19 1551.62 L1146.27 1551.62 Q1146.65 1557.67 1149.9 1560.85 Q1153.17 1564 1159 1564 Q1162.37 1564 1165.52 1563.17 Q1168.71 1562.35 1171.83 1560.69 L1171.83 1566.23 Q1168.67 1567.57 1165.36 1568.27 Q1162.05 1568.97 1158.65 1568.97 Q1150.12 1568.97 1145.12 1564 Q1140.16 1559.04 1140.16 1550.57 Q1140.16 1541.82 1144.87 1536.69 Q1149.61 1531.54 1157.63 1531.54 Q1164.82 1531.54 1168.99 1536.18 Q1173.19 1540.8 1173.19 1548.76 M1167.34 1547.04 Q1167.27 1542.23 1164.63 1539.37 Q1162.02 1536.5 1157.69 1536.5 Q1152.79 1536.5 1149.83 1539.27 Q1146.9 1542.04 1146.46 1547.07 L1167.34 1547.04 Z" fill="#000000" fill-rule="nonzero" fill-opacity="1"></path><path clip-path="url(#clip270)" d="M1205.53 1533.45 L1205.53 1538.98 Q1203.05 1537.71 1200.38 1537.07 Q1197.7 1536.44 1194.84 1536.44 Q1190.48 1536.44 1188.28 1537.77 Q1186.12 1539.11 1186.12 1541.79 Q1186.12 1543.82 1187.68 1545 Q1189.24 1546.15 1193.95 1547.2 L1195.95 1547.64 Q1202.19 1548.98 1204.8 1551.43 Q1207.44 1553.85 1207.44 1558.21 Q1207.44 1563.17 1203.49 1566.07 Q1199.58 1568.97 1192.7 1568.97 Q1189.84 1568.97 1186.72 1568.39 Q1183.63 1567.85 1180.2 1566.74 L1180.2 1560.69 Q1183.44 1562.38 1186.59 1563.24 Q1189.74 1564.07 1192.83 1564.07 Q1196.97 1564.07 1199.2 1562.66 Q1201.43 1561.23 1201.43 1558.65 Q1201.43 1556.27 1199.8 1554.99 Q1198.21 1553.72 1192.77 1552.54 L1190.73 1552.07 Q1185.29 1550.92 1182.87 1548.56 Q1180.45 1546.18 1180.45 1542.04 Q1180.45 1537.01 1184.02 1534.27 Q1187.58 1531.54 1194.14 1531.54 Q1197.38 1531.54 1200.25 1532.01 Q1203.11 1532.49 1205.53 1533.45 Z" fill="#000000" fill-rule="nonzero" fill-opacity="1"></path><path clip-path="url(#clip270)" d="M1239.49 1533.45 L1239.49 1538.98 Q1237.01 1537.71 1234.34 1537.07 Q1231.66 1536.44 1228.8 1536.44 Q1224.44 1536.44 1222.24 1537.77 Q1220.08 1539.11 1220.08 1541.79 Q1220.08 1543.82 1221.64 1545 Q1223.2 1546.15 1227.91 1547.2 L1229.91 1547.64 Q1236.15 1548.98 1238.76 1551.43 Q1241.4 1553.85 1241.4 1558.21 Q1241.4 1563.17 1237.46 1566.07 Q1233.54 1568.97 1226.67 1568.97 Q1223.8 1568.97 1220.68 1568.39 Q1217.59 1567.85 1214.16 1566.74 L1214.16 1560.69 Q1217.4 1562.38 1220.55 1563.24 Q1223.71 1564.07 1226.79 1564.07 Q1230.93 1564.07 1233.16 1562.66 Q1235.39 1561.23 1235.39 1558.65 Q1235.39 1556.27 1233.76 1554.99 Q1232.17 1553.72 1226.73 1552.54 L1224.69 1552.07 Q1219.25 1550.92 1216.83 1548.56 Q1214.41 1546.18 1214.41 1542.04 Q1214.41 1537.01 1217.98 1534.27 Q1221.54 1531.54 1228.1 1531.54 Q1231.34 1531.54 1234.21 1532.01 Q1237.07 1532.49 1239.49 1533.45 Z" fill="#000000" fill-rule="nonzero" fill-opacity="1"></path><path clip-path="url(#clip270)" d="M1250.12 1553.98 L1250.12 1532.4 L1255.98 1532.4 L1255.98 1553.75 Q1255.98 1558.81 1257.95 1561.36 Q1259.93 1563.87 1263.87 1563.87 Q1268.62 1563.87 1271.35 1560.85 Q1274.12 1557.83 1274.12 1552.61 L1274.12 1532.4 L1279.98 1532.4 L1279.98 1568.04 L1274.12 1568.04 L1274.12 1562.57 Q1271.99 1565.82 1269.16 1567.41 Q1266.36 1568.97 1262.63 1568.97 Q1256.49 1568.97 1253.31 1565.15 Q1250.12 1561.33 1250.12 1553.98 M1264.86 1531.54 L1264.86 1531.54 Z" fill="#000000" fill-rule="nonzero" fill-opacity="1"></path><path clip-path="url(#clip270)" d="M1312.7 1537.87 Q1311.71 1537.3 1310.53 1537.04 Q1309.39 1536.76 1307.99 1536.76 Q1303.02 1536.76 1300.35 1540 Q1297.71 1543.22 1297.71 1549.27 L1297.71 1568.04 L1291.82 1568.04 L1291.82 1532.4 L1297.71 1532.4 L1297.71 1537.93 Q1299.55 1534.69 1302.51 1533.13 Q1305.47 1531.54 1309.71 1531.54 Q1310.31 1531.54 1311.04 1531.63 Q1311.78 1531.7 1312.67 1531.85 L1312.7 1537.87 Z" fill="#000000" fill-rule="nonzero" fill-opacity="1"></path><path clip-path="url(#clip270)" d="M1347.9 1548.76 L1347.9 1551.62 L1320.97 1551.62 Q1321.36 1557.67 1324.6 1560.85 Q1327.88 1564 1333.71 1564 Q1337.08 1564 1340.23 1563.17 Q1343.41 1562.35 1346.53 1560.69 L1346.53 1566.23 Q1343.38 1567.57 1340.07 1568.27 Q1336.76 1568.97 1333.36 1568.97 Q1324.83 1568.97 1319.83 1564 Q1314.86 1559.04 1314.86 1550.57 Q1314.86 1541.82 1319.57 1536.69 Q1324.32 1531.54 1332.34 1531.54 Q1339.53 1531.54 1343.7 1536.18 Q1347.9 1540.8 1347.9 1548.76 M1342.04 1547.04 Q1341.98 1542.23 1339.34 1539.37 Q1336.73 1536.5 1332.4 1536.5 Q1327.5 1536.5 1324.54 1539.27 Q1321.61 1542.04 1321.16 1547.07 L1342.04 1547.04 Z" fill="#000000" fill-rule="nonzero" fill-opacity="1"></path><path clip-path="url(#clip270)" d="M1401.02 1545.76 Q1403.09 1546.46 1405.03 1548.76 Q1407.01 1551.05 1408.98 1555.06 L1415.5 1568.04 L1408.6 1568.04 L1402.52 1555.85 Q1400.16 1551.08 1397.94 1549.52 Q1395.74 1547.96 1391.92 1547.96 L1384.92 1547.96 L1384.92 1568.04 L1378.49 1568.04 L1378.49 1520.52 L1393 1520.52 Q1401.15 1520.52 1405.16 1523.93 Q1409.17 1527.34 1409.17 1534.21 Q1409.17 1538.7 1407.07 1541.66 Q1405 1544.62 1401.02 1545.76 M1384.92 1525.81 L1384.92 1542.68 L1393 1542.68 Q1397.65 1542.68 1400 1540.54 Q1402.39 1538.38 1402.39 1534.21 Q1402.39 1530.04 1400 1527.94 Q1397.65 1525.81 1393 1525.81 L1384.92 1525.81 Z" fill="#000000" fill-rule="nonzero" fill-opacity="1"></path><path clip-path="url(#clip270)" d="M1438.29 1550.12 Q1431.2 1550.12 1428.46 1551.75 Q1425.72 1553.37 1425.72 1557.29 Q1425.72 1560.4 1427.76 1562.25 Q1429.83 1564.07 1433.36 1564.07 Q1438.23 1564.07 1441.16 1560.63 Q1444.12 1557.16 1444.12 1551.43 L1444.12 1550.12 L1438.29 1550.12 M1449.97 1547.71 L1449.97 1568.04 L1444.12 1568.04 L1444.12 1562.63 Q1442.11 1565.88 1439.12 1567.44 Q1436.13 1568.97 1431.8 1568.97 Q1426.33 1568.97 1423.08 1565.91 Q1419.87 1562.82 1419.87 1557.67 Q1419.87 1551.65 1423.88 1548.6 Q1427.92 1545.54 1435.91 1545.54 L1444.12 1545.54 L1444.12 1544.97 Q1444.12 1540.93 1441.44 1538.73 Q1438.8 1536.5 1434 1536.5 Q1430.94 1536.5 1428.04 1537.23 Q1425.15 1537.97 1422.47 1539.43 L1422.47 1534.02 Q1425.69 1532.78 1428.71 1532.17 Q1431.74 1531.54 1434.6 1531.54 Q1442.34 1531.54 1446.16 1535.55 Q1449.97 1539.56 1449.97 1547.71 Z" fill="#000000" fill-rule="nonzero" fill-opacity="1"></path><path clip-path="url(#clip270)" d="M1467.83 1522.27 L1467.83 1532.4 L1479.89 1532.4 L1479.89 1536.95 L1467.83 1536.95 L1467.83 1556.3 Q1467.83 1560.66 1469.01 1561.9 Q1470.22 1563.14 1473.88 1563.14 L1479.89 1563.14 L1479.89 1568.04 L1473.88 1568.04 Q1467.1 1568.04 1464.52 1565.53 Q1461.94 1562.98 1461.94 1556.3 L1461.94 1536.95 L1457.65 1536.95 L1457.65 1532.4 L1461.94 1532.4 L1461.94 1522.27 L1467.83 1522.27 Z" fill="#000000" fill-rule="nonzero" fill-opacity="1"></path><path clip-path="url(#clip270)" d="M1487.6 1532.4 L1493.45 1532.4 L1493.45 1568.04 L1487.6 1568.04 L1487.6 1532.4 M1487.6 1518.52 L1493.45 1518.52 L1493.45 1525.93 L1487.6 1525.93 L1487.6 1518.52 Z" fill="#000000" fill-rule="nonzero" fill-opacity="1"></path><path clip-path="url(#clip270)" d="M1519.52 1536.5 Q1514.81 1536.5 1512.07 1540.19 Q1509.34 1543.85 1509.34 1550.25 Q1509.34 1556.65 1512.04 1560.34 Q1514.78 1564 1519.52 1564 Q1524.2 1564 1526.94 1560.31 Q1529.67 1556.62 1529.67 1550.25 Q1529.67 1543.92 1526.94 1540.23 Q1524.2 1536.5 1519.52 1536.5 M1519.52 1531.54 Q1527.16 1531.54 1531.52 1536.5 Q1535.88 1541.47 1535.88 1550.25 Q1535.88 1559 1531.52 1564 Q1527.16 1568.97 1519.52 1568.97 Q1511.85 1568.97 1507.49 1564 Q1503.16 1559 1503.16 1550.25 Q1503.16 1541.47 1507.49 1536.5 Q1511.85 1531.54 1519.52 1531.54 Z" fill="#000000" fill-rule="nonzero" fill-opacity="1"></path><polyline clip-path="url(#clip272)" style="stroke:#000000; stroke-linecap:round; stroke-linejoin:round; stroke-width:2; stroke-opacity:0.1; fill:none" points="262.551,1384.24 2352.76,1384.24 "></polyline>
<polyline clip-path="url(#clip272)" style="stroke:#000000; stroke-linecap:round; stroke-linejoin:round; stroke-width:2; stroke-opacity:0.1; fill:none" points="262.551,1116.47 2352.76,1116.47 "></polyline>
<polyline clip-path="url(#clip272)" style="stroke:#000000; stroke-linecap:round; stroke-linejoin:round; stroke-width:2; stroke-opacity:0.1; fill:none" points="262.551,848.71 2352.76,848.71 "></polyline>
<polyline clip-path="url(#clip272)" style="stroke:#000000; stroke-linecap:round; stroke-linejoin:round; stroke-width:2; stroke-opacity:0.1; fill:none" points="262.551,580.946 2352.76,580.946 "></polyline>
<polyline clip-path="url(#clip272)" style="stroke:#000000; stroke-linecap:round; stroke-linejoin:round; stroke-width:2; stroke-opacity:0.1; fill:none" points="262.551,313.182 2352.76,313.182 "></polyline>
<polyline clip-path="url(#clip270)" style="stroke:#000000; stroke-linecap:round; stroke-linejoin:round; stroke-width:4; stroke-opacity:1; fill:none" points="262.551,1423.18 262.551,47.2441 "></polyline>
<polyline clip-path="url(#clip270)" style="stroke:#000000; stroke-linecap:round; stroke-linejoin:round; stroke-width:4; stroke-opacity:1; fill:none" points="262.551,1384.24 281.449,1384.24 "></polyline>
<polyline clip-path="url(#clip270)" style="stroke:#000000; stroke-linecap:round; stroke-linejoin:round; stroke-width:4; stroke-opacity:1; fill:none" points="262.551,1116.47 281.449,1116.47 "></polyline>
<polyline clip-path="url(#clip270)" style="stroke:#000000; stroke-linecap:round; stroke-linejoin:round; stroke-width:4; stroke-opacity:1; fill:none" points="262.551,848.71 281.449,848.71 "></polyline>
<polyline clip-path="url(#clip270)" style="stroke:#000000; stroke-linecap:round; stroke-linejoin:round; stroke-width:4; stroke-opacity:1; fill:none" points="262.551,580.946 281.449,580.946 "></polyline>
<polyline clip-path="url(#clip270)" style="stroke:#000000; stroke-linecap:round; stroke-linejoin:round; stroke-width:4; stroke-opacity:1; fill:none" points="262.551,313.182 281.449,313.182 "></polyline>
<path clip-path="url(#clip270)" d="M214.607 1370.04 Q210.996 1370.04 209.167 1373.6 Q207.362 1377.14 207.362 1384.27 Q207.362 1391.38 209.167 1394.94 Q210.996 1398.49 214.607 1398.49 Q218.241 1398.49 220.047 1394.94 Q221.875 1391.38 221.875 1384.27 Q221.875 1377.14 220.047 1373.6 Q218.241 1370.04 214.607 1370.04 M214.607 1366.33 Q220.417 1366.33 223.473 1370.94 Q226.551 1375.52 226.551 1384.27 Q226.551 1393 223.473 1397.61 Q220.417 1402.19 214.607 1402.19 Q208.797 1402.19 205.718 1397.61 Q202.662 1393 202.662 1384.27 Q202.662 1375.52 205.718 1370.94 Q208.797 1366.33 214.607 1366.33 Z" fill="#000000" fill-rule="nonzero" fill-opacity="1"></path><path clip-path="url(#clip270)" d="M148.311 1129.82 L164.63 1129.82 L164.63 1133.75 L142.686 1133.75 L142.686 1129.82 Q145.348 1127.06 149.931 1122.43 Q154.538 1117.78 155.718 1116.44 Q157.964 1113.92 158.843 1112.18 Q159.746 1110.42 159.746 1108.73 Q159.746 1105.98 157.802 1104.24 Q155.88 1102.5 152.778 1102.5 Q150.579 1102.5 148.126 1103.27 Q145.695 1104.03 142.917 1105.58 L142.917 1100.86 Q145.741 1099.73 148.195 1099.15 Q150.649 1098.57 152.686 1098.57 Q158.056 1098.57 161.251 1101.25 Q164.445 1103.94 164.445 1108.43 Q164.445 1110.56 163.635 1112.48 Q162.848 1114.38 160.741 1116.97 Q160.163 1117.64 157.061 1120.86 Q153.959 1124.06 148.311 1129.82 Z" fill="#000000" fill-rule="nonzero" fill-opacity="1"></path><path clip-path="url(#clip270)" d="M174.491 1099.19 L192.848 1099.19 L192.848 1103.13 L178.774 1103.13 L178.774 1111.6 Q179.792 1111.25 180.811 1111.09 Q181.829 1110.91 182.848 1110.91 Q188.635 1110.91 192.014 1114.08 Q195.394 1117.25 195.394 1122.67 Q195.394 1128.25 191.922 1131.35 Q188.45 1134.43 182.13 1134.43 Q179.954 1134.43 177.686 1134.06 Q175.44 1133.68 173.033 1132.94 L173.033 1128.25 Q175.116 1129.38 177.339 1129.93 Q179.561 1130.49 182.038 1130.49 Q186.042 1130.49 188.38 1128.38 Q190.718 1126.28 190.718 1122.67 Q190.718 1119.06 188.38 1116.95 Q186.042 1114.84 182.038 1114.84 Q180.163 1114.84 178.288 1115.26 Q176.436 1115.68 174.491 1116.56 L174.491 1099.19 Z" fill="#000000" fill-rule="nonzero" fill-opacity="1"></path><path clip-path="url(#clip270)" d="M214.607 1102.27 Q210.996 1102.27 209.167 1105.84 Q207.362 1109.38 207.362 1116.51 Q207.362 1123.62 209.167 1127.18 Q210.996 1130.72 214.607 1130.72 Q218.241 1130.72 220.047 1127.18 Q221.875 1123.62 221.875 1116.51 Q221.875 1109.38 220.047 1105.84 Q218.241 1102.27 214.607 1102.27 M214.607 1098.57 Q220.417 1098.57 223.473 1103.18 Q226.551 1107.76 226.551 1116.51 Q226.551 1125.24 223.473 1129.84 Q220.417 1134.43 214.607 1134.43 Q208.797 1134.43 205.718 1129.84 Q202.662 1125.24 202.662 1116.51 Q202.662 1107.76 205.718 1103.18 Q208.797 1098.57 214.607 1098.57 Z" fill="#000000" fill-rule="nonzero" fill-opacity="1"></path><path clip-path="url(#clip270)" d="M144.329 831.43 L162.686 831.43 L162.686 835.366 L148.612 835.366 L148.612 843.838 Q149.63 843.49 150.649 843.328 Q151.667 843.143 152.686 843.143 Q158.473 843.143 161.852 846.315 Q165.232 849.486 165.232 854.902 Q165.232 860.481 161.76 863.583 Q158.288 866.662 151.968 866.662 Q149.792 866.662 147.524 866.291 Q145.279 865.921 142.871 865.18 L142.871 860.481 Q144.954 861.615 147.177 862.171 Q149.399 862.727 151.876 862.727 Q155.88 862.727 158.218 860.62 Q160.556 858.514 160.556 854.902 Q160.556 851.291 158.218 849.185 Q155.88 847.078 151.876 847.078 Q150.001 847.078 148.126 847.495 Q146.274 847.912 144.329 848.791 L144.329 831.43 Z" fill="#000000" fill-rule="nonzero" fill-opacity="1"></path><path clip-path="url(#clip270)" d="M184.445 834.509 Q180.834 834.509 179.005 838.074 Q177.2 841.616 177.2 848.745 Q177.2 855.852 179.005 859.416 Q180.834 862.958 184.445 862.958 Q188.079 862.958 189.885 859.416 Q191.713 855.852 191.713 848.745 Q191.713 841.616 189.885 838.074 Q188.079 834.509 184.445 834.509 M184.445 830.805 Q190.255 830.805 193.311 835.412 Q196.389 839.995 196.389 848.745 Q196.389 857.472 193.311 862.078 Q190.255 866.662 184.445 866.662 Q178.635 866.662 175.556 862.078 Q172.501 857.472 172.501 848.745 Q172.501 839.995 175.556 835.412 Q178.635 830.805 184.445 830.805 Z" fill="#000000" fill-rule="nonzero" fill-opacity="1"></path><path clip-path="url(#clip270)" d="M214.607 834.509 Q210.996 834.509 209.167 838.074 Q207.362 841.616 207.362 848.745 Q207.362 855.852 209.167 859.416 Q210.996 862.958 214.607 862.958 Q218.241 862.958 220.047 859.416 Q221.875 855.852 221.875 848.745 Q221.875 841.616 220.047 838.074 Q218.241 834.509 214.607 834.509 M214.607 830.805 Q220.417 830.805 223.473 835.412 Q226.551 839.995 226.551 848.745 Q226.551 857.472 223.473 862.078 Q220.417 866.662 214.607 866.662 Q208.797 866.662 205.718 862.078 Q202.662 857.472 202.662 848.745 Q202.662 839.995 205.718 835.412 Q208.797 830.805 214.607 830.805 Z" fill="#000000" fill-rule="nonzero" fill-opacity="1"></path><path clip-path="url(#clip270)" d="M143.103 563.666 L165.325 563.666 L165.325 565.657 L152.778 598.226 L147.894 598.226 L159.7 567.602 L143.103 567.602 L143.103 563.666 Z" fill="#000000" fill-rule="nonzero" fill-opacity="1"></path><path clip-path="url(#clip270)" d="M174.491 563.666 L192.848 563.666 L192.848 567.602 L178.774 567.602 L178.774 576.074 Q179.792 575.727 180.811 575.565 Q181.829 575.379 182.848 575.379 Q188.635 575.379 192.014 578.551 Q195.394 581.722 195.394 587.139 Q195.394 592.717 191.922 595.819 Q188.45 598.898 182.13 598.898 Q179.954 598.898 177.686 598.527 Q175.44 598.157 173.033 597.416 L173.033 592.717 Q175.116 593.851 177.339 594.407 Q179.561 594.963 182.038 594.963 Q186.042 594.963 188.38 592.856 Q190.718 590.75 190.718 587.139 Q190.718 583.527 188.38 581.421 Q186.042 579.314 182.038 579.314 Q180.163 579.314 178.288 579.731 Q176.436 580.148 174.491 581.027 L174.491 563.666 Z" fill="#000000" fill-rule="nonzero" fill-opacity="1"></path><path clip-path="url(#clip270)" d="M214.607 566.745 Q210.996 566.745 209.167 570.31 Q207.362 573.852 207.362 580.981 Q207.362 588.088 209.167 591.652 Q210.996 595.194 214.607 595.194 Q218.241 595.194 220.047 591.652 Q221.875 588.088 221.875 580.981 Q221.875 573.852 220.047 570.31 Q218.241 566.745 214.607 566.745 M214.607 563.041 Q220.417 563.041 223.473 567.648 Q226.551 572.231 226.551 580.981 Q226.551 589.708 223.473 594.314 Q220.417 598.898 214.607 598.898 Q208.797 598.898 205.718 594.314 Q202.662 589.708 202.662 580.981 Q202.662 572.231 205.718 567.648 Q208.797 563.041 214.607 563.041 Z" fill="#000000" fill-rule="nonzero" fill-opacity="1"></path><path clip-path="url(#clip270)" d="M114.931 326.527 L122.57 326.527 L122.57 300.162 L114.26 301.828 L114.26 297.569 L122.524 295.902 L127.2 295.902 L127.2 326.527 L134.839 326.527 L134.839 330.462 L114.931 330.462 L114.931 326.527 Z" fill="#000000" fill-rule="nonzero" fill-opacity="1"></path><path clip-path="url(#clip270)" d="M154.283 298.981 Q150.672 298.981 148.843 302.546 Q147.038 306.088 147.038 313.217 Q147.038 320.324 148.843 323.888 Q150.672 327.43 154.283 327.43 Q157.917 327.43 159.723 323.888 Q161.552 320.324 161.552 313.217 Q161.552 306.088 159.723 302.546 Q157.917 298.981 154.283 298.981 M154.283 295.277 Q160.093 295.277 163.149 299.884 Q166.227 304.467 166.227 313.217 Q166.227 321.944 163.149 326.55 Q160.093 331.134 154.283 331.134 Q148.473 331.134 145.394 326.55 Q142.339 321.944 142.339 313.217 Q142.339 304.467 145.394 299.884 Q148.473 295.277 154.283 295.277 Z" fill="#000000" fill-rule="nonzero" fill-opacity="1"></path><path clip-path="url(#clip270)" d="M184.445 298.981 Q180.834 298.981 179.005 302.546 Q177.2 306.088 177.2 313.217 Q177.2 320.324 179.005 323.888 Q180.834 327.43 184.445 327.43 Q188.079 327.43 189.885 323.888 Q191.713 320.324 191.713 313.217 Q191.713 306.088 189.885 302.546 Q188.079 298.981 184.445 298.981 M184.445 295.277 Q190.255 295.277 193.311 299.884 Q196.389 304.467 196.389 313.217 Q196.389 321.944 193.311 326.55 Q190.255 331.134 184.445 331.134 Q178.635 331.134 175.556 326.55 Q172.501 321.944 172.501 313.217 Q172.501 304.467 175.556 299.884 Q178.635 295.277 184.445 295.277 Z" fill="#000000" fill-rule="nonzero" fill-opacity="1"></path><path clip-path="url(#clip270)" d="M214.607 298.981 Q210.996 298.981 209.167 302.546 Q207.362 306.088 207.362 313.217 Q207.362 320.324 209.167 323.888 Q210.996 327.43 214.607 327.43 Q218.241 327.43 220.047 323.888 Q221.875 320.324 221.875 313.217 Q221.875 306.088 220.047 302.546 Q218.241 298.981 214.607 298.981 M214.607 295.277 Q220.417 295.277 223.473 299.884 Q226.551 304.467 226.551 313.217 Q226.551 321.944 223.473 326.55 Q220.417 331.134 214.607 331.134 Q208.797 331.134 205.718 326.55 Q202.662 321.944 202.662 313.217 Q202.662 304.467 205.718 299.884 Q208.797 295.277 214.607 295.277 Z" fill="#000000" fill-rule="nonzero" fill-opacity="1"></path><path clip-path="url(#clip270)" d="M16.4842 1133.69 L16.4842 1103.64 L21.895 1103.64 L21.895 1127.26 L35.9632 1127.26 L35.9632 1104.63 L41.3741 1104.63 L41.3741 1127.26 L58.5933 1127.26 L58.5933 1103.07 L64.0042 1103.07 L64.0042 1133.69 L16.4842 1133.69 Z" fill="#000000" fill-rule="nonzero" fill-opacity="1"></path><path clip-path="url(#clip270)" d="M28.3562 1063.13 L45.7028 1076.02 L64.0042 1062.46 L64.0042 1069.36 L49.9996 1079.74 L64.0042 1090.12 L64.0042 1097.02 L45.3526 1083.18 L28.3562 1095.85 L28.3562 1088.94 L41.0558 1079.49 L28.3562 1070.03 L28.3562 1063.13 Z" fill="#000000" fill-rule="nonzero" fill-opacity="1"></path><path clip-path="url(#clip270)" d="M44.7161 1025.7 L47.5806 1025.7 L47.5806 1052.62 Q53.6281 1052.24 56.8109 1048.99 Q59.9619 1045.72 59.9619 1039.89 Q59.9619 1036.52 59.1344 1033.37 Q58.3069 1030.18 56.6518 1027.06 L62.1899 1027.06 Q63.5267 1030.21 64.227 1033.52 Q64.9272 1036.84 64.9272 1040.24 Q64.9272 1048.77 59.9619 1053.77 Q54.9967 1058.73 46.5303 1058.73 Q37.7774 1058.73 32.6531 1054.02 Q27.4968 1049.28 27.4968 1041.26 Q27.4968 1034.07 32.1438 1029.9 Q36.7589 1025.7 44.7161 1025.7 M42.9973 1031.55 Q38.1912 1031.62 35.3266 1034.26 Q32.4621 1036.87 32.4621 1041.2 Q32.4621 1046.1 35.2312 1049.06 Q38.0002 1051.99 43.0292 1052.43 L42.9973 1031.55 Z" fill="#000000" fill-rule="nonzero" fill-opacity="1"></path><path clip-path="url(#clip270)" d="M33.8307 995.426 Q33.2578 996.413 33.0032 997.59 Q32.7167 998.736 32.7167 1000.14 Q32.7167 1005.1 35.9632 1007.78 Q39.1779 1010.42 45.2253 1010.42 L64.0042 1010.42 L64.0042 1016.31 L28.3562 1016.31 L28.3562 1010.42 L33.8944 1010.42 Q30.6479 1008.57 29.0883 1005.61 Q27.4968 1002.65 27.4968 998.418 Q27.4968 997.813 27.5923 997.081 Q27.656 996.349 27.8151 995.458 L33.8307 995.426 Z" fill="#000000" fill-rule="nonzero" fill-opacity="1"></path><path clip-path="url(#clip270)" d="M45.7664 966.971 Q39.4007 966.971 35.8996 969.613 Q32.3984 972.223 32.3984 976.966 Q32.3984 981.676 35.8996 984.318 Q39.4007 986.928 45.7664 986.928 Q52.1003 986.928 55.6014 984.318 Q59.1026 981.676 59.1026 976.966 Q59.1026 972.223 55.6014 969.613 Q52.1003 966.971 45.7664 966.971 M59.58 961.115 Q68.683 961.115 73.1071 965.157 Q77.5631 969.199 77.5631 977.539 Q77.5631 980.626 77.0857 983.363 Q76.6401 986.1 75.6852 988.678 L69.9879 988.678 Q71.3884 986.1 72.0568 983.586 Q72.7252 981.071 72.7252 978.462 Q72.7252 972.701 69.7015 969.836 Q66.7096 966.971 60.6303 966.971 L57.7339 966.971 Q60.885 968.786 62.4446 971.618 Q64.0042 974.451 64.0042 978.398 Q64.0042 984.955 59.0071 988.965 Q54.01 992.975 45.7664 992.975 Q37.491 992.975 32.4939 988.965 Q27.4968 984.955 27.4968 978.398 Q27.4968 974.451 29.0564 971.618 Q30.616 968.786 33.7671 966.971 L28.3562 966.971 L28.3562 961.115 L59.58 961.115 Z" fill="#000000" fill-rule="nonzero" fill-opacity="1"></path><path clip-path="url(#clip270)" d="M67.3143 934.22 Q73.68 936.702 75.6216 939.058 Q77.5631 941.413 77.5631 945.36 L77.5631 950.039 L72.6615 950.039 L72.6615 946.601 Q72.6615 944.182 71.5157 942.845 Q70.3699 941.509 66.1048 939.885 L63.4312 938.835 L28.3562 953.253 L28.3562 947.047 L56.238 935.907 L28.3562 924.767 L28.3562 918.56 L67.3143 934.22 Z" fill="#000000" fill-rule="nonzero" fill-opacity="1"></path><path clip-path="url(#clip270)" d="M21.7677 883.071 L58.7206 883.071 L58.7206 875.305 Q58.7206 865.47 54.2646 860.919 Q49.8086 856.335 40.1964 856.335 Q30.6479 856.335 26.2237 860.919 Q21.7677 865.47 21.7677 875.305 L21.7677 883.071 M16.4842 889.501 L16.4842 876.292 Q16.4842 862.478 22.2451 856.017 Q27.9743 849.556 40.1964 849.556 Q52.4822 849.556 58.2432 856.049 Q64.0042 862.542 64.0042 876.292 L64.0042 889.501 L16.4842 889.501 Z" fill="#000000" fill-rule="nonzero" fill-opacity="1"></path><path clip-path="url(#clip270)" d="M44.7161 809.07 L47.5806 809.07 L47.5806 835.997 Q53.6281 835.615 56.8109 832.369 Q59.9619 829.09 59.9619 823.266 Q59.9619 819.892 59.1344 816.741 Q58.3069 813.558 56.6518 810.439 L62.1899 810.439 Q63.5267 813.59 64.227 816.9 Q64.9272 820.21 64.9272 823.616 Q64.9272 832.146 59.9619 837.143 Q54.9967 842.108 46.5303 842.108 Q37.7774 842.108 32.6531 837.397 Q27.4968 832.655 27.4968 824.634 Q27.4968 817.441 32.1438 813.271 Q36.7589 809.07 44.7161 809.07 M42.9973 814.927 Q38.1912 814.99 35.3266 817.632 Q32.4621 820.242 32.4621 824.571 Q32.4621 829.472 35.2312 832.432 Q38.0002 835.36 43.0292 835.806 L42.9973 814.927 Z" fill="#000000" fill-rule="nonzero" fill-opacity="1"></path><path clip-path="url(#clip270)" d="M29.4065 776.732 L34.9447 776.732 Q33.6716 779.215 33.035 781.889 Q32.3984 784.562 32.3984 787.427 Q32.3984 791.787 33.7352 793.983 Q35.072 796.148 37.7456 796.148 Q39.7826 796.148 40.9603 794.588 Q42.1061 793.028 43.1565 788.318 L43.6021 786.313 Q44.9389 780.074 47.3897 777.464 Q49.8086 774.823 54.1691 774.823 Q59.1344 774.823 62.0308 778.769 Q64.9272 782.684 64.9272 789.559 Q64.9272 792.424 64.3543 795.543 Q63.8132 798.63 62.6992 802.068 L56.6518 802.068 Q58.3387 798.821 59.198 795.67 Q60.0256 792.519 60.0256 789.432 Q60.0256 785.294 58.6251 783.066 Q57.1929 780.838 54.6147 780.838 Q52.2276 780.838 50.9545 782.461 Q49.6813 784.053 48.5037 789.496 L48.0262 791.533 Q46.8804 796.975 44.5251 799.394 Q42.138 801.813 38.0002 801.813 Q32.9713 801.813 30.2341 798.248 Q27.4968 794.684 27.4968 788.127 Q27.4968 784.88 27.9743 782.016 Q28.4517 779.151 29.4065 776.732 Z" fill="#000000" fill-rule="nonzero" fill-opacity="1"></path><path clip-path="url(#clip270)" d="M18.2347 759.704 L28.3562 759.704 L28.3562 747.641 L32.9077 747.641 L32.9077 759.704 L52.2594 759.704 Q56.6199 759.704 57.8613 758.526 Q59.1026 757.317 59.1026 753.657 L59.1026 747.641 L64.0042 747.641 L64.0042 753.657 Q64.0042 760.436 61.4897 763.014 Q58.9434 765.592 52.2594 765.592 L32.9077 765.592 L32.9077 769.889 L28.3562 769.889 L28.3562 765.592 L18.2347 765.592 L18.2347 759.704 Z" fill="#000000" fill-rule="nonzero" fill-opacity="1"></path><path clip-path="url(#clip270)" d="M33.8307 719.282 Q33.2578 720.268 33.0032 721.446 Q32.7167 722.592 32.7167 723.992 Q32.7167 728.958 35.9632 731.631 Q39.1779 734.273 45.2253 734.273 L64.0042 734.273 L64.0042 740.161 L28.3562 740.161 L28.3562 734.273 L33.8944 734.273 Q30.6479 732.427 29.0883 729.467 Q27.4968 726.507 27.4968 722.274 Q27.4968 721.669 27.5923 720.937 Q27.656 720.205 27.8151 719.314 L33.8307 719.282 Z" fill="#000000" fill-rule="nonzero" fill-opacity="1"></path><path clip-path="url(#clip270)" d="M32.4621 700.758 Q32.4621 705.468 36.1542 708.205 Q39.8145 710.943 46.212 710.943 Q52.6095 710.943 56.3017 708.237 Q59.9619 705.5 59.9619 700.758 Q59.9619 696.079 56.2698 693.342 Q52.5777 690.604 46.212 690.604 Q39.8781 690.604 36.186 693.342 Q32.4621 696.079 32.4621 700.758 M27.4968 700.758 Q27.4968 693.119 32.4621 688.758 Q37.4273 684.398 46.212 684.398 Q54.9649 684.398 59.9619 688.758 Q64.9272 693.119 64.9272 700.758 Q64.9272 708.428 59.9619 712.789 Q54.9649 717.117 46.212 717.117 Q37.4273 717.117 32.4621 712.789 Q27.4968 708.428 27.4968 700.758 Z" fill="#000000" fill-rule="nonzero" fill-opacity="1"></path><path clip-path="url(#clip270)" d="M67.3143 659.858 Q73.68 662.341 75.6216 664.696 Q77.5631 667.051 77.5631 670.998 L77.5631 675.677 L72.6615 675.677 L72.6615 672.239 Q72.6615 669.82 71.5157 668.483 Q70.3699 667.147 66.1048 665.523 L63.4312 664.473 L28.3562 678.891 L28.3562 672.685 L56.238 661.545 L28.3562 650.405 L28.3562 644.198 L67.3143 659.858 Z" fill="#000000" fill-rule="nonzero" fill-opacity="1"></path><path clip-path="url(#clip270)" d="M44.7161 605.622 L47.5806 605.622 L47.5806 632.549 Q53.6281 632.167 56.8109 628.921 Q59.9619 625.642 59.9619 619.818 Q59.9619 616.444 59.1344 613.293 Q58.3069 610.11 56.6518 606.991 L62.1899 606.991 Q63.5267 610.142 64.227 613.452 Q64.9272 616.762 64.9272 620.168 Q64.9272 628.698 59.9619 633.695 Q54.9967 638.66 46.5303 638.66 Q37.7774 638.66 32.6531 633.949 Q27.4968 629.207 27.4968 621.186 Q27.4968 613.993 32.1438 609.823 Q36.7589 605.622 44.7161 605.622 M42.9973 611.479 Q38.1912 611.542 35.3266 614.184 Q32.4621 616.794 32.4621 621.123 Q32.4621 626.024 35.2312 628.984 Q38.0002 631.912 43.0292 632.358 L42.9973 611.479 Z" fill="#000000" fill-rule="nonzero" fill-opacity="1"></path><path clip-path="url(#clip270)" d="M33.7671 572.552 L14.479 572.552 L14.479 566.696 L64.0042 566.696 L64.0042 572.552 L58.657 572.552 Q61.8398 574.398 63.3994 577.231 Q64.9272 580.032 64.9272 583.979 Q64.9272 590.44 59.771 594.514 Q54.6147 598.556 46.212 598.556 Q37.8093 598.556 32.6531 594.514 Q27.4968 590.44 27.4968 583.979 Q27.4968 580.032 29.0564 577.231 Q30.5842 574.398 33.7671 572.552 M46.212 592.509 Q52.6732 592.509 56.3653 589.867 Q60.0256 587.193 60.0256 582.546 Q60.0256 577.899 56.3653 575.226 Q52.6732 572.552 46.212 572.552 Q39.7508 572.552 36.0905 575.226 Q32.3984 577.899 32.3984 582.546 Q32.3984 587.193 36.0905 589.867 Q39.7508 592.509 46.212 592.509 Z" fill="#000000" fill-rule="nonzero" fill-opacity="1"></path><path clip-path="url(#clip270)" d="M14.479 534.453 L14.479 520.958 L19.0304 520.958 L19.0304 528.597 L68.0464 528.597 L68.0464 520.958 L72.5979 520.958 L72.5979 534.453 L14.479 534.453 Z" fill="#000000" fill-rule="nonzero" fill-opacity="1"></path><path clip-path="url(#clip270)" d="M14.479 508.704 L14.479 502.816 L43.7294 502.816 L28.3562 485.342 L28.3562 477.862 L45.0344 496.769 L64.0042 477.067 L64.0042 484.705 L46.5939 502.816 L64.0042 502.816 L64.0042 508.704 L14.479 508.704 Z" fill="#000000" fill-rule="nonzero" fill-opacity="1"></path><path clip-path="url(#clip270)" d="M16.4842 470.478 L16.4842 464.049 L60.694 464.049 Q69.2877 464.049 73.1708 467.327 Q77.0539 470.574 77.0539 477.799 L77.0539 480.25 L71.643 480.25 L71.643 478.244 Q71.643 473.979 69.2559 472.229 Q66.8687 470.478 60.694 470.478 L16.4842 470.478 Z" fill="#000000" fill-rule="nonzero" fill-opacity="1"></path><path clip-path="url(#clip270)" d="M16.4842 441.1 L16.4842 435.69 L70.0516 452.24 L70.0516 457.651 L16.4842 441.1 Z" fill="#000000" fill-rule="nonzero" fill-opacity="1"></path><path clip-path="url(#clip270)" d="M14.479 429.769 L14.479 423.881 L43.7294 423.881 L28.3562 406.407 L28.3562 398.928 L45.0344 417.834 L64.0042 398.132 L64.0042 405.771 L46.5939 423.881 L64.0042 423.881 L64.0042 429.769 L14.479 429.769 Z" fill="#000000" fill-rule="nonzero" fill-opacity="1"></path><path clip-path="url(#clip270)" d="M45.7664 368.34 Q39.4007 368.34 35.8996 370.982 Q32.3984 373.592 32.3984 378.335 Q32.3984 383.045 35.8996 385.687 Q39.4007 388.297 45.7664 388.297 Q52.1003 388.297 55.6014 385.687 Q59.1026 383.045 59.1026 378.335 Q59.1026 373.592 55.6014 370.982 Q52.1003 368.34 45.7664 368.34 M59.58 362.484 Q68.683 362.484 73.1071 366.526 Q77.5631 370.568 77.5631 378.907 Q77.5631 381.995 77.0857 384.732 Q76.6401 387.469 75.6852 390.047 L69.9879 390.047 Q71.3884 387.469 72.0568 384.955 Q72.7252 382.44 72.7252 379.83 Q72.7252 374.07 69.7015 371.205 Q66.7096 368.34 60.6303 368.34 L57.7339 368.34 Q60.885 370.155 62.4446 372.987 Q64.0042 375.82 64.0042 379.767 Q64.0042 386.324 59.0071 390.334 Q54.01 394.344 45.7664 394.344 Q37.491 394.344 32.4939 390.334 Q27.4968 386.324 27.4968 379.767 Q27.4968 375.82 29.0564 372.987 Q30.616 370.155 33.7671 368.34 L28.3562 368.34 L28.3562 362.484 L59.58 362.484 Z" fill="#000000" fill-rule="nonzero" fill-opacity="1"></path><path clip-path="url(#clip270)" d="M14.479 336.735 L72.5979 336.735 L72.5979 350.23 L68.0464 350.23 L68.0464 342.623 L19.0304 342.623 L19.0304 350.23 L14.479 350.23 L14.479 336.735 Z" fill="#000000" fill-rule="nonzero" fill-opacity="1"></path><polyline clip-path="url(#clip272)" style="stroke:#009af9; stroke-linecap:round; stroke-linejoin:round; stroke-width:4; stroke-opacity:1; fill:none" points="321.708,1384.24 325.05,1383.89 328.392,1383.51 331.735,1383.11 335.077,1382.7 338.419,1382.29 341.761,1381.86 345.103,1381.44 348.445,1381.01 351.788,1380.58 355.13,1380.15 358.472,1379.72 361.814,1379.3 365.156,1378.87 368.499,1378.45 371.841,1378.03 375.183,1377.62 378.525,1377.21 381.867,1376.8 385.21,1376.39 388.552,1375.99 391.894,1375.6 395.236,1375.2 398.578,1374.81 401.92,1374.43 405.263,1374.04 408.605,1373.66 411.947,1373.29 415.289,1372.92 418.631,1372.55 421.974,1372.18 425.316,1371.82 428.658,1371.46 432,1371.1 435.342,1370.75 438.685,1370.4 442.027,1370.05 445.369,1369.71 448.711,1369.37 452.053,1369.03 455.395,1368.7 458.738,1368.36 462.08,1368.04 465.422,1367.71 468.764,1367.38 472.106,1367.06 475.449,1366.74 478.791,1366.43 482.133,1366.11 485.475,1365.8 488.817,1365.49 492.16,1365.19 495.502,1364.88 498.844,1364.58 502.186,1364.28 505.528,1363.98 508.871,1363.69 512.213,1363.39 515.555,1363.1 518.897,1362.81 522.239,1362.52 525.581,1362.24 528.924,1361.96 532.266,1361.67 535.608,1361.39 538.95,1361.12 542.292,1360.84 545.635,1360.57 548.977,1360.29 552.319,1360.02 555.661,1359.75 559.003,1359.49 562.346,1359.22 565.688,1358.96 569.03,1358.69 572.372,1358.43 575.714,1358.17 579.056,1357.92 582.399,1357.66 585.741,1357.41 589.083,1357.15 592.425,1356.9 595.767,1356.65 599.11,1356.4 602.452,1356.15 605.794,1355.91 609.136,1355.66 612.478,1355.42 615.821,1355.18 619.163,1354.94 622.505,1354.7 625.847,1354.46 629.189,1354.22 632.531,1353.99 635.874,1353.75 639.216,1353.52 642.558,1353.29 645.9,1353.06 649.242,1352.83 652.585,1352.6 655.927,1352.37 659.269,1352.14 662.611,1351.92 665.953,1351.7 669.296,1351.47 672.638,1351.25 675.98,1351.03 679.322,1350.81 682.664,1350.59 686.007,1350.37 689.349,1350.16 692.691,1349.94 696.033,1349.73 699.375,1349.51 702.717,1349.3 706.06,1349.09 709.402,1348.88 712.744,1348.67 716.086,1348.46 719.428,1348.25 722.771,1348.04 726.113,1347.84 729.455,1347.63 732.797,1347.43 736.139,1347.22 739.482,1347.02 742.824,1346.82 746.166,1346.62 749.508,1346.42 752.85,1346.22 756.192,1346.02 759.535,1345.82 762.877,1345.62 766.219,1345.43 769.561,1345.23 772.903,1345.04 776.246,1344.84 779.588,1344.65 782.93,1344.46 786.272,1344.27 789.614,1344.07 792.957,1343.88 796.299,1343.69 799.641,1343.51 802.983,1343.32 806.325,1343.13 809.667,1342.94 813.01,1342.76 816.352,1342.57 819.694,1342.39 823.036,1342.2 826.378,1342.02 829.721,1341.84 833.063,1341.66 836.405,1341.48 839.747,1341.29 843.089,1341.11 846.432,1340.94 849.774,1340.76 853.116,1340.58 856.458,1340.4 859.8,1340.22 863.142,1340.05 866.485,1339.87 869.827,1339.7 873.169,1339.52 876.511,1339.35 879.853,1339.18 883.196,1339 886.538,1338.83 889.88,1338.66 893.222,1338.49 896.564,1338.32 899.907,1338.15 903.249,1337.98 906.591,1337.81 909.933,1337.64 913.275,1337.47 916.618,1337.31 919.96,1337.14 923.302,1336.97 926.644,1336.81 929.986,1336.64 933.328,1336.48 936.671,1336.32 940.013,1336.15 943.355,1335.99 946.697,1335.83 950.039,1335.66 953.382,1335.5 956.724,1335.34 960.066,1335.18 963.408,1335.02 966.75,1334.86 970.093,1334.7 973.435,1334.54 976.777,1334.39 980.119,1334.23 983.461,1334.07 986.803,1333.91 990.146,1333.76 993.488,1333.6 996.83,1333.45 1000.17,1333.29 1003.51,1333.14 1006.86,1332.98 1010.2,1332.83 1013.54,1332.68 1016.88,1332.52 1020.23,1332.37 1023.57,1332.22 1026.91,1332.07 1030.25,1331.92 1033.59,1331.76 1036.94,1331.61 1040.28,1331.46 1043.62,1331.31 1046.96,1331.17 1050.31,1331.02 1053.65,1330.87 1056.99,1330.72 1060.33,1330.57 1063.67,1330.43 1067.02,1330.28 1070.36,1330.13 1073.7,1329.99 1077.04,1329.84 1080.38,1329.7 1083.73,1329.55 1087.07,1329.41 1090.41,1329.26 1093.75,1329.12 1097.1,1328.98 1100.44,1328.83 1103.78,1328.69 1107.12,1328.55 1110.46,1328.41 1113.81,1328.26 1117.15,1328.12 1120.49,1327.98 1123.83,1327.84 1127.18,1327.7 1130.52,1327.56 1133.86,1327.42 1137.2,1327.28 1140.54,1327.14 1143.89,1327.01 1147.23,1326.87 1150.57,1326.73 1153.91,1326.59 1157.26,1326.46 1160.6,1326.32 1163.94,1326.18 1167.28,1326.05 1170.62,1325.91 1173.97,1325.78 1177.31,1325.64 1180.65,1325.5 1183.99,1325.37 1187.33,1325.24 1190.68,1325.1 1194.02,1324.97 1197.36,1324.84 1200.7,1324.7 1204.05,1324.57 1207.39,1324.44 1210.73,1324.31 1214.07,1324.17 1217.41,1324.04 1220.76,1323.91 1224.1,1323.78 1227.44,1323.65 1230.78,1323.52 1234.13,1323.39 1237.47,1323.26 1240.81,1323.13 1244.15,1323 1247.49,1322.87 1250.84,1322.74 1254.18,1322.61 1257.52,1322.49 1260.86,1322.36 1264.21,1322.23 1267.55,1322.1 1270.89,1321.98 1274.23,1321.85 1277.57,1321.72 1280.92,1321.6 1284.26,1321.47 1287.6,1321.35 1290.94,1321.22 1294.28,1321.1 1297.63,1320.97 1300.97,1320.85 1304.31,1320.72 1307.65,1320.6 1311,1320.47 1314.34,1320.35 1317.68,1320.23 1321.02,1320.1 1324.36,1319.98 1327.71,1319.86 1331.05,1319.74 1334.39,1319.61 1337.73,1319.49 1341.08,1319.37 1344.42,1319.25 1347.76,1319.13 1351.1,1319.01 1354.44,1318.89 1357.79,1318.77 1361.13,1318.65 1364.47,1318.53 1367.81,1318.41 1371.16,1318.29 1374.5,1318.17 1377.84,1318.05 1381.18,1317.93 1384.52,1317.81 1387.87,1317.7 1391.21,1317.58 1394.55,1317.46 1397.89,1317.34 1401.23,1317.22 1404.58,1317.11 1407.92,1316.99 1411.26,1316.87 1414.6,1316.76 1417.95,1316.64 1421.29,1316.53 1424.63,1316.41 1427.97,1316.29 1431.31,1316.18 1434.66,1316.06 1438,1315.95 1441.34,1315.83 1444.68,1315.72 1448.03,1315.61 1451.37,1315.49 1454.71,1315.38 1458.05,1315.26 1461.39,1315.15 1464.74,1315.04 1468.08,1314.92 1471.42,1314.81 1474.76,1314.7 1478.11,1314.59 1481.45,1314.47 1484.79,1314.36 1488.13,1314.25 1491.47,1314.14 1494.82,1314.03 1498.16,1313.92 1501.5,1313.8 1504.84,1313.69 1508.18,1313.58 1511.53,1313.47 1514.87,1313.36 1518.21,1313.25 1521.55,1313.14 1524.9,1313.03 1528.24,1312.92 1531.58,1312.81 1534.92,1312.71 1538.26,1312.6 1541.61,1312.49 1544.95,1312.38 1548.29,1312.27 1551.63,1312.16 1554.98,1312.05 1558.32,1311.95 1561.66,1311.84 1565,1311.73 1568.34,1311.62 1571.69,1311.52 1575.03,1311.41 1578.37,1311.3 1581.71,1311.2 1585.06,1311.09 1588.4,1310.99 1591.74,1310.88 1595.08,1310.77 1598.42,1310.67 1601.77,1310.56 1605.11,1310.46 1608.45,1310.35 1611.79,1310.25 1615.13,1310.14 1618.48,1310.04 1621.82,1309.93 1625.16,1309.83 1628.5,1309.72 1631.85,1309.62 1635.19,1309.52 1638.53,1309.41 1641.87,1309.31 1645.21,1309.21 1648.56,1309.1 1651.9,1309 1655.24,1308.9 1658.58,1308.8 1661.93,1308.69 1665.27,1308.59 1668.61,1308.49 1671.95,1308.39 1675.29,1308.28 1678.64,1308.18 1681.98,1308.08 1685.32,1307.98 1688.66,1307.88 1692.01,1307.78 1695.35,1307.68 1698.69,1307.58 1702.03,1307.48 1705.37,1307.38 1708.72,1307.28 1712.06,1307.17 1715.4,1307.08 1718.74,1306.98 1722.08,1306.88 1725.43,1306.78 1728.77,1306.68 1732.11,1306.58 1735.45,1306.48 1738.8,1306.38 1742.14,1306.28 1745.48,1306.18 1748.82,1306.08 1752.16,1305.99 1755.51,1305.89 1758.85,1305.79 1762.19,1305.69 1765.53,1305.59 1768.88,1305.5 1772.22,1305.4 1775.56,1305.3 1778.9,1305.2 1782.24,1305.11 1785.59,1305.01 1788.93,1304.91 1792.27,1304.82 1795.61,1304.72 1798.96,1304.62 1802.3,1304.53 1805.64,1304.43 1808.98,1304.34 1812.32,1304.24 1815.67,1304.15 1819.01,1304.05 1822.35,1303.95 1825.69,1303.86 1829.03,1303.76 1832.38,1303.67 1835.72,1303.57 1839.06,1303.48 1842.4,1303.39 1845.75,1303.29 1849.09,1303.2 1852.43,1303.1 1855.77,1303.01 1859.11,1302.91 1862.46,1302.82 1865.8,1302.73 1869.14,1302.63 1872.48,1302.54 1875.83,1302.45 1879.17,1302.35 1882.51,1302.26 1885.85,1302.17 1889.19,1302.08 1892.54,1301.98 1895.88,1301.89 1899.22,1301.8 1902.56,1301.71 1905.91,1301.61 1909.25,1301.52 1912.59,1301.43 1915.93,1301.34 1919.27,1301.25 1922.62,1301.16 1925.96,1301.06 1929.3,1300.97 1932.64,1300.88 1935.99,1300.79 1939.33,1300.7 1942.67,1300.61 1946.01,1300.52 1949.35,1300.43 1952.7,1300.34 1956.04,1300.25 1959.38,1300.16 1962.72,1300.07 1966.06,1299.98 1969.41,1299.89 1972.75,1299.8 1976.09,1299.71 1979.43,1299.62 1982.78,1299.53 1986.12,1299.44 1989.46,1299.35 1992.8,1299.26 1996.14,1299.17 1999.49,1299.09 2002.83,1299 2006.17,1298.91 2009.51,1298.82 2012.86,1298.73 2016.2,1298.64 2019.54,1298.56 2022.88,1298.47 2026.22,1298.38 2029.57,1298.29 2032.91,1298.2 2036.25,1298.12 2039.59,1298.03 2042.94,1297.94 2046.28,1297.86 2049.62,1297.77 2052.96,1297.68 2056.3,1297.59 2059.65,1297.51 2062.99,1297.42 2066.33,1297.33 2069.67,1297.25 2073.01,1297.16 2076.36,1297.08 2079.7,1296.99 2083.04,1296.9 2086.38,1296.82 2089.73,1296.73 2093.07,1296.65 2096.41,1296.56 2099.75,1296.48 2103.09,1296.39 2106.44,1296.3 2109.78,1296.22 2113.12,1296.13 2116.46,1296.05 2119.81,1295.96 2123.15,1295.88 2126.49,1295.8 2129.83,1295.71 2133.17,1295.63 2136.52,1295.54 2139.86,1295.46 2143.2,1295.37 2146.54,1295.29 2149.89,1295.21 2153.23,1295.12 2156.57,1295.04 2159.91,1294.95 2163.25,1294.87 2166.6,1294.79 2169.94,1294.7 2173.28,1294.62 2176.62,1294.54 2179.96,1294.46 2183.31,1294.37 2186.65,1294.29 2189.99,1294.21 2193.33,1294.12 2196.68,1294.04 2200.02,1293.96 2203.36,1293.88 2206.7,1293.79 2210.04,1293.71 2213.39,1293.63 2216.73,1293.55 2220.07,1293.47 2223.41,1293.38 2226.76,1293.3 2230.1,1293.22 2233.44,1293.14 2236.78,1293.06 2240.12,1292.98 2243.47,1292.9 2246.81,1292.82 2250.15,1292.73 2253.49,1292.65 2256.84,1292.57 2260.18,1292.49 2263.52,1292.41 2266.86,1292.33 2270.2,1292.25 2273.55,1292.17 2276.89,1292.09 2280.23,1292.01 2283.57,1291.93 2286.91,1291.85 2290.26,1291.77 2293.6,1291.69 "></polyline>
<polyline clip-path="url(#clip272)" style="stroke:#e26f46; stroke-linecap:round; stroke-linejoin:round; stroke-width:4; stroke-opacity:1; fill:none" points="321.708,1384.24 325.05,1383.77 328.392,1383.28 331.735,1382.79 335.077,1382.29 338.419,1381.79 341.761,1381.29 345.103,1380.8 348.445,1380.3 351.788,1379.82 355.13,1379.33 358.472,1378.85 361.814,1378.38 365.156,1377.91 368.499,1377.45 371.841,1376.99 375.183,1376.54 378.525,1376.1 381.867,1375.66 385.21,1375.22 388.552,1374.79 391.894,1374.37 395.236,1373.95 398.578,1373.54 401.92,1373.13 405.263,1372.73 408.605,1372.33 411.947,1371.93 415.289,1371.54 418.631,1371.16 421.974,1370.78 425.316,1370.4 428.658,1370.03 432,1369.66 435.342,1369.29 438.685,1368.93 442.027,1368.58 445.369,1368.22 448.711,1367.87 452.053,1367.53 455.395,1367.18 458.738,1366.85 462.08,1366.51 465.422,1366.18 468.764,1365.85 472.106,1365.52 475.449,1365.2 478.791,1364.88 482.133,1364.56 485.475,1364.24 488.817,1363.93 492.16,1363.62 495.502,1363.31 498.844,1363.01 502.186,1362.71 505.528,1362.41 508.871,1362.11 512.213,1361.82 515.555,1361.53 518.897,1361.24 522.239,1360.95 525.581,1360.66 528.924,1360.38 532.266,1360.1 535.608,1359.82 538.95,1359.54 542.292,1359.27 545.635,1359 548.977,1358.73 552.319,1358.46 555.661,1358.19 559.003,1357.93 562.346,1357.66 565.688,1357.4 569.03,1357.14 572.372,1356.89 575.714,1356.63 579.056,1356.38 582.399,1356.12 585.741,1355.87 589.083,1355.62 592.425,1355.37 595.767,1355.13 599.11,1354.88 602.452,1354.64 605.794,1354.4 609.136,1354.16 612.478,1353.92 615.821,1353.68 619.163,1353.45 622.505,1353.21 625.847,1352.98 629.189,1352.75 632.531,1352.52 635.874,1352.29 639.216,1352.06 642.558,1351.84 645.9,1351.61 649.242,1351.39 652.585,1351.17 655.927,1350.94 659.269,1350.72 662.611,1350.51 665.953,1350.29 669.296,1350.07 672.638,1349.86 675.98,1349.64 679.322,1349.43 682.664,1349.22 686.007,1349 689.349,1348.79 692.691,1348.59 696.033,1348.38 699.375,1348.17 702.717,1347.97 706.06,1347.76 709.402,1347.56 712.744,1347.35 716.086,1347.15 719.428,1346.95 722.771,1346.75 726.113,1346.55 729.455,1346.36 732.797,1346.16 736.139,1345.96 739.482,1345.77 742.824,1345.57 746.166,1345.38 749.508,1345.19 752.85,1345 756.192,1344.8 759.535,1344.61 762.877,1344.43 766.219,1344.24 769.561,1344.05 772.903,1343.86 776.246,1343.68 779.588,1343.49 782.93,1343.31 786.272,1343.12 789.614,1342.94 792.957,1342.76 796.299,1342.58 799.641,1342.4 802.983,1342.22 806.325,1342.04 809.667,1341.86 813.01,1341.68 816.352,1341.51 819.694,1341.33 823.036,1341.16 826.378,1340.98 829.721,1340.81 833.063,1340.63 836.405,1340.46 839.747,1340.29 843.089,1340.12 846.432,1339.95 849.774,1339.78 853.116,1339.61 856.458,1339.44 859.8,1339.27 863.142,1339.1 866.485,1338.94 869.827,1338.77 873.169,1338.6 876.511,1338.44 879.853,1338.28 883.196,1338.11 886.538,1337.95 889.88,1337.79 893.222,1337.62 896.564,1337.46 899.907,1337.3 903.249,1337.14 906.591,1336.98 909.933,1336.82 913.275,1336.66 916.618,1336.51 919.96,1336.35 923.302,1336.19 926.644,1336.03 929.986,1335.88 933.328,1335.72 936.671,1335.57 940.013,1335.41 943.355,1335.26 946.697,1335.11 950.039,1334.95 953.382,1334.8 956.724,1334.65 960.066,1334.5 963.408,1334.35 966.75,1334.2 970.093,1334.05 973.435,1333.9 976.777,1333.75 980.119,1333.6 983.461,1333.45 986.803,1333.3 990.146,1333.16 993.488,1333.01 996.83,1332.86 1000.17,1332.72 1003.51,1332.57 1006.86,1332.43 1010.2,1332.28 1013.54,1332.14 1016.88,1332 1020.23,1331.85 1023.57,1331.71 1026.91,1331.57 1030.25,1331.43 1033.59,1331.29 1036.94,1331.15 1040.28,1331 1043.62,1330.86 1046.96,1330.72 1050.31,1330.59 1053.65,1330.45 1056.99,1330.31 1060.33,1330.17 1063.67,1330.03 1067.02,1329.89 1070.36,1329.76 1073.7,1329.62 1077.04,1329.49 1080.38,1329.35 1083.73,1329.21 1087.07,1329.08 1090.41,1328.94 1093.75,1328.81 1097.1,1328.68 1100.44,1328.54 1103.78,1328.41 1107.12,1328.28 1110.46,1328.14 1113.81,1328.01 1117.15,1327.88 1120.49,1327.75 1123.83,1327.62 1127.18,1327.49 1130.52,1327.36 1133.86,1327.23 1137.2,1327.1 1140.54,1326.97 1143.89,1326.84 1147.23,1326.71 1150.57,1326.58 1153.91,1326.45 1157.26,1326.33 1160.6,1326.2 1163.94,1326.07 1167.28,1325.95 1170.62,1325.82 1173.97,1325.69 1177.31,1325.57 1180.65,1325.44 1183.99,1325.32 1187.33,1325.19 1190.68,1325.07 1194.02,1324.94 1197.36,1324.82 1200.7,1324.7 1204.05,1324.57 1207.39,1324.45 1210.73,1324.33 1214.07,1324.21 1217.41,1324.08 1220.76,1323.96 1224.1,1323.84 1227.44,1323.72 1230.78,1323.6 1234.13,1323.48 1237.47,1323.36 1240.81,1323.24 1244.15,1323.12 1247.49,1323 1250.84,1322.88 1254.18,1322.76 1257.52,1322.64 1260.86,1322.52 1264.21,1322.41 1267.55,1322.29 1270.89,1322.17 1274.23,1322.05 1277.57,1321.94 1280.92,1321.82 1284.26,1321.7 1287.6,1321.59 1290.94,1321.47 1294.28,1321.36 1297.63,1321.24 1300.97,1321.13 1304.31,1321.01 1307.65,1320.9 1311,1320.78 1314.34,1320.67 1317.68,1320.55 1321.02,1320.44 1324.36,1320.33 1327.71,1320.21 1331.05,1320.1 1334.39,1319.99 1337.73,1319.88 1341.08,1319.76 1344.42,1319.65 1347.76,1319.54 1351.1,1319.43 1354.44,1319.32 1357.79,1319.21 1361.13,1319.1 1364.47,1318.99 1367.81,1318.88 1371.16,1318.77 1374.5,1318.66 1377.84,1318.55 1381.18,1318.44 1384.52,1318.33 1387.87,1318.22 1391.21,1318.11 1394.55,1318 1397.89,1317.89 1401.23,1317.79 1404.58,1317.68 1407.92,1317.57 1411.26,1317.46 1414.6,1317.36 1417.95,1317.25 1421.29,1317.14 1424.63,1317.04 1427.97,1316.93 1431.31,1316.82 1434.66,1316.72 1438,1316.61 1441.34,1316.51 1444.68,1316.4 1448.03,1316.3 1451.37,1316.19 1454.71,1316.09 1458.05,1315.98 1461.39,1315.88 1464.74,1315.78 1468.08,1315.67 1471.42,1315.57 1474.76,1315.47 1478.11,1315.36 1481.45,1315.26 1484.79,1315.16 1488.13,1315.05 1491.47,1314.95 1494.82,1314.85 1498.16,1314.75 1501.5,1314.65 1504.84,1314.55 1508.18,1314.44 1511.53,1314.34 1514.87,1314.24 1518.21,1314.14 1521.55,1314.04 1524.9,1313.94 1528.24,1313.84 1531.58,1313.74 1534.92,1313.64 1538.26,1313.54 1541.61,1313.44 1544.95,1313.34 1548.29,1313.24 1551.63,1313.14 1554.98,1313.05 1558.32,1312.95 1561.66,1312.85 1565,1312.75 1568.34,1312.65 1571.69,1312.55 1575.03,1312.46 1578.37,1312.36 1581.71,1312.26 1585.06,1312.16 1588.4,1312.07 1591.74,1311.97 1595.08,1311.87 1598.42,1311.78 1601.77,1311.68 1605.11,1311.59 1608.45,1311.49 1611.79,1311.39 1615.13,1311.3 1618.48,1311.2 1621.82,1311.11 1625.16,1311.01 1628.5,1310.92 1631.85,1310.82 1635.19,1310.73 1638.53,1310.63 1641.87,1310.54 1645.21,1310.45 1648.56,1310.35 1651.9,1310.26 1655.24,1310.16 1658.58,1310.07 1661.93,1309.98 1665.27,1309.88 1668.61,1309.79 1671.95,1309.7 1675.29,1309.61 1678.64,1309.51 1681.98,1309.42 1685.32,1309.33 1688.66,1309.24 1692.01,1309.14 1695.35,1309.05 1698.69,1308.96 1702.03,1308.87 1705.37,1308.78 1708.72,1308.69 1712.06,1308.6 1715.4,1308.51 1718.74,1308.41 1722.08,1308.32 1725.43,1308.23 1728.77,1308.14 1732.11,1308.05 1735.45,1307.96 1738.8,1307.87 1742.14,1307.78 1745.48,1307.69 1748.82,1307.6 1752.16,1307.52 1755.51,1307.43 1758.85,1307.34 1762.19,1307.25 1765.53,1307.16 1768.88,1307.07 1772.22,1306.98 1775.56,1306.89 1778.9,1306.81 1782.24,1306.72 1785.59,1306.63 1788.93,1306.54 1792.27,1306.45 1795.61,1306.37 1798.96,1306.28 1802.3,1306.19 1805.64,1306.11 1808.98,1306.02 1812.32,1305.93 1815.67,1305.85 1819.01,1305.76 1822.35,1305.67 1825.69,1305.59 1829.03,1305.5 1832.38,1305.41 1835.72,1305.33 1839.06,1305.24 1842.4,1305.16 1845.75,1305.07 1849.09,1304.99 1852.43,1304.9 1855.77,1304.82 1859.11,1304.73 1862.46,1304.65 1865.8,1304.56 1869.14,1304.48 1872.48,1304.39 1875.83,1304.31 1879.17,1304.22 1882.51,1304.14 1885.85,1304.06 1889.19,1303.97 1892.54,1303.89 1895.88,1303.8 1899.22,1303.72 1902.56,1303.64 1905.91,1303.55 1909.25,1303.47 1912.59,1303.39 1915.93,1303.31 1919.27,1303.22 1922.62,1303.14 1925.96,1303.06 1929.3,1302.97 1932.64,1302.89 1935.99,1302.81 1939.33,1302.73 1942.67,1302.65 1946.01,1302.56 1949.35,1302.48 1952.7,1302.4 1956.04,1302.32 1959.38,1302.24 1962.72,1302.16 1966.06,1302.08 1969.41,1302 1972.75,1301.91 1976.09,1301.83 1979.43,1301.75 1982.78,1301.67 1986.12,1301.59 1989.46,1301.51 1992.8,1301.43 1996.14,1301.35 1999.49,1301.27 2002.83,1301.19 2006.17,1301.11 2009.51,1301.03 2012.86,1300.95 2016.2,1300.87 2019.54,1300.79 2022.88,1300.71 2026.22,1300.63 2029.57,1300.56 2032.91,1300.48 2036.25,1300.4 2039.59,1300.32 2042.94,1300.24 2046.28,1300.16 2049.62,1300.08 2052.96,1300.01 2056.3,1299.93 2059.65,1299.85 2062.99,1299.77 2066.33,1299.69 2069.67,1299.62 2073.01,1299.54 2076.36,1299.46 2079.7,1299.38 2083.04,1299.31 2086.38,1299.23 2089.73,1299.15 2093.07,1299.07 2096.41,1299 2099.75,1298.92 2103.09,1298.84 2106.44,1298.77 2109.78,1298.69 2113.12,1298.61 2116.46,1298.54 2119.81,1298.46 2123.15,1298.39 2126.49,1298.31 2129.83,1298.23 2133.17,1298.16 2136.52,1298.08 2139.86,1298.01 2143.2,1297.93 2146.54,1297.86 2149.89,1297.78 2153.23,1297.7 2156.57,1297.63 2159.91,1297.55 2163.25,1297.48 2166.6,1297.4 2169.94,1297.33 2173.28,1297.25 2176.62,1297.18 2179.96,1297.11 2183.31,1297.03 2186.65,1296.96 2189.99,1296.88 2193.33,1296.81 2196.68,1296.73 2200.02,1296.66 2203.36,1296.59 2206.7,1296.51 2210.04,1296.44 2213.39,1296.37 2216.73,1296.29 2220.07,1296.22 2223.41,1296.15 2226.76,1296.07 2230.1,1296 2233.44,1295.93 2236.78,1295.85 2240.12,1295.78 2243.47,1295.71 2246.81,1295.63 2250.15,1295.56 2253.49,1295.49 2256.84,1295.42 2260.18,1295.34 2263.52,1295.27 2266.86,1295.2 2270.2,1295.13 2273.55,1295.06 2276.89,1294.98 2280.23,1294.91 2283.57,1294.84 2286.91,1294.77 2290.26,1294.7 2293.6,1294.63 "></polyline>
<polyline clip-path="url(#clip272)" style="stroke:#3da44d; stroke-linecap:round; stroke-linejoin:round; stroke-width:4; stroke-opacity:1; fill:none" points="321.708,1384.24 325.05,1380.74 328.392,1376.98 331.735,1373.04 335.077,1368.97 338.419,1364.82 341.761,1360.61 345.103,1356.36 348.445,1352.09 351.788,1347.82 355.13,1343.56 358.472,1339.31 361.814,1335.07 365.156,1330.86 368.499,1326.68 371.841,1322.53 375.183,1318.41 378.525,1314.32 381.867,1310.26 385.21,1306.24 388.552,1302.26 391.894,1298.31 395.236,1294.4 398.578,1290.52 401.92,1286.68 405.263,1282.87 408.605,1279.1 411.947,1275.37 415.289,1271.66 418.631,1268 421.974,1264.36 425.316,1260.76 428.658,1257.19 432,1253.66 435.342,1250.15 438.685,1246.68 442.027,1243.23 445.369,1239.82 448.711,1236.43 452.053,1233.08 455.395,1229.75 458.738,1226.45 462.08,1223.18 465.422,1219.93 468.764,1216.71 472.106,1213.52 475.449,1210.35 478.791,1207.21 482.133,1204.09 485.475,1201 488.817,1197.93 492.16,1194.88 495.502,1191.85 498.844,1188.85 502.186,1185.87 505.528,1182.91 508.871,1179.98 512.213,1177.06 515.555,1174.17 518.897,1171.29 522.239,1168.44 525.581,1165.6 528.924,1162.79 532.266,1159.99 535.608,1157.21 538.95,1154.45 542.292,1151.71 545.635,1148.99 548.977,1146.28 552.319,1143.59 555.661,1140.92 559.003,1138.26 562.346,1135.63 565.688,1133 569.03,1130.4 572.372,1127.81 575.714,1125.23 579.056,1122.67 582.399,1120.13 585.741,1117.6 589.083,1115.09 592.425,1112.59 595.767,1110.1 599.11,1107.63 602.452,1105.17 605.794,1102.73 609.136,1100.3 612.478,1097.88 615.821,1095.47 619.163,1093.08 622.505,1090.71 625.847,1088.34 629.189,1085.99 632.531,1083.65 635.874,1081.32 639.216,1079 642.558,1076.7 645.9,1074.41 649.242,1072.12 652.585,1069.85 655.927,1067.6 659.269,1065.35 662.611,1063.11 665.953,1060.89 669.296,1058.67 672.638,1056.47 675.98,1054.28 679.322,1052.09 682.664,1049.92 686.007,1047.76 689.349,1045.61 692.691,1043.46 696.033,1041.33 699.375,1039.21 702.717,1037.1 706.06,1034.99 709.402,1032.9 712.744,1030.81 716.086,1028.74 719.428,1026.67 722.771,1024.61 726.113,1022.56 729.455,1020.52 732.797,1018.49 736.139,1016.47 739.482,1014.46 742.824,1012.45 746.166,1010.45 749.508,1008.46 752.85,1006.48 756.192,1004.51 759.535,1002.55 762.877,1000.59 766.219,998.641 769.561,996.7 772.903,994.766 776.246,992.841 779.588,990.923 782.93,989.012 786.272,987.109 789.614,985.213 792.957,983.325 796.299,981.443 799.641,979.569 802.983,977.702 806.325,975.842 809.667,973.989 813.01,972.143 816.352,970.304 819.694,968.471 823.036,966.645 826.378,964.826 829.721,963.014 833.063,961.208 836.405,959.408 839.747,957.615 843.089,955.828 846.432,954.048 849.774,952.274 853.116,950.505 856.458,948.744 859.8,946.988 863.142,945.238 866.485,943.494 869.827,941.757 873.169,940.025 876.511,938.299 879.853,936.578 883.196,934.864 886.538,933.155 889.88,931.452 893.222,929.754 896.564,928.062 899.907,926.376 903.249,924.695 906.591,923.02 909.933,921.349 913.275,919.685 916.618,918.025 919.96,916.371 923.302,914.722 926.644,913.078 929.986,911.44 933.328,909.806 936.671,908.178 940.013,906.554 943.355,904.936 946.697,903.322 950.039,901.714 953.382,900.11 956.724,898.511 960.066,896.917 963.408,895.328 966.75,893.743 970.093,892.163 973.435,890.588 976.777,889.018 980.119,887.452 983.461,885.891 986.803,884.334 990.146,882.782 993.488,881.234 996.83,879.69 1000.17,878.151 1003.51,876.617 1006.86,875.087 1010.2,873.561 1013.54,872.039 1016.88,870.522 1020.23,869.009 1023.57,867.5 1026.91,865.995 1030.25,864.495 1033.59,862.998 1036.94,861.506 1040.28,860.018 1043.62,858.533 1046.96,857.053 1050.31,855.577 1053.65,854.105 1056.99,852.636 1060.33,851.172 1063.67,849.711 1067.02,848.255 1070.36,846.802 1073.7,845.353 1077.04,843.907 1080.38,842.466 1083.73,841.028 1087.07,839.594 1090.41,838.164 1093.75,836.737 1097.1,835.314 1100.44,833.895 1103.78,832.479 1107.12,831.066 1110.46,829.658 1113.81,828.253 1117.15,826.851 1120.49,825.453 1123.83,824.058 1127.18,822.667 1130.52,821.279 1133.86,819.895 1137.2,818.514 1140.54,817.136 1143.89,815.762 1147.23,814.391 1150.57,813.023 1153.91,811.659 1157.26,810.298 1160.6,808.94 1163.94,807.585 1167.28,806.234 1170.62,804.886 1173.97,803.54 1177.31,802.199 1180.65,800.86 1183.99,799.524 1187.33,798.192 1190.68,796.862 1194.02,795.536 1197.36,794.213 1200.7,792.892 1204.05,791.575 1207.39,790.261 1210.73,788.95 1214.07,787.641 1217.41,786.336 1220.76,785.034 1224.1,783.734 1227.44,782.438 1230.78,781.144 1234.13,779.853 1237.47,778.565 1240.81,777.28 1244.15,775.998 1247.49,774.718 1250.84,773.442 1254.18,772.168 1257.52,770.897 1260.86,769.628 1264.21,768.363 1267.55,767.1 1270.89,765.84 1274.23,764.582 1277.57,763.327 1280.92,762.075 1284.26,760.826 1287.6,759.579 1290.94,758.335 1294.28,757.093 1297.63,755.854 1300.97,754.617 1304.31,753.384 1307.65,752.152 1311,750.924 1314.34,749.697 1317.68,748.474 1321.02,747.253 1324.36,746.034 1327.71,744.818 1331.05,743.604 1334.39,742.393 1337.73,741.184 1341.08,739.978 1344.42,738.774 1347.76,737.572 1351.1,736.373 1354.44,735.176 1357.79,733.982 1361.13,732.79 1364.47,731.6 1367.81,730.413 1371.16,729.228 1374.5,728.046 1377.84,726.865 1381.18,725.687 1384.52,724.511 1387.87,723.338 1391.21,722.167 1394.55,720.998 1397.89,719.831 1401.23,718.667 1404.58,717.505 1407.92,716.345 1411.26,715.187 1414.6,714.031 1417.95,712.878 1421.29,711.727 1424.63,710.578 1427.97,709.431 1431.31,708.286 1434.66,707.143 1438,706.003 1441.34,704.864 1444.68,703.728 1448.03,702.594 1451.37,701.462 1454.71,700.332 1458.05,699.204 1461.39,698.078 1464.74,696.954 1468.08,695.832 1471.42,694.713 1474.76,693.595 1478.11,692.479 1481.45,691.366 1484.79,690.254 1488.13,689.144 1491.47,688.037 1494.82,686.931 1498.16,685.827 1501.5,684.725 1504.84,683.625 1508.18,682.527 1511.53,681.431 1514.87,680.337 1518.21,679.245 1521.55,678.155 1524.9,677.066 1528.24,675.98 1531.58,674.895 1534.92,673.813 1538.26,672.732 1541.61,671.653 1544.95,670.576 1548.29,669.5 1551.63,668.427 1554.98,667.355 1558.32,666.285 1561.66,665.218 1565,664.151 1568.34,663.087 1571.69,662.024 1575.03,660.964 1578.37,659.904 1581.71,658.847 1585.06,657.792 1588.4,656.738 1591.74,655.686 1595.08,654.636 1598.42,653.587 1601.77,652.54 1605.11,651.495 1608.45,650.452 1611.79,649.41 1615.13,648.37 1618.48,647.332 1621.82,646.296 1625.16,645.261 1628.5,644.227 1631.85,643.196 1635.19,642.166 1638.53,641.138 1641.87,640.111 1645.21,639.086 1648.56,638.063 1651.9,637.041 1655.24,636.021 1658.58,635.003 1661.93,633.986 1665.27,632.971 1668.61,631.957 1671.95,630.945 1675.29,629.935 1678.64,628.926 1681.98,627.919 1685.32,626.913 1688.66,625.909 1692.01,624.906 1695.35,623.905 1698.69,622.906 1702.03,621.908 1705.37,620.911 1708.72,619.916 1712.06,618.923 1715.4,617.931 1718.74,616.941 1722.08,615.952 1725.43,614.964 1728.77,613.979 1732.11,612.994 1735.45,612.011 1738.8,611.03 1742.14,610.05 1745.48,609.072 1748.82,608.095 1752.16,607.119 1755.51,606.145 1758.85,605.172 1762.19,604.201 1765.53,603.231 1768.88,602.263 1772.22,601.296 1775.56,600.331 1778.9,599.367 1782.24,598.404 1785.59,597.443 1788.93,596.483 1792.27,595.524 1795.61,594.567 1798.96,593.612 1802.3,592.657 1805.64,591.704 1808.98,590.753 1812.32,589.803 1815.67,588.854 1819.01,587.906 1822.35,586.96 1825.69,586.016 1829.03,585.072 1832.38,584.13 1835.72,583.189 1839.06,582.25 1842.4,581.312 1845.75,580.375 1849.09,579.44 1852.43,578.506 1855.77,577.573 1859.11,576.641 1862.46,575.711 1865.8,574.782 1869.14,573.854 1872.48,572.928 1875.83,572.003 1879.17,571.079 1882.51,570.157 1885.85,569.235 1889.19,568.315 1892.54,567.397 1895.88,566.479 1899.22,565.563 1902.56,564.648 1905.91,563.734 1909.25,562.822 1912.59,561.911 1915.93,561.001 1919.27,560.092 1922.62,559.184 1925.96,558.278 1929.3,557.373 1932.64,556.469 1935.99,555.566 1939.33,554.665 1942.67,553.765 1946.01,552.865 1949.35,551.968 1952.7,551.071 1956.04,550.175 1959.38,549.281 1962.72,548.388 1966.06,547.496 1969.41,546.605 1972.75,545.715 1976.09,544.827 1979.43,543.939 1982.78,543.053 1986.12,542.168 1989.46,541.284 1992.8,540.402 1996.14,539.52 1999.49,538.64 2002.83,537.76 2006.17,536.882 2009.51,536.005 2012.86,535.129 2016.2,534.254 2019.54,533.381 2022.88,532.508 2026.22,531.636 2029.57,530.766 2032.91,529.897 2036.25,529.029 2039.59,528.162 2042.94,527.296 2046.28,526.431 2049.62,525.567 2052.96,524.704 2056.3,523.843 2059.65,522.982 2062.99,522.123 2066.33,521.264 2069.67,520.407 2073.01,519.55 2076.36,518.695 2079.7,517.841 2083.04,516.988 2086.38,516.136 2089.73,515.285 2093.07,514.435 2096.41,513.586 2099.75,512.738 2103.09,511.891 2106.44,511.046 2109.78,510.201 2113.12,509.357 2116.46,508.514 2119.81,507.673 2123.15,506.832 2126.49,505.992 2129.83,505.153 2133.17,504.316 2136.52,503.479 2139.86,502.644 2143.2,501.809 2146.54,500.975 2149.89,500.143 2153.23,499.311 2156.57,498.48 2159.91,497.651 2163.25,496.822 2166.6,495.994 2169.94,495.167 2173.28,494.342 2176.62,493.517 2179.96,492.693 2183.31,491.87 2186.65,491.048 2189.99,490.227 2193.33,489.407 2196.68,488.588 2200.02,487.77 2203.36,486.953 2206.7,486.137 2210.04,485.322 2213.39,484.508 2216.73,483.694 2220.07,482.882 2223.41,482.07 2226.76,481.26 2230.1,480.45 2233.44,479.642 2236.78,478.834 2240.12,478.027 2243.47,477.221 2246.81,476.416 2250.15,475.612 2253.49,474.809 2256.84,474.007 2260.18,473.205 2263.52,472.405 2266.86,471.605 2270.2,470.807 2273.55,470.009 2276.89,469.212 2280.23,468.416 2283.57,467.621 2286.91,466.827 2290.26,466.034 2293.6,465.241 "></polyline>
<polyline clip-path="url(#clip272)" style="stroke:#c271d2; stroke-linecap:round; stroke-linejoin:round; stroke-width:4; stroke-opacity:1; fill:none" points="321.708,1384.24 325.05,1377.47 328.392,1370.49 331.735,1363.38 335.077,1356.21 338.419,1349.02 341.761,1341.84 345.103,1334.69 348.445,1327.59 351.788,1320.54 355.13,1313.56 358.472,1306.65 361.814,1299.82 365.156,1293.07 368.499,1286.39 371.841,1279.8 375.183,1273.28 378.525,1266.85 381.867,1260.5 385.21,1254.22 388.552,1248.02 391.894,1241.89 395.236,1235.84 398.578,1229.87 401.92,1223.96 405.263,1218.13 408.605,1212.36 411.947,1206.66 415.289,1201.02 418.631,1195.45 421.974,1189.94 425.316,1184.49 428.658,1179.1 432,1173.77 435.342,1168.5 438.685,1163.28 442.027,1158.12 445.369,1153.01 448.711,1147.95 452.053,1142.94 455.395,1137.98 458.738,1133.07 462.08,1128.21 465.422,1123.39 468.764,1118.62 472.106,1113.89 475.449,1109.21 478.791,1104.56 482.133,1099.97 485.475,1095.41 488.817,1090.89 492.16,1086.41 495.502,1081.97 498.844,1077.56 502.186,1073.2 505.528,1068.87 508.871,1064.57 512.213,1060.31 515.555,1056.08 518.897,1051.89 522.239,1047.73 525.581,1043.6 528.924,1039.51 532.266,1035.44 535.608,1031.41 538.95,1027.41 542.292,1023.43 545.635,1019.48 548.977,1015.57 552.319,1011.68 555.661,1007.82 559.003,1003.98 562.346,1000.17 565.688,996.393 569.03,992.637 572.372,988.907 575.714,985.202 579.056,981.521 582.399,977.864 585.741,974.231 589.083,970.622 592.425,967.035 595.767,963.472 599.11,959.931 602.452,956.411 605.794,952.914 609.136,949.438 612.478,945.983 615.821,942.549 619.163,939.136 622.505,935.743 625.847,932.369 629.189,929.016 632.531,925.682 635.874,922.366 639.216,919.07 642.558,915.793 645.9,912.533 649.242,909.292 652.585,906.069 655.927,902.864 659.269,899.675 662.611,896.505 665.953,893.351 669.296,890.213 672.638,887.093 675.98,883.989 679.322,880.901 682.664,877.828 686.007,874.772 689.349,871.731 692.691,868.706 696.033,865.696 699.375,862.7 702.717,859.72 706.06,856.754 709.402,853.803 712.744,850.866 716.086,847.943 719.428,845.034 722.771,842.139 726.113,839.258 729.455,836.391 732.797,833.536 736.139,830.695 739.482,827.867 742.824,825.052 746.166,822.25 749.508,819.46 752.85,816.683 756.192,813.918 759.535,811.166 762.877,808.426 766.219,805.698 769.561,802.981 772.903,800.277 776.246,797.584 779.588,794.902 782.93,792.232 786.272,789.574 789.614,786.926 792.957,784.29 796.299,781.664 799.641,779.049 802.983,776.445 806.325,773.852 809.667,771.27 813.01,768.697 816.352,766.135 819.694,763.584 823.036,761.042 826.378,758.511 829.721,755.989 833.063,753.477 836.405,750.975 839.747,748.483 843.089,746.001 846.432,743.527 849.774,741.064 853.116,738.609 856.458,736.164 859.8,733.728 863.142,731.301 866.485,728.884 869.827,726.475 873.169,724.075 876.511,721.683 879.853,719.301 883.196,716.927 886.538,714.561 889.88,712.204 893.222,709.856 896.564,707.516 899.907,705.184 903.249,702.86 906.591,700.544 909.933,698.237 913.275,695.937 916.618,693.646 919.96,691.362 923.302,689.086 926.644,686.818 929.986,684.557 933.328,682.304 936.671,680.059 940.013,677.821 943.355,675.591 946.697,673.368 950.039,671.152 953.382,668.944 956.724,666.742 960.066,664.548 963.408,662.361 966.75,660.181 970.093,658.008 973.435,655.842 976.777,653.683 980.119,651.531 983.461,649.385 986.803,647.246 990.146,645.114 993.488,642.989 996.83,640.87 1000.17,638.758 1003.51,636.652 1006.86,634.552 1010.2,632.459 1013.54,630.373 1016.88,628.292 1020.23,626.218 1023.57,624.15 1026.91,622.088 1030.25,620.033 1033.59,617.983 1036.94,615.94 1040.28,613.902 1043.62,611.871 1046.96,609.845 1050.31,607.826 1053.65,605.812 1056.99,603.804 1060.33,601.801 1063.67,599.805 1067.02,597.814 1070.36,595.828 1073.7,593.849 1077.04,591.875 1080.38,589.906 1083.73,587.943 1087.07,585.985 1090.41,584.033 1093.75,582.086 1097.1,580.145 1100.44,578.209 1103.78,576.278 1107.12,574.352 1110.46,572.432 1113.81,570.517 1117.15,568.607 1120.49,566.702 1123.83,564.802 1127.18,562.907 1130.52,561.017 1133.86,559.133 1137.2,557.253 1140.54,555.378 1143.89,553.508 1147.23,551.643 1150.57,549.783 1153.91,547.927 1157.26,546.076 1160.6,544.23 1163.94,542.389 1167.28,540.553 1170.62,538.721 1173.97,536.894 1177.31,535.071 1180.65,533.253 1183.99,531.44 1187.33,529.631 1190.68,527.826 1194.02,526.026 1197.36,524.231 1200.7,522.44 1204.05,520.653 1207.39,518.871 1210.73,517.093 1214.07,515.319 1217.41,513.55 1220.76,511.785 1224.1,510.024 1227.44,508.267 1230.78,506.515 1234.13,504.767 1237.47,503.023 1240.81,501.283 1244.15,499.547 1247.49,497.815 1250.84,496.088 1254.18,494.364 1257.52,492.645 1260.86,490.929 1264.21,489.217 1267.55,487.51 1270.89,485.806 1274.23,484.106 1277.57,482.41 1280.92,480.718 1284.26,479.03 1287.6,477.346 1290.94,475.665 1294.28,473.988 1297.63,472.315 1300.97,470.646 1304.31,468.98 1307.65,467.319 1311,465.661 1314.34,464.006 1317.68,462.355 1321.02,460.708 1324.36,459.065 1327.71,457.425 1331.05,455.788 1334.39,454.155 1337.73,452.526 1341.08,450.9 1344.42,449.278 1347.76,447.659 1351.1,446.044 1354.44,444.432 1357.79,442.824 1361.13,441.219 1364.47,439.617 1367.81,438.019 1371.16,436.424 1374.5,434.833 1377.84,433.244 1381.18,431.66 1384.52,430.078 1387.87,428.5 1391.21,426.925 1394.55,425.353 1397.89,423.784 1401.23,422.219 1404.58,420.657 1407.92,419.098 1411.26,417.543 1414.6,415.99 1417.95,414.441 1421.29,412.894 1424.63,411.351 1427.97,409.811 1431.31,408.274 1434.66,406.74 1438,405.209 1441.34,403.682 1444.68,402.157 1448.03,400.635 1451.37,399.116 1454.71,397.601 1458.05,396.088 1461.39,394.578 1464.74,393.071 1468.08,391.567 1471.42,390.066 1474.76,388.568 1478.11,387.073 1481.45,385.581 1484.79,384.091 1488.13,382.604 1491.47,381.121 1494.82,379.64 1498.16,378.162 1501.5,376.686 1504.84,375.214 1508.18,373.744 1511.53,372.277 1514.87,370.813 1518.21,369.351 1521.55,367.892 1524.9,366.436 1528.24,364.983 1531.58,363.532 1534.92,362.085 1538.26,360.639 1541.61,359.197 1544.95,357.757 1548.29,356.319 1551.63,354.885 1554.98,353.452 1558.32,352.023 1561.66,350.596 1565,349.172 1568.34,347.75 1571.69,346.331 1575.03,344.914 1578.37,343.5 1581.71,342.089 1585.06,340.679 1588.4,339.273 1591.74,337.869 1595.08,336.467 1598.42,335.068 1601.77,333.672 1605.11,332.277 1608.45,330.886 1611.79,329.496 1615.13,328.11 1618.48,326.725 1621.82,325.343 1625.16,323.963 1628.5,322.586 1631.85,321.211 1635.19,319.839 1638.53,318.469 1641.87,317.101 1645.21,315.735 1648.56,314.372 1651.9,313.011 1655.24,311.653 1658.58,310.297 1661.93,308.943 1665.27,307.591 1668.61,306.242 1671.95,304.895 1675.29,303.55 1678.64,302.207 1681.98,300.867 1685.32,299.529 1688.66,298.193 1692.01,296.859 1695.35,295.528 1698.69,294.199 1702.03,292.871 1705.37,291.547 1708.72,290.224 1712.06,288.903 1715.4,287.585 1718.74,286.269 1722.08,284.954 1725.43,283.642 1728.77,282.333 1732.11,281.025 1735.45,279.719 1738.8,278.416 1742.14,277.114 1745.48,275.815 1748.82,274.517 1752.16,273.222 1755.51,271.929 1758.85,270.638 1762.19,269.349 1765.53,268.062 1768.88,266.777 1772.22,265.494 1775.56,264.213 1778.9,262.934 1782.24,261.657 1785.59,260.382 1788.93,259.109 1792.27,257.838 1795.61,256.569 1798.96,255.301 1802.3,254.036 1805.64,252.773 1808.98,251.512 1812.32,250.253 1815.67,248.995 1819.01,247.74 1822.35,246.486 1825.69,245.235 1829.03,243.985 1832.38,242.737 1835.72,241.491 1839.06,240.247 1842.4,239.005 1845.75,237.764 1849.09,236.526 1852.43,235.289 1855.77,234.055 1859.11,232.822 1862.46,231.591 1865.8,230.361 1869.14,229.134 1872.48,227.908 1875.83,226.684 1879.17,225.462 1882.51,224.242 1885.85,223.024 1889.19,221.807 1892.54,220.592 1895.88,219.379 1899.22,218.168 1902.56,216.958 1905.91,215.751 1909.25,214.545 1912.59,213.34 1915.93,212.138 1919.27,210.937 1922.62,209.738 1925.96,208.54 1929.3,207.345 1932.64,206.151 1935.99,204.958 1939.33,203.768 1942.67,202.579 1946.01,201.392 1949.35,200.206 1952.7,199.023 1956.04,197.84 1959.38,196.66 1962.72,195.481 1966.06,194.304 1969.41,193.128 1972.75,191.955 1976.09,190.782 1979.43,189.612 1982.78,188.443 1986.12,187.275 1989.46,186.11 1992.8,184.945 1996.14,183.783 1999.49,182.622 2002.83,181.463 2006.17,180.305 2009.51,179.149 2012.86,177.994 2016.2,176.841 2019.54,175.69 2022.88,174.54 2026.22,173.392 2029.57,172.245 2032.91,171.1 2036.25,169.956 2039.59,168.814 2042.94,167.673 2046.28,166.534 2049.62,165.397 2052.96,164.261 2056.3,163.126 2059.65,161.993 2062.99,160.862 2066.33,159.732 2069.67,158.603 2073.01,157.476 2076.36,156.351 2079.7,155.227 2083.04,154.104 2086.38,152.983 2089.73,151.864 2093.07,150.746 2096.41,149.629 2099.75,148.514 2103.09,147.4 2106.44,146.288 2109.78,145.177 2113.12,144.068 2116.46,142.96 2119.81,141.853 2123.15,140.748 2126.49,139.644 2129.83,138.542 2133.17,137.441 2136.52,136.342 2139.86,135.244 2143.2,134.147 2146.54,133.052 2149.89,131.958 2153.23,130.866 2156.57,129.775 2159.91,128.685 2163.25,127.597 2166.6,126.51 2169.94,125.424 2173.28,124.34 2176.62,123.257 2179.96,122.176 2183.31,121.095 2186.65,120.017 2189.99,118.939 2193.33,117.863 2196.68,116.788 2200.02,115.715 2203.36,114.643 2206.7,113.572 2210.04,112.503 2213.39,111.435 2216.73,110.368 2220.07,109.302 2223.41,108.238 2226.76,107.175 2230.1,106.114 2233.44,105.053 2236.78,103.994 2240.12,102.937 2243.47,101.88 2246.81,100.825 2250.15,99.7712 2253.49,98.7186 2256.84,97.6673 2260.18,96.6173 2263.52,95.5685 2266.86,94.521 2270.2,93.4747 2273.55,92.4297 2276.89,91.3859 2280.23,90.3434 2283.57,89.3021 2286.91,88.2621 2290.26,87.2232 2293.6,86.1857 "></polyline>
<path clip-path="url(#clip270)" d="M332.225 352.309 L614.268 352.309 L614.268 93.1086 L332.225 93.1086  Z" fill="#ffffff" fill-rule="evenodd" fill-opacity="1"></path>
<polyline clip-path="url(#clip270)" style="stroke:#000000; stroke-linecap:round; stroke-linejoin:round; stroke-width:4; stroke-opacity:1; fill:none" points="332.225,352.309 614.268,352.309 614.268,93.1086 332.225,93.1086 332.225,352.309 "></polyline>
<polyline clip-path="url(#clip270)" style="stroke:#009af9; stroke-linecap:round; stroke-linejoin:round; stroke-width:4; stroke-opacity:1; fill:none" points="355.449,144.949 494.796,144.949 "></polyline>
<path clip-path="url(#clip270)" d="M550.929 160.723 Q550.929 161.168 550.742 161.402 Q550.578 161.613 550.414 161.66 Q550.273 161.683 550.063 161.683 Q549.454 161.683 547.346 161.613 Q545.238 161.542 544.629 161.542 Q543.645 161.542 541.631 161.613 Q539.616 161.683 538.632 161.683 Q537.977 161.683 537.977 161.144 Q537.977 160.793 538.047 160.606 Q538.117 160.395 538.305 160.324 Q538.515 160.231 538.632 160.231 Q538.773 160.207 539.124 160.207 Q539.593 160.207 540.085 160.161 Q540.576 160.09 541.185 159.95 Q541.794 159.809 542.169 159.458 Q542.567 159.107 542.567 158.615 Q542.567 158.404 542.403 156.671 Q542.239 154.937 542.029 152.923 Q541.818 150.885 541.794 150.604 L529.755 150.604 Q528.654 152.501 527.882 153.813 Q527.109 155.125 526.828 155.57 Q526.546 156.015 526.382 156.296 Q526.219 156.577 526.125 156.741 Q525.446 157.982 525.446 158.521 Q525.446 160.02 527.694 160.207 Q528.467 160.207 528.467 160.77 Q528.467 161.191 528.28 161.425 Q528.092 161.636 527.928 161.66 Q527.788 161.683 527.554 161.683 Q526.781 161.683 525.165 161.613 Q523.548 161.542 522.752 161.542 Q522.073 161.542 520.667 161.613 Q519.262 161.683 518.63 161.683 Q518.349 161.683 518.185 161.519 Q518.021 161.355 518.021 161.144 Q518.021 160.816 518.068 160.629 Q518.138 160.442 518.325 160.348 Q518.513 160.254 518.606 160.254 Q518.7 160.231 519.028 160.207 Q520.808 160.09 522.19 159.247 Q523.595 158.38 524.93 156.155 L541.607 128.142 Q541.771 127.861 541.888 127.72 Q542.005 127.58 542.239 127.463 Q542.497 127.346 542.872 127.346 Q543.457 127.346 543.575 127.533 Q543.692 127.697 543.762 128.493 L546.69 158.474 Q546.76 159.107 546.807 159.364 Q546.877 159.598 547.182 159.856 Q547.51 160.09 548.095 160.161 Q548.704 160.207 549.828 160.207 Q550.25 160.207 550.414 160.231 Q550.578 160.231 550.742 160.348 Q550.929 160.465 550.929 160.723 M541.654 149.105 L540.131 133.295 L530.669 149.105 L541.654 149.105 Z" fill="#000000" fill-rule="nonzero" fill-opacity="1"></path><path clip-path="url(#clip270)" d="M572.412 143.601 Q572.412 144.842 571.592 145.639 Q570.796 146.435 569.765 146.435 Q568.875 146.435 568.407 145.92 Q567.938 145.404 567.938 144.749 Q567.938 143.812 568.664 143.039 Q569.391 142.266 570.445 142.102 Q569.672 141.54 568.43 141.54 Q566.392 141.54 564.589 143.109 Q563.793 143.835 562.926 145.17 Q562.059 146.482 561.895 147.044 L560.373 153.298 Q560.232 154 559.366 157.373 Q558.522 160.723 558.452 160.863 Q558.218 161.519 557.703 161.87 Q557.187 162.222 556.672 162.222 Q556.087 162.222 555.688 161.87 Q555.29 161.519 555.29 160.91 Q555.29 160.816 555.36 160.465 Q555.431 160.114 555.548 159.622 Q555.665 159.13 555.712 158.849 L558.499 147.77 Q559.014 145.756 559.131 145.123 Q559.272 144.467 559.272 143.741 Q559.272 142.477 558.874 142.008 Q558.476 141.54 557.773 141.54 Q556.555 141.54 555.759 142.992 Q554.962 144.444 554.283 147.255 Q554.072 148.028 553.932 148.192 Q553.815 148.356 553.463 148.356 Q552.878 148.332 552.878 147.864 Q552.878 147.747 553.065 146.997 Q553.252 146.224 553.604 145.1 Q553.979 143.952 554.377 143.226 Q554.611 142.734 554.822 142.406 Q555.033 142.078 555.454 141.563 Q555.876 141.048 556.508 140.767 Q557.141 140.486 557.914 140.486 Q559.6 140.486 560.794 141.516 Q562.012 142.547 562.294 144.163 Q562.879 143.32 563.605 142.594 Q564.331 141.844 565.666 141.165 Q567.001 140.486 568.43 140.486 Q570.21 140.486 571.311 141.399 Q572.412 142.289 572.412 143.601 Z" fill="#000000" fill-rule="nonzero" fill-opacity="1"></path><polyline clip-path="url(#clip270)" style="stroke:#e26f46; stroke-linecap:round; stroke-linejoin:round; stroke-width:4; stroke-opacity:1; fill:none" points="355.449,196.789 494.796,196.789 "></polyline>
<path clip-path="url(#clip270)" d="M550.929 212.563 Q550.929 213.008 550.742 213.242 Q550.578 213.453 550.414 213.5 Q550.273 213.523 550.063 213.523 Q549.454 213.523 547.346 213.453 Q545.238 213.382 544.629 213.382 Q543.645 213.382 541.631 213.453 Q539.616 213.523 538.632 213.523 Q537.977 213.523 537.977 212.984 Q537.977 212.633 538.047 212.446 Q538.117 212.235 538.305 212.164 Q538.515 212.071 538.632 212.071 Q538.773 212.047 539.124 212.047 Q539.593 212.047 540.085 212.001 Q540.576 211.93 541.185 211.79 Q541.794 211.649 542.169 211.298 Q542.567 210.947 542.567 210.455 Q542.567 210.244 542.403 208.511 Q542.239 206.777 542.029 204.763 Q541.818 202.725 541.794 202.444 L529.755 202.444 Q528.654 204.341 527.882 205.653 Q527.109 206.965 526.828 207.41 Q526.546 207.855 526.382 208.136 Q526.219 208.417 526.125 208.581 Q525.446 209.822 525.446 210.361 Q525.446 211.86 527.694 212.047 Q528.467 212.047 528.467 212.61 Q528.467 213.031 528.28 213.265 Q528.092 213.476 527.928 213.5 Q527.788 213.523 527.554 213.523 Q526.781 213.523 525.165 213.453 Q523.548 213.382 522.752 213.382 Q522.073 213.382 520.667 213.453 Q519.262 213.523 518.63 213.523 Q518.349 213.523 518.185 213.359 Q518.021 213.195 518.021 212.984 Q518.021 212.656 518.068 212.469 Q518.138 212.282 518.325 212.188 Q518.513 212.094 518.606 212.094 Q518.7 212.071 519.028 212.047 Q520.808 211.93 522.19 211.087 Q523.595 210.22 524.93 207.995 L541.607 179.982 Q541.771 179.701 541.888 179.56 Q542.005 179.42 542.239 179.303 Q542.497 179.186 542.872 179.186 Q543.457 179.186 543.575 179.373 Q543.692 179.537 543.762 180.333 L546.69 210.314 Q546.76 210.947 546.807 211.204 Q546.877 211.438 547.182 211.696 Q547.51 211.93 548.095 212.001 Q548.704 212.047 549.828 212.047 Q550.25 212.047 550.414 212.071 Q550.578 212.071 550.742 212.188 Q550.929 212.305 550.929 212.563 M541.654 200.945 L540.131 185.135 L530.669 200.945 L541.654 200.945 Z" fill="#000000" fill-rule="nonzero" fill-opacity="1"></path><path clip-path="url(#clip270)" d="M565.128 183.542 Q565.128 184.573 564.284 185.346 Q563.465 186.095 562.575 186.095 Q561.755 186.095 561.239 185.603 Q560.748 185.088 560.748 184.362 Q560.748 183.402 561.567 182.605 Q562.387 181.809 563.348 181.809 Q564.144 181.809 564.636 182.301 Q565.128 182.793 565.128 183.542 M565.549 206.66 Q565.549 206.848 565.338 207.597 Q565.128 208.323 564.612 209.447 Q564.12 210.548 563.441 211.579 Q562.762 212.61 561.638 213.336 Q560.537 214.062 559.272 214.062 Q557.562 214.062 556.438 212.937 Q555.337 211.813 555.337 210.127 Q555.337 209.213 556.438 206.285 Q559.623 197.76 559.74 197.408 Q560.279 196.073 560.279 194.902 Q560.279 194.363 560.162 194.036 Q560.045 193.684 559.811 193.567 Q559.577 193.427 559.436 193.403 Q559.319 193.38 559.085 193.38 Q557.703 193.38 556.414 194.785 Q555.126 196.19 554.236 199.329 Q554.049 199.915 553.932 200.055 Q553.815 200.196 553.463 200.196 Q552.878 200.172 552.878 199.704 Q552.878 199.563 553.042 199.025 Q553.206 198.462 553.51 197.619 Q553.815 196.753 554.353 195.862 Q554.892 194.949 555.548 194.153 Q556.227 193.356 557.187 192.841 Q558.148 192.326 559.225 192.326 Q560.982 192.326 562.059 193.473 Q563.16 194.598 563.16 196.261 Q563.16 197.174 562.528 198.79 Q561.755 200.898 561.474 201.578 L559.6 206.613 Q558.921 208.44 558.71 209.002 Q558.522 209.541 558.359 210.197 Q558.218 210.829 558.218 211.415 Q558.218 212.235 558.476 212.61 Q558.757 212.984 559.366 212.984 Q561.052 212.984 562.294 211.321 Q563.535 209.635 564.261 207.058 Q564.284 206.988 564.308 206.871 Q564.495 206.285 564.683 206.215 Q564.776 206.192 564.964 206.192 Q565.549 206.192 565.549 206.66 Z" fill="#000000" fill-rule="nonzero" fill-opacity="1"></path><path clip-path="url(#clip270)" d="M589.171 195.441 Q589.171 196.682 588.351 197.479 Q587.554 198.275 586.524 198.275 Q585.634 198.275 585.165 197.76 Q584.697 197.244 584.697 196.589 Q584.697 195.652 585.423 194.879 Q586.149 194.106 587.203 193.942 Q586.43 193.38 585.189 193.38 Q583.151 193.38 581.347 194.949 Q580.551 195.675 579.684 197.01 Q578.818 198.322 578.654 198.884 L577.131 205.138 Q576.991 205.84 576.124 209.213 Q575.281 212.563 575.211 212.703 Q574.977 213.359 574.461 213.71 Q573.946 214.062 573.431 214.062 Q572.845 214.062 572.447 213.71 Q572.049 213.359 572.049 212.75 Q572.049 212.656 572.119 212.305 Q572.189 211.954 572.306 211.462 Q572.423 210.97 572.47 210.689 L575.258 199.61 Q575.773 197.596 575.89 196.963 Q576.031 196.307 576.031 195.581 Q576.031 194.317 575.632 193.848 Q575.234 193.38 574.531 193.38 Q573.314 193.38 572.517 194.832 Q571.721 196.284 571.042 199.095 Q570.831 199.868 570.69 200.032 Q570.573 200.196 570.222 200.196 Q569.636 200.172 569.636 199.704 Q569.636 199.587 569.824 198.837 Q570.011 198.064 570.362 196.94 Q570.737 195.792 571.135 195.066 Q571.369 194.574 571.58 194.246 Q571.791 193.918 572.213 193.403 Q572.634 192.888 573.267 192.607 Q573.899 192.326 574.672 192.326 Q576.358 192.326 577.553 193.356 Q578.771 194.387 579.052 196.003 Q579.638 195.16 580.364 194.434 Q581.09 193.684 582.425 193.005 Q583.76 192.326 585.189 192.326 Q586.969 192.326 588.07 193.239 Q589.171 194.129 589.171 195.441 Z" fill="#000000" fill-rule="nonzero" fill-opacity="1"></path><polyline clip-path="url(#clip270)" style="stroke:#3da44d; stroke-linecap:round; stroke-linejoin:round; stroke-width:4; stroke-opacity:1; fill:none" points="355.449,248.629 494.796,248.629 "></polyline>
<path clip-path="url(#clip270)" d="M558.401 232.36 Q558.401 233.04 558.096 233.18 Q557.815 233.321 556.785 233.321 Q555.028 233.321 554.232 233.555 Q553.459 233.766 553.225 234.14 Q553.014 234.492 552.756 235.522 L546.268 261.428 Q546.268 261.451 546.198 261.779 Q546.128 262.083 546.128 262.247 Q546.128 262.552 546.315 262.739 Q546.526 262.927 547.041 263.02 Q547.556 263.091 547.955 263.114 Q548.376 263.114 549.243 263.114 Q550.32 263.114 550.484 263.301 Q550.578 263.418 550.578 263.629 Q550.578 264.074 550.391 264.308 Q550.227 264.519 550.063 264.566 Q549.922 264.59 549.641 264.59 Q549.149 264.59 548.095 264.543 Q547.041 264.496 546.502 264.496 L543.434 264.449 L537.344 264.59 Q536.688 264.59 536.688 264.051 Q536.688 263.582 536.852 263.372 Q537.016 263.161 537.18 263.137 Q537.368 263.114 537.836 263.114 Q540.249 263.114 541.045 262.88 Q541.865 262.622 542.193 261.521 L545.495 248.288 L530.88 248.288 L527.6 261.428 Q527.6 261.451 527.53 261.779 Q527.46 262.083 527.46 262.247 Q527.46 262.552 527.647 262.739 Q527.858 262.927 528.373 263.02 Q528.889 263.091 529.287 263.114 Q529.708 263.114 530.575 263.114 Q531.653 263.114 531.84 263.301 Q531.934 263.418 531.934 263.629 Q531.934 263.957 531.84 264.191 Q531.77 264.402 531.582 264.472 Q531.418 264.543 531.301 264.566 Q531.184 264.59 530.973 264.59 Q530.481 264.59 529.427 264.543 Q528.397 264.496 527.858 264.496 L524.79 264.449 L518.7 264.59 Q518.021 264.59 518.021 264.051 Q518.021 263.582 518.185 263.395 Q518.349 263.184 518.559 263.161 Q518.77 263.114 519.309 263.114 Q520.48 263.114 521.183 263.044 Q521.885 262.973 522.33 262.88 Q522.799 262.763 523.033 262.435 Q523.291 262.107 523.408 261.826 Q523.525 261.521 523.689 260.842 L530.107 235.077 Q530.294 234.304 530.294 234.187 Q530.294 233.742 530.013 233.625 Q529.755 233.485 529.006 233.414 L527.179 233.321 Q526.617 233.321 526.382 233.297 Q526.172 233.274 526.008 233.157 Q525.844 233.04 525.844 232.782 Q525.844 232.454 525.914 232.243 Q526.008 232.009 526.172 231.939 Q526.336 231.868 526.453 231.845 Q526.57 231.822 526.757 231.822 L532.941 231.962 L539.077 231.822 Q539.757 231.822 539.757 232.36 Q539.757 233.04 539.452 233.18 Q539.148 233.321 538.117 233.321 Q536.407 233.321 535.611 233.555 Q534.815 233.766 534.557 234.14 Q534.323 234.515 534.088 235.522 L531.254 246.788 L545.893 246.788 L548.774 235.077 Q548.962 234.234 548.962 234.187 Q548.962 233.742 548.681 233.625 Q548.423 233.485 547.673 233.414 L545.847 233.321 Q545.284 233.321 545.05 233.297 Q544.839 233.274 544.652 233.157 Q544.488 233.04 544.488 232.782 Q544.488 232.454 544.558 232.243 Q544.652 232.009 544.816 231.939 Q544.98 231.868 545.097 231.845 Q545.214 231.822 545.402 231.822 L551.585 231.962 L557.745 231.822 Q558.401 231.822 558.401 232.36 Z" fill="#000000" fill-rule="nonzero" fill-opacity="1"></path><path clip-path="url(#clip270)" d="M578.791 259.038 Q578.978 259.249 578.978 259.46 Q578.978 259.671 578.51 260.28 Q578.065 260.889 577.104 261.709 Q576.144 262.528 574.903 263.301 Q573.661 264.074 571.834 264.59 Q570.007 265.128 568.087 265.128 Q564.644 265.128 562.582 262.669 Q560.545 260.21 560.545 256.439 Q560.545 254.026 561.341 251.895 Q562.137 249.74 563.426 248.217 Q564.737 246.695 566.377 245.594 Q568.04 244.47 569.773 243.931 Q571.506 243.392 573.122 243.392 Q575.488 243.392 576.87 244.587 Q578.252 245.781 578.252 247.468 Q578.252 247.866 578.135 248.358 Q578.041 248.85 577.713 249.623 Q577.409 250.396 576.612 251.168 Q575.816 251.918 574.645 252.41 Q572.045 253.511 567.314 253.511 L564.761 253.511 Q564.011 256.532 564.011 258.5 Q564.011 259.273 564.152 260.069 Q564.292 260.842 564.667 261.826 Q565.065 262.809 565.955 263.442 Q566.869 264.051 568.18 264.051 Q568.602 264.051 569.047 264.027 Q569.515 264.004 570.687 263.746 Q571.881 263.489 572.935 263.044 Q573.989 262.599 575.324 261.638 Q576.683 260.655 577.76 259.32 Q578.135 258.828 578.392 258.828 Q578.603 258.828 578.791 259.038 M576.659 247.468 Q576.659 246.18 575.699 245.313 Q574.762 244.446 573.122 244.446 Q572.607 244.446 571.975 244.563 Q571.342 244.68 570.288 245.172 Q569.258 245.664 568.344 246.484 Q567.431 247.28 566.517 248.85 Q565.604 250.396 565.065 252.457 L567.033 252.457 Q567.712 252.457 568.204 252.457 Q568.696 252.433 569.773 252.34 Q570.874 252.246 571.67 252.082 Q572.467 251.895 573.474 251.52 Q574.481 251.145 575.113 250.653 Q575.769 250.138 576.214 249.318 Q576.659 248.498 576.659 247.468 Z" fill="#000000" fill-rule="nonzero" fill-opacity="1"></path><polyline clip-path="url(#clip270)" style="stroke:#c271d2; stroke-linecap:round; stroke-linejoin:round; stroke-width:4; stroke-opacity:1; fill:none" points="355.449,300.469 494.796,300.469 "></polyline>
<path clip-path="url(#clip270)" d="M558.401 277.821 Q558.401 278.501 558.096 278.641 Q557.815 278.782 556.785 278.782 Q555.028 278.782 554.232 279.016 Q553.459 279.227 553.225 279.601 Q553.014 279.953 552.756 280.983 L546.268 306.889 Q546.268 306.912 546.198 307.24 Q546.128 307.544 546.128 307.708 Q546.128 308.013 546.315 308.2 Q546.526 308.388 547.041 308.481 Q547.556 308.552 547.955 308.575 Q548.376 308.575 549.243 308.575 Q550.32 308.575 550.484 308.762 Q550.578 308.88 550.578 309.09 Q550.578 309.535 550.391 309.77 Q550.227 309.98 550.063 310.027 Q549.922 310.051 549.641 310.051 Q549.149 310.051 548.095 310.004 Q547.041 309.957 546.502 309.957 L543.434 309.91 L537.344 310.051 Q536.688 310.051 536.688 309.512 Q536.688 309.043 536.852 308.833 Q537.016 308.622 537.18 308.598 Q537.368 308.575 537.836 308.575 Q540.249 308.575 541.045 308.341 Q541.865 308.083 542.193 306.982 L545.495 293.749 L530.88 293.749 L527.6 306.889 Q527.6 306.912 527.53 307.24 Q527.46 307.544 527.46 307.708 Q527.46 308.013 527.647 308.2 Q527.858 308.388 528.373 308.481 Q528.889 308.552 529.287 308.575 Q529.708 308.575 530.575 308.575 Q531.653 308.575 531.84 308.762 Q531.934 308.88 531.934 309.09 Q531.934 309.418 531.84 309.652 Q531.77 309.863 531.582 309.934 Q531.418 310.004 531.301 310.027 Q531.184 310.051 530.973 310.051 Q530.481 310.051 529.427 310.004 Q528.397 309.957 527.858 309.957 L524.79 309.91 L518.7 310.051 Q518.021 310.051 518.021 309.512 Q518.021 309.043 518.185 308.856 Q518.349 308.645 518.559 308.622 Q518.77 308.575 519.309 308.575 Q520.48 308.575 521.183 308.505 Q521.885 308.435 522.33 308.341 Q522.799 308.224 523.033 307.896 Q523.291 307.568 523.408 307.287 Q523.525 306.982 523.689 306.303 L530.107 280.538 Q530.294 279.765 530.294 279.648 Q530.294 279.203 530.013 279.086 Q529.755 278.946 529.006 278.875 L527.179 278.782 Q526.617 278.782 526.382 278.758 Q526.172 278.735 526.008 278.618 Q525.844 278.501 525.844 278.243 Q525.844 277.915 525.914 277.704 Q526.008 277.47 526.172 277.4 Q526.336 277.329 526.453 277.306 Q526.57 277.283 526.757 277.283 L532.941 277.423 L539.077 277.283 Q539.757 277.283 539.757 277.821 Q539.757 278.501 539.452 278.641 Q539.148 278.782 538.117 278.782 Q536.407 278.782 535.611 279.016 Q534.815 279.227 534.557 279.601 Q534.323 279.976 534.088 280.983 L531.254 292.25 L545.893 292.25 L548.774 280.538 Q548.962 279.695 548.962 279.648 Q548.962 279.203 548.681 279.086 Q548.423 278.946 547.673 278.875 L545.847 278.782 Q545.284 278.782 545.05 278.758 Q544.839 278.735 544.652 278.618 Q544.488 278.501 544.488 278.243 Q544.488 277.915 544.558 277.704 Q544.652 277.47 544.816 277.4 Q544.98 277.329 545.097 277.306 Q545.214 277.283 545.402 277.283 L551.585 277.423 L557.745 277.283 Q558.401 277.283 558.401 277.821 Z" fill="#000000" fill-rule="nonzero" fill-opacity="1"></path><path clip-path="url(#clip270)" d="M563.125 323.34 Q563.125 322.733 563.174 322.553 Q563.24 322.372 563.502 322.094 L569.946 314.912 Q573.471 310.945 573.471 307.485 Q573.471 305.239 572.29 303.632 Q571.126 302.025 568.978 302.025 Q567.503 302.025 566.257 302.927 Q565.011 303.829 564.437 305.436 Q564.535 305.403 564.879 305.403 Q565.716 305.403 566.175 305.927 Q566.65 306.452 566.65 307.157 Q566.65 308.059 566.06 308.502 Q565.486 308.928 564.912 308.928 Q564.683 308.928 564.371 308.879 Q564.076 308.83 563.601 308.37 Q563.125 307.895 563.125 307.059 Q563.125 304.714 564.896 302.845 Q566.683 300.976 569.405 300.976 Q572.487 300.976 574.504 302.812 Q576.537 304.632 576.537 307.485 Q576.537 308.485 576.225 309.403 Q575.93 310.305 575.52 311.01 Q575.127 311.715 574.045 312.846 Q572.962 313.978 572.094 314.781 Q571.225 315.585 569.273 317.29 L565.716 320.749 L571.766 320.749 Q574.717 320.749 574.946 320.487 Q575.274 320.011 575.684 317.503 L576.537 317.503 L575.586 323.34 L563.125 323.34 Z" fill="#000000" fill-rule="nonzero" fill-opacity="1"></path></svg>