<svg xmlns="http://www.w3.org/2000/svg" xmlns:xlink="http://www.w3.org/1999/xlink" width="600" height="400" viewBox="0 0 2400 1600">
<defs>
  <clipPath id="clip620">
    <rect x="0" y="0" width="2400" height="1600"></rect>
  </clipPath>
</defs>
<path clip-path="url(#clip620)" d="
M0 1600 L2400 1600 L2400 0 L0 0  Z
  " fill="#ffffff" fill-rule="evenodd" fill-opacity="1"></path>
<defs>
  <clipPath id="clip621">
    <rect x="480" y="0" width="1681" height="1600"></rect>
  </clipPath>
</defs>
<defs>
  <clipPath id="clip622">
    <rect x="219" y="47" width="2134" height="1377"></rect>
  </clipPath>
</defs>
<path clip-path="url(#clip620)" d="
M219.866 1423.18 L2352.76 1423.18 L2352.76 47.2441 L219.866 47.2441  Z
  " fill="#ffffff" fill-rule="evenodd" fill-opacity="1"></path>
<polyline clip-path="url(#clip622)" style="stroke:#000000; stroke-linecap:round; stroke-linejoin:round; stroke-width:2; stroke-opacity:0.1; fill:none" points="
  246.127,1423.18 246.127,47.2441 
  "></polyline>
<polyline clip-path="url(#clip622)" style="stroke:#000000; stroke-linecap:round; stroke-linejoin:round; stroke-width:2; stroke-opacity:0.1; fill:none" points="
  587.171,1423.18 587.171,47.2441 
  "></polyline>
<polyline clip-path="url(#clip622)" style="stroke:#000000; stroke-linecap:round; stroke-linejoin:round; stroke-width:2; stroke-opacity:0.1; fill:none" points="
  928.215,1423.18 928.215,47.2441 
  "></polyline>
<polyline clip-path="url(#clip622)" style="stroke:#000000; stroke-linecap:round; stroke-linejoin:round; stroke-width:2; stroke-opacity:0.1; fill:none" points="
  1269.26,1423.18 1269.26,47.2441 
  "></polyline>
<polyline clip-path="url(#clip622)" style="stroke:#000000; stroke-linecap:round; stroke-linejoin:round; stroke-width:2; stroke-opacity:0.1; fill:none" points="
  1610.3,1423.18 1610.3,47.2441 
  "></polyline>
<polyline clip-path="url(#clip622)" style="stroke:#000000; stroke-linecap:round; stroke-linejoin:round; stroke-width:2; stroke-opacity:0.1; fill:none" points="
  1951.35,1423.18 1951.35,47.2441 
  "></polyline>
<polyline clip-path="url(#clip622)" style="stroke:#000000; stroke-linecap:round; stroke-linejoin:round; stroke-width:2; stroke-opacity:0.1; fill:none" points="
  2292.39,1423.18 2292.39,47.2441 
  "></polyline>
<polyline clip-path="url(#clip620)" style="stroke:#000000; stroke-linecap:round; stroke-linejoin:round; stroke-width:4; stroke-opacity:1; fill:none" points="
  219.866,1423.18 2352.76,1423.18 
  "></polyline>
<polyline clip-path="url(#clip620)" style="stroke:#000000; stroke-linecap:round; stroke-linejoin:round; stroke-width:4; stroke-opacity:1; fill:none" points="
  246.127,1423.18 246.127,1404.28 
  "></polyline>
<polyline clip-path="url(#clip620)" style="stroke:#000000; stroke-linecap:round; stroke-linejoin:round; stroke-width:4; stroke-opacity:1; fill:none" points="
  587.171,1423.18 587.171,1404.28 
  "></polyline>
<polyline clip-path="url(#clip620)" style="stroke:#000000; stroke-linecap:round; stroke-linejoin:round; stroke-width:4; stroke-opacity:1; fill:none" points="
  928.215,1423.18 928.215,1404.28 
  "></polyline>
<polyline clip-path="url(#clip620)" style="stroke:#000000; stroke-linecap:round; stroke-linejoin:round; stroke-width:4; stroke-opacity:1; fill:none" points="
  1269.26,1423.18 1269.26,1404.28 
  "></polyline>
<polyline clip-path="url(#clip620)" style="stroke:#000000; stroke-linecap:round; stroke-linejoin:round; stroke-width:4; stroke-opacity:1; fill:none" points="
  1610.3,1423.18 1610.3,1404.28 
  "></polyline>
<polyline clip-path="url(#clip620)" style="stroke:#000000; stroke-linecap:round; stroke-linejoin:round; stroke-width:4; stroke-opacity:1; fill:none" points="
  1951.35,1423.18 1951.35,1404.28 
  "></polyline>
<polyline clip-path="url(#clip620)" style="stroke:#000000; stroke-linecap:round; stroke-linejoin:round; stroke-width:4; stroke-opacity:1; fill:none" points="
  2292.39,1423.18 2292.39,1404.28 
  "></polyline>
<path clip-path="url(#clip620)" d="M246.127 1454.1 Q242.516 1454.1 240.687 1457.66 Q238.881 1461.2 238.881 1468.33 Q238.881 1475.44 240.687 1479.01 Q242.516 1482.55 246.127 1482.55 Q249.761 1482.55 251.566 1479.01 Q253.395 1475.44 253.395 1468.33 Q253.395 1461.2 251.566 1457.66 Q249.761 1454.1 246.127 1454.1 M246.127 1450.39 Q251.937 1450.39 254.992 1455 Q258.071 1459.58 258.071 1468.33 Q258.071 1477.06 254.992 1481.67 Q251.937 1486.25 246.127 1486.25 Q240.317 1486.25 237.238 1481.67 Q234.182 1477.06 234.182 1468.33 Q234.182 1459.58 237.238 1455 Q240.317 1450.39 246.127 1450.39 Z" fill="#000000" fill-rule="evenodd" fill-opacity="1"></path><path clip-path="url(#clip620)" d="M561.858 1481.64 L569.497 1481.64 L569.497 1455.28 L561.187 1456.95 L561.187 1452.69 L569.451 1451.02 L574.127 1451.02 L574.127 1481.64 L581.766 1481.64 L581.766 1485.58 L561.858 1485.58 L561.858 1481.64 Z" fill="#000000" fill-rule="evenodd" fill-opacity="1"></path><path clip-path="url(#clip620)" d="M601.21 1454.1 Q597.599 1454.1 595.77 1457.66 Q593.965 1461.2 593.965 1468.33 Q593.965 1475.44 595.77 1479.01 Q597.599 1482.55 601.21 1482.55 Q604.844 1482.55 606.65 1479.01 Q608.478 1475.44 608.478 1468.33 Q608.478 1461.2 606.65 1457.66 Q604.844 1454.1 601.21 1454.1 M601.21 1450.39 Q607.02 1450.39 610.076 1455 Q613.154 1459.58 613.154 1468.33 Q613.154 1477.06 610.076 1481.67 Q607.02 1486.25 601.21 1486.25 Q595.4 1486.25 592.321 1481.67 Q589.266 1477.06 589.266 1468.33 Q589.266 1459.58 592.321 1455 Q595.4 1450.39 601.21 1450.39 Z" fill="#000000" fill-rule="evenodd" fill-opacity="1"></path><path clip-path="url(#clip620)" d="M906.988 1481.64 L923.307 1481.64 L923.307 1485.58 L901.363 1485.58 L901.363 1481.64 Q904.025 1478.89 908.608 1474.26 Q913.215 1469.61 914.395 1468.27 Q916.641 1465.74 917.52 1464.01 Q918.423 1462.25 918.423 1460.56 Q918.423 1457.8 916.479 1456.07 Q914.557 1454.33 911.456 1454.33 Q909.257 1454.33 906.803 1455.09 Q904.372 1455.86 901.595 1457.41 L901.595 1452.69 Q904.419 1451.55 906.872 1450.97 Q909.326 1450.39 911.363 1450.39 Q916.733 1450.39 919.928 1453.08 Q923.122 1455.77 923.122 1460.26 Q923.122 1462.39 922.312 1464.31 Q921.525 1466.2 919.419 1468.8 Q918.84 1469.47 915.738 1472.69 Q912.636 1475.88 906.988 1481.64 Z" fill="#000000" fill-rule="evenodd" fill-opacity="1"></path><path clip-path="url(#clip620)" d="M943.122 1454.1 Q939.511 1454.1 937.682 1457.66 Q935.877 1461.2 935.877 1468.33 Q935.877 1475.44 937.682 1479.01 Q939.511 1482.55 943.122 1482.55 Q946.756 1482.55 948.562 1479.01 Q950.391 1475.44 950.391 1468.33 Q950.391 1461.2 948.562 1457.66 Q946.756 1454.1 943.122 1454.1 M943.122 1450.39 Q948.932 1450.39 951.988 1455 Q955.067 1459.58 955.067 1468.33 Q955.067 1477.06 951.988 1481.67 Q948.932 1486.25 943.122 1486.25 Q937.312 1486.25 934.233 1481.67 Q931.178 1477.06 931.178 1468.33 Q931.178 1459.58 934.233 1455 Q937.312 1450.39 943.122 1450.39 Z" fill="#000000" fill-rule="evenodd" fill-opacity="1"></path><path clip-path="url(#clip620)" d="M1258.1 1466.95 Q1261.46 1467.66 1263.33 1469.93 Q1265.23 1472.2 1265.23 1475.53 Q1265.23 1480.65 1261.71 1483.45 Q1258.19 1486.25 1251.71 1486.25 Q1249.54 1486.25 1247.22 1485.81 Q1244.93 1485.39 1242.48 1484.54 L1242.48 1480.02 Q1244.42 1481.16 1246.74 1481.74 Q1249.05 1482.32 1251.57 1482.32 Q1255.97 1482.32 1258.26 1480.58 Q1260.58 1478.84 1260.58 1475.53 Q1260.58 1472.48 1258.43 1470.77 Q1256.3 1469.03 1252.48 1469.03 L1248.45 1469.03 L1248.45 1465.19 L1252.66 1465.19 Q1256.11 1465.19 1257.94 1463.82 Q1259.77 1462.43 1259.77 1459.84 Q1259.77 1457.18 1257.87 1455.77 Q1256 1454.33 1252.48 1454.33 Q1250.56 1454.33 1248.36 1454.75 Q1246.16 1455.16 1243.52 1456.04 L1243.52 1451.88 Q1246.18 1451.14 1248.5 1450.77 Q1250.83 1450.39 1252.89 1450.39 Q1258.22 1450.39 1261.32 1452.83 Q1264.42 1455.23 1264.42 1459.35 Q1264.42 1462.22 1262.78 1464.21 Q1261.13 1466.18 1258.1 1466.95 Z" fill="#000000" fill-rule="evenodd" fill-opacity="1"></path><path clip-path="url(#clip620)" d="M1284.1 1454.1 Q1280.49 1454.1 1278.66 1457.66 Q1276.85 1461.2 1276.85 1468.33 Q1276.85 1475.44 1278.66 1479.01 Q1280.49 1482.55 1284.1 1482.55 Q1287.73 1482.55 1289.54 1479.01 Q1291.37 1475.44 1291.37 1468.33 Q1291.37 1461.2 1289.54 1457.66 Q1287.73 1454.1 1284.1 1454.1 M1284.1 1450.39 Q1289.91 1450.39 1292.96 1455 Q1296.04 1459.58 1296.04 1468.33 Q1296.04 1477.06 1292.96 1481.67 Q1289.91 1486.25 1284.1 1486.25 Q1278.29 1486.25 1275.21 1481.67 Q1272.15 1477.06 1272.15 1468.33 Q1272.15 1459.58 1275.21 1455 Q1278.29 1450.39 1284.1 1450.39 Z" fill="#000000" fill-rule="evenodd" fill-opacity="1"></path><path clip-path="url(#clip620)" d="M1598.47 1455.09 L1586.67 1473.54 L1598.47 1473.54 L1598.47 1455.09 M1597.25 1451.02 L1603.13 1451.02 L1603.13 1473.54 L1608.06 1473.54 L1608.06 1477.43 L1603.13 1477.43 L1603.13 1485.58 L1598.47 1485.58 L1598.47 1477.43 L1582.87 1477.43 L1582.87 1472.92 L1597.25 1451.02 Z" fill="#000000" fill-rule="evenodd" fill-opacity="1"></path><path clip-path="url(#clip620)" d="M1625.79 1454.1 Q1622.18 1454.1 1620.35 1457.66 Q1618.54 1461.2 1618.54 1468.33 Q1618.54 1475.44 1620.35 1479.01 Q1622.18 1482.55 1625.79 1482.55 Q1629.42 1482.55 1631.23 1479.01 Q1633.06 1475.44 1633.06 1468.33 Q1633.06 1461.2 1631.23 1457.66 Q1629.42 1454.1 1625.79 1454.1 M1625.79 1450.39 Q1631.6 1450.39 1634.65 1455 Q1637.73 1459.58 1637.73 1468.33 Q1637.73 1477.06 1634.65 1481.67 Q1631.6 1486.25 1625.79 1486.25 Q1619.98 1486.25 1616.9 1481.67 Q1613.84 1477.06 1613.84 1468.33 Q1613.84 1459.58 1616.9 1455 Q1619.98 1450.39 1625.79 1450.39 Z" fill="#000000" fill-rule="evenodd" fill-opacity="1"></path><path clip-path="url(#clip620)" d="M1926.05 1451.02 L1944.4 1451.02 L1944.4 1454.96 L1930.33 1454.96 L1930.33 1463.43 Q1931.35 1463.08 1932.37 1462.92 Q1933.38 1462.73 1934.4 1462.73 Q1940.19 1462.73 1943.57 1465.9 Q1946.95 1469.08 1946.95 1474.49 Q1946.95 1480.07 1943.48 1483.17 Q1940 1486.25 1933.69 1486.25 Q1931.51 1486.25 1929.24 1485.88 Q1927 1485.51 1924.59 1484.77 L1924.59 1480.07 Q1926.67 1481.2 1928.89 1481.76 Q1931.12 1482.32 1933.59 1482.32 Q1937.6 1482.32 1939.94 1480.21 Q1942.27 1478.1 1942.27 1474.49 Q1942.27 1470.88 1939.94 1468.77 Q1937.6 1466.67 1933.59 1466.67 Q1931.72 1466.67 1929.84 1467.08 Q1927.99 1467.5 1926.05 1468.38 L1926.05 1451.02 Z" fill="#000000" fill-rule="evenodd" fill-opacity="1"></path><path clip-path="url(#clip620)" d="M1966.16 1454.1 Q1962.55 1454.1 1960.72 1457.66 Q1958.92 1461.2 1958.92 1468.33 Q1958.92 1475.44 1960.72 1479.01 Q1962.55 1482.55 1966.16 1482.55 Q1969.8 1482.55 1971.6 1479.01 Q1973.43 1475.44 1973.43 1468.33 Q1973.43 1461.2 1971.6 1457.66 Q1969.8 1454.1 1966.16 1454.1 M1966.16 1450.39 Q1971.97 1450.39 1975.03 1455 Q1978.11 1459.58 1978.11 1468.33 Q1978.11 1477.06 1975.03 1481.67 Q1971.97 1486.25 1966.16 1486.25 Q1960.35 1486.25 1957.27 1481.67 Q1954.22 1477.06 1954.22 1468.33 Q1954.22 1459.58 1957.27 1455 Q1960.35 1450.39 1966.16 1450.39 Z" fill="#000000" fill-rule="evenodd" fill-opacity="1"></path><path clip-path="url(#clip620)" d="M2277.8 1466.44 Q2274.65 1466.44 2272.8 1468.59 Q2270.97 1470.74 2270.97 1474.49 Q2270.97 1478.22 2272.8 1480.39 Q2274.65 1482.55 2277.8 1482.55 Q2280.94 1482.55 2282.77 1480.39 Q2284.62 1478.22 2284.62 1474.49 Q2284.62 1470.74 2282.77 1468.59 Q2280.94 1466.44 2277.8 1466.44 M2287.08 1451.78 L2287.08 1456.04 Q2285.32 1455.21 2283.51 1454.77 Q2281.73 1454.33 2279.97 1454.33 Q2275.34 1454.33 2272.89 1457.45 Q2270.46 1460.58 2270.11 1466.9 Q2271.48 1464.89 2273.54 1463.82 Q2275.6 1462.73 2278.07 1462.73 Q2283.28 1462.73 2286.29 1465.9 Q2289.32 1469.05 2289.32 1474.49 Q2289.32 1479.82 2286.18 1483.03 Q2283.03 1486.25 2277.8 1486.25 Q2271.8 1486.25 2268.63 1481.67 Q2265.46 1477.06 2265.46 1468.33 Q2265.46 1460.14 2269.35 1455.28 Q2273.24 1450.39 2279.79 1450.39 Q2281.55 1450.39 2283.33 1450.74 Q2285.13 1451.09 2287.08 1451.78 Z" fill="#000000" fill-rule="evenodd" fill-opacity="1"></path><path clip-path="url(#clip620)" d="M2307.38 1454.1 Q2303.77 1454.1 2301.94 1457.66 Q2300.13 1461.2 2300.13 1468.33 Q2300.13 1475.44 2301.94 1479.01 Q2303.77 1482.55 2307.38 1482.55 Q2311.01 1482.55 2312.82 1479.01 Q2314.65 1475.44 2314.65 1468.33 Q2314.65 1461.2 2312.82 1457.66 Q2311.01 1454.1 2307.38 1454.1 M2307.38 1450.39 Q2313.19 1450.39 2316.25 1455 Q2319.32 1459.58 2319.32 1468.33 Q2319.32 1477.06 2316.25 1481.67 Q2313.19 1486.25 2307.38 1486.25 Q2301.57 1486.25 2298.49 1481.67 Q2295.44 1477.06 2295.44 1468.33 Q2295.44 1459.58 2298.49 1455 Q2301.57 1450.39 2307.38 1450.39 Z" fill="#000000" fill-rule="evenodd" fill-opacity="1"></path><path clip-path="url(#clip620)" d="M1064.51 1525.81 L1064.51 1543.66 L1072.6 1543.66 Q1077.09 1543.66 1079.54 1541.34 Q1081.99 1539.02 1081.99 1534.72 Q1081.99 1530.45 1079.54 1528.13 Q1077.09 1525.81 1072.6 1525.81 L1064.51 1525.81 M1058.08 1520.52 L1072.6 1520.52 Q1080.59 1520.52 1084.66 1524.15 Q1088.77 1527.75 1088.77 1534.72 Q1088.77 1541.75 1084.66 1545.35 Q1080.59 1548.95 1072.6 1548.95 L1064.51 1548.95 L1064.51 1568.04 L1058.08 1568.04 L1058.08 1520.52 Z" fill="#000000" fill-rule="evenodd" fill-opacity="1"></path><path clip-path="url(#clip620)" d="M1116.65 1537.87 Q1115.66 1537.3 1114.48 1537.04 Q1113.34 1536.76 1111.94 1536.76 Q1106.97 1536.76 1104.3 1540 Q1101.66 1543.22 1101.66 1549.27 L1101.66 1568.04 L1095.77 1568.04 L1095.77 1532.4 L1101.66 1532.4 L1101.66 1537.93 Q1103.5 1534.69 1106.46 1533.13 Q1109.42 1531.54 1113.66 1531.54 Q1114.26 1531.54 1114.99 1531.63 Q1115.73 1531.7 1116.62 1531.85 L1116.65 1537.87 Z" fill="#000000" fill-rule="evenodd" fill-opacity="1"></path><path clip-path="url(#clip620)" d="M1151.85 1548.76 L1151.85 1551.62 L1124.92 1551.62 Q1125.31 1557.67 1128.55 1560.85 Q1131.83 1564 1137.66 1564 Q1141.03 1564 1144.18 1563.17 Q1147.36 1562.35 1150.48 1560.69 L1150.48 1566.23 Q1147.33 1567.57 1144.02 1568.27 Q1140.71 1568.97 1137.31 1568.97 Q1128.78 1568.97 1123.78 1564 Q1118.81 1559.04 1118.81 1550.57 Q1118.81 1541.82 1123.52 1536.69 Q1128.27 1531.54 1136.29 1531.54 Q1143.48 1531.54 1147.65 1536.18 Q1151.85 1540.8 1151.85 1548.76 M1145.99 1547.04 Q1145.93 1542.23 1143.29 1539.37 Q1140.68 1536.5 1136.35 1536.5 Q1131.45 1536.5 1128.49 1539.27 Q1125.56 1542.04 1125.12 1547.07 L1145.99 1547.04 Z" fill="#000000" fill-rule="evenodd" fill-opacity="1"></path><path clip-path="url(#clip620)" d="M1184.19 1533.45 L1184.19 1538.98 Q1181.71 1537.71 1179.03 1537.07 Q1176.36 1536.44 1173.49 1536.44 Q1169.13 1536.44 1166.94 1537.77 Q1164.77 1539.11 1164.77 1541.79 Q1164.77 1543.82 1166.33 1545 Q1167.89 1546.15 1172.6 1547.2 L1174.61 1547.64 Q1180.85 1548.98 1183.46 1551.43 Q1186.1 1553.85 1186.1 1558.21 Q1186.1 1563.17 1182.15 1566.07 Q1178.24 1568.97 1171.36 1568.97 Q1168.5 1568.97 1165.38 1568.39 Q1162.29 1567.85 1158.85 1566.74 L1158.85 1560.69 Q1162.1 1562.38 1165.25 1563.24 Q1168.4 1564.07 1171.49 1564.07 Q1175.63 1564.07 1177.86 1562.66 Q1180.08 1561.23 1180.08 1558.65 Q1180.08 1556.27 1178.46 1554.99 Q1176.87 1553.72 1171.43 1552.54 L1169.39 1552.07 Q1163.95 1550.92 1161.53 1548.56 Q1159.11 1546.18 1159.11 1542.04 Q1159.11 1537.01 1162.67 1534.27 Q1166.24 1531.54 1172.79 1531.54 Q1176.04 1531.54 1178.91 1532.01 Q1181.77 1532.49 1184.19 1533.45 Z" fill="#000000" fill-rule="evenodd" fill-opacity="1"></path><path clip-path="url(#clip620)" d="M1218.15 1533.45 L1218.15 1538.98 Q1215.67 1537.71 1212.99 1537.07 Q1210.32 1536.44 1207.46 1536.44 Q1203.1 1536.44 1200.9 1537.77 Q1198.73 1539.11 1198.73 1541.79 Q1198.73 1543.82 1200.29 1545 Q1201.85 1546.15 1206.56 1547.2 L1208.57 1547.64 Q1214.81 1548.98 1217.42 1551.43 Q1220.06 1553.85 1220.06 1558.21 Q1220.06 1563.17 1216.11 1566.07 Q1212.2 1568.97 1205.32 1568.97 Q1202.46 1568.97 1199.34 1568.39 Q1196.25 1567.85 1192.81 1566.74 L1192.81 1560.69 Q1196.06 1562.38 1199.21 1563.24 Q1202.36 1564.07 1205.45 1564.07 Q1209.59 1564.07 1211.82 1562.66 Q1214.04 1561.23 1214.04 1558.65 Q1214.04 1556.27 1212.42 1554.99 Q1210.83 1553.72 1205.39 1552.54 L1203.35 1552.07 Q1197.91 1550.92 1195.49 1548.56 Q1193.07 1546.18 1193.07 1542.04 Q1193.07 1537.01 1196.63 1534.27 Q1200.2 1531.54 1206.76 1531.54 Q1210 1531.54 1212.87 1532.01 Q1215.73 1532.49 1218.15 1533.45 Z" fill="#000000" fill-rule="evenodd" fill-opacity="1"></path><path clip-path="url(#clip620)" d="M1228.78 1553.98 L1228.78 1532.4 L1234.64 1532.4 L1234.64 1553.75 Q1234.64 1558.81 1236.61 1561.36 Q1238.58 1563.87 1242.53 1563.87 Q1247.27 1563.87 1250.01 1560.85 Q1252.78 1557.83 1252.78 1552.61 L1252.78 1532.4 L1258.64 1532.4 L1258.64 1568.04 L1252.78 1568.04 L1252.78 1562.57 Q1250.65 1565.82 1247.81 1567.41 Q1245.01 1568.97 1241.29 1568.97 Q1235.15 1568.97 1231.96 1565.15 Q1228.78 1561.33 1228.78 1553.98 M1243.52 1531.54 L1243.52 1531.54 Z" fill="#000000" fill-rule="evenodd" fill-opacity="1"></path><path clip-path="url(#clip620)" d="M1291.36 1537.87 Q1290.37 1537.3 1289.19 1537.04 Q1288.05 1536.76 1286.65 1536.76 Q1281.68 1536.76 1279.01 1540 Q1276.36 1543.22 1276.36 1549.27 L1276.36 1568.04 L1270.48 1568.04 L1270.48 1532.4 L1276.36 1532.4 L1276.36 1537.93 Q1278.21 1534.69 1281.17 1533.13 Q1284.13 1531.54 1288.36 1531.54 Q1288.97 1531.54 1289.7 1531.63 Q1290.43 1531.7 1291.32 1531.85 L1291.36 1537.87 Z" fill="#000000" fill-rule="evenodd" fill-opacity="1"></path><path clip-path="url(#clip620)" d="M1326.56 1548.76 L1326.56 1551.62 L1299.63 1551.62 Q1300.01 1557.67 1303.26 1560.85 Q1306.54 1564 1312.36 1564 Q1315.74 1564 1318.89 1563.17 Q1322.07 1562.35 1325.19 1560.69 L1325.19 1566.23 Q1322.04 1567.57 1318.73 1568.27 Q1315.42 1568.97 1312.01 1568.97 Q1303.48 1568.97 1298.49 1564 Q1293.52 1559.04 1293.52 1550.57 Q1293.52 1541.82 1298.23 1536.69 Q1302.97 1531.54 1310.99 1531.54 Q1318.19 1531.54 1322.36 1536.18 Q1326.56 1540.8 1326.56 1548.76 M1320.7 1547.04 Q1320.64 1542.23 1318 1539.37 Q1315.39 1536.5 1311.06 1536.5 Q1306.16 1536.5 1303.2 1539.27 Q1300.27 1542.04 1299.82 1547.07 L1320.7 1547.04 Z" fill="#000000" fill-rule="evenodd" fill-opacity="1"></path><path clip-path="url(#clip620)" d="M1379.68 1545.76 Q1381.75 1546.46 1383.69 1548.76 Q1385.66 1551.05 1387.64 1555.06 L1394.16 1568.04 L1387.26 1568.04 L1381.18 1555.85 Q1378.82 1551.08 1376.59 1549.52 Q1374.4 1547.96 1370.58 1547.96 L1363.57 1547.96 L1363.57 1568.04 L1357.15 1568.04 L1357.15 1520.52 L1371.66 1520.52 Q1379.81 1520.52 1383.82 1523.93 Q1387.83 1527.34 1387.83 1534.21 Q1387.83 1538.7 1385.73 1541.66 Q1383.66 1544.62 1379.68 1545.76 M1363.57 1525.81 L1363.57 1542.68 L1371.66 1542.68 Q1376.31 1542.68 1378.66 1540.54 Q1381.05 1538.38 1381.05 1534.21 Q1381.05 1530.04 1378.66 1527.94 Q1376.31 1525.81 1371.66 1525.81 L1363.57 1525.81 Z" fill="#000000" fill-rule="evenodd" fill-opacity="1"></path><path clip-path="url(#clip620)" d="M1416.95 1550.12 Q1409.85 1550.12 1407.12 1551.75 Q1404.38 1553.37 1404.38 1557.29 Q1404.38 1560.4 1406.42 1562.25 Q1408.48 1564.07 1412.02 1564.07 Q1416.89 1564.07 1419.82 1560.63 Q1422.78 1557.16 1422.78 1551.43 L1422.78 1550.12 L1416.95 1550.12 M1428.63 1547.71 L1428.63 1568.04 L1422.78 1568.04 L1422.78 1562.63 Q1420.77 1565.88 1417.78 1567.44 Q1414.79 1568.97 1410.46 1568.97 Q1404.98 1568.97 1401.74 1565.91 Q1398.52 1562.82 1398.52 1557.67 Q1398.52 1551.65 1402.53 1548.6 Q1406.58 1545.54 1414.56 1545.54 L1422.78 1545.54 L1422.78 1544.97 Q1422.78 1540.93 1420.1 1538.73 Q1417.46 1536.5 1412.65 1536.5 Q1409.6 1536.5 1406.7 1537.23 Q1403.81 1537.97 1401.13 1539.43 L1401.13 1534.02 Q1404.35 1532.78 1407.37 1532.17 Q1410.39 1531.54 1413.26 1531.54 Q1420.99 1531.54 1424.81 1535.55 Q1428.63 1539.56 1428.63 1547.71 Z" fill="#000000" fill-rule="evenodd" fill-opacity="1"></path><path clip-path="url(#clip620)" d="M1446.49 1522.27 L1446.49 1532.4 L1458.55 1532.4 L1458.55 1536.95 L1446.49 1536.95 L1446.49 1556.3 Q1446.49 1560.66 1447.67 1561.9 Q1448.88 1563.14 1452.54 1563.14 L1458.55 1563.14 L1458.55 1568.04 L1452.54 1568.04 Q1445.76 1568.04 1443.18 1565.53 Q1440.6 1562.98 1440.6 1556.3 L1440.6 1536.95 L1436.3 1536.95 L1436.3 1532.4 L1440.6 1532.4 L1440.6 1522.27 L1446.49 1522.27 Z" fill="#000000" fill-rule="evenodd" fill-opacity="1"></path><path clip-path="url(#clip620)" d="M1466.25 1532.4 L1472.11 1532.4 L1472.11 1568.04 L1466.25 1568.04 L1466.25 1532.4 M1466.25 1518.52 L1472.11 1518.52 L1472.11 1525.93 L1466.25 1525.93 L1466.25 1518.52 Z" fill="#000000" fill-rule="evenodd" fill-opacity="1"></path><path clip-path="url(#clip620)" d="M1498.18 1536.5 Q1493.47 1536.5 1490.73 1540.19 Q1487.99 1543.85 1487.99 1550.25 Q1487.99 1556.65 1490.7 1560.34 Q1493.44 1564 1498.18 1564 Q1502.86 1564 1505.59 1560.31 Q1508.33 1556.62 1508.33 1550.25 Q1508.33 1543.92 1505.59 1540.23 Q1502.86 1536.5 1498.18 1536.5 M1498.18 1531.54 Q1505.82 1531.54 1510.18 1536.5 Q1514.54 1541.47 1514.54 1550.25 Q1514.54 1559 1510.18 1564 Q1505.82 1568.97 1498.18 1568.97 Q1490.51 1568.97 1486.15 1564 Q1481.82 1559 1481.82 1550.25 Q1481.82 1541.47 1486.15 1536.5 Q1490.51 1531.54 1498.18 1531.54 Z" fill="#000000" fill-rule="evenodd" fill-opacity="1"></path><polyline clip-path="url(#clip622)" style="stroke:#000000; stroke-linecap:round; stroke-linejoin:round; stroke-width:2; stroke-opacity:0.1; fill:none" points="
  219.866,1384.24 2352.76,1384.24 
  "></polyline>
<polyline clip-path="url(#clip622)" style="stroke:#000000; stroke-linecap:round; stroke-linejoin:round; stroke-width:2; stroke-opacity:0.1; fill:none" points="
  219.866,1066.99 2352.76,1066.99 
  "></polyline>
<polyline clip-path="url(#clip622)" style="stroke:#000000; stroke-linecap:round; stroke-linejoin:round; stroke-width:2; stroke-opacity:0.1; fill:none" points="
  219.866,749.747 2352.76,749.747 
  "></polyline>
<polyline clip-path="url(#clip622)" style="stroke:#000000; stroke-linecap:round; stroke-linejoin:round; stroke-width:2; stroke-opacity:0.1; fill:none" points="
  219.866,432.502 2352.76,432.502 
  "></polyline>
<polyline clip-path="url(#clip622)" style="stroke:#000000; stroke-linecap:round; stroke-linejoin:round; stroke-width:2; stroke-opacity:0.1; fill:none" points="
  219.866,115.257 2352.76,115.257 
  "></polyline>
<polyline clip-path="url(#clip620)" style="stroke:#000000; stroke-linecap:round; stroke-linejoin:round; stroke-width:4; stroke-opacity:1; fill:none" points="
  219.866,1423.18 219.866,47.2441 
  "></polyline>
<polyline clip-path="url(#clip620)" style="stroke:#000000; stroke-linecap:round; stroke-linejoin:round; stroke-width:4; stroke-opacity:1; fill:none" points="
  219.866,1384.24 238.764,1384.24 
  "></polyline>
<polyline clip-path="url(#clip620)" style="stroke:#000000; stroke-linecap:round; stroke-linejoin:round; stroke-width:4; stroke-opacity:1; fill:none" points="
  219.866,1066.99 238.764,1066.99 
  "></polyline>
<polyline clip-path="url(#clip620)" style="stroke:#000000; stroke-linecap:round; stroke-linejoin:round; stroke-width:4; stroke-opacity:1; fill:none" points="
  219.866,749.747 238.764,749.747 
  "></polyline>
<polyline clip-path="url(#clip620)" style="stroke:#000000; stroke-linecap:round; stroke-linejoin:round; stroke-width:4; stroke-opacity:1; fill:none" points="
  219.866,432.502 238.764,432.502 
  "></polyline>
<polyline clip-path="url(#clip620)" style="stroke:#000000; stroke-linecap:round; stroke-linejoin:round; stroke-width:4; stroke-opacity:1; fill:none" points="
  219.866,115.257 238.764,115.257 
  "></polyline>
<path clip-path="url(#clip620)" d="M126.691 1370.04 Q123.08 1370.04 121.251 1373.6 Q119.445 1377.14 119.445 1384.27 Q119.445 1391.38 121.251 1394.94 Q123.08 1398.49 126.691 1398.49 Q130.325 1398.49 132.13 1394.94 Q133.959 1391.38 133.959 1384.27 Q133.959 1377.14 132.13 1373.6 Q130.325 1370.04 126.691 1370.04 M126.691 1366.33 Q132.501 1366.33 135.556 1370.94 Q138.635 1375.52 138.635 1384.27 Q138.635 1393 135.556 1397.61 Q132.501 1402.19 126.691 1402.19 Q120.88 1402.19 117.802 1397.61 Q114.746 1393 114.746 1384.27 Q114.746 1375.52 117.802 1370.94 Q120.88 1366.33 126.691 1366.33 Z" fill="#000000" fill-rule="evenodd" fill-opacity="1"></path><path clip-path="url(#clip620)" d="M146.853 1395.64 L151.737 1395.64 L151.737 1401.52 L146.853 1401.52 L146.853 1395.64 Z" fill="#000000" fill-rule="evenodd" fill-opacity="1"></path><path clip-path="url(#clip620)" d="M171.922 1370.04 Q168.311 1370.04 166.482 1373.6 Q164.677 1377.14 164.677 1384.27 Q164.677 1391.38 166.482 1394.94 Q168.311 1398.49 171.922 1398.49 Q175.556 1398.49 177.362 1394.94 Q179.19 1391.38 179.19 1384.27 Q179.19 1377.14 177.362 1373.6 Q175.556 1370.04 171.922 1370.04 M171.922 1366.33 Q177.732 1366.33 180.788 1370.94 Q183.866 1375.52 183.866 1384.27 Q183.866 1393 180.788 1397.61 Q177.732 1402.19 171.922 1402.19 Q166.112 1402.19 163.033 1397.61 Q159.978 1393 159.978 1384.27 Q159.978 1375.52 163.033 1370.94 Q166.112 1366.33 171.922 1366.33 Z" fill="#000000" fill-rule="evenodd" fill-opacity="1"></path><path clip-path="url(#clip620)" d="M128.288 1052.79 Q124.677 1052.79 122.848 1056.36 Q121.043 1059.9 121.043 1067.03 Q121.043 1074.13 122.848 1077.7 Q124.677 1081.24 128.288 1081.24 Q131.922 1081.24 133.728 1077.7 Q135.556 1074.13 135.556 1067.03 Q135.556 1059.9 133.728 1056.36 Q131.922 1052.79 128.288 1052.79 M128.288 1049.09 Q134.098 1049.09 137.154 1053.69 Q140.232 1058.28 140.232 1067.03 Q140.232 1075.75 137.154 1080.36 Q134.098 1084.94 128.288 1084.94 Q122.478 1084.94 119.399 1080.36 Q116.343 1075.75 116.343 1067.03 Q116.343 1058.28 119.399 1053.69 Q122.478 1049.09 128.288 1049.09 Z" fill="#000000" fill-rule="evenodd" fill-opacity="1"></path><path clip-path="url(#clip620)" d="M148.45 1078.39 L153.334 1078.39 L153.334 1084.27 L148.45 1084.27 L148.45 1078.39 Z" fill="#000000" fill-rule="evenodd" fill-opacity="1"></path><path clip-path="url(#clip620)" d="M167.547 1080.34 L183.866 1080.34 L183.866 1084.27 L161.922 1084.27 L161.922 1080.34 Q164.584 1077.58 169.167 1072.95 Q173.774 1068.3 174.954 1066.96 Q177.2 1064.43 178.079 1062.7 Q178.982 1060.94 178.982 1059.25 Q178.982 1056.5 177.038 1054.76 Q175.116 1053.02 172.014 1053.02 Q169.815 1053.02 167.362 1053.79 Q164.931 1054.55 162.153 1056.1 L162.153 1051.38 Q164.977 1050.25 167.431 1049.67 Q169.885 1049.09 171.922 1049.09 Q177.292 1049.09 180.487 1051.77 Q183.681 1054.46 183.681 1058.95 Q183.681 1061.08 182.871 1063 Q182.084 1064.9 179.977 1067.49 Q179.399 1068.16 176.297 1071.38 Q173.195 1074.57 167.547 1080.34 Z" fill="#000000" fill-rule="evenodd" fill-opacity="1"></path><path clip-path="url(#clip620)" d="M126.205 735.546 Q122.593 735.546 120.765 739.111 Q118.959 742.653 118.959 749.782 Q118.959 756.889 120.765 760.453 Q122.593 763.995 126.205 763.995 Q129.839 763.995 131.644 760.453 Q133.473 756.889 133.473 749.782 Q133.473 742.653 131.644 739.111 Q129.839 735.546 126.205 735.546 M126.205 731.842 Q132.015 731.842 135.07 736.449 Q138.149 741.032 138.149 749.782 Q138.149 758.509 135.07 763.115 Q132.015 767.699 126.205 767.699 Q120.394 767.699 117.316 763.115 Q114.26 758.509 114.26 749.782 Q114.26 741.032 117.316 736.449 Q120.394 731.842 126.205 731.842 Z" fill="#000000" fill-rule="evenodd" fill-opacity="1"></path><path clip-path="url(#clip620)" d="M146.366 761.148 L151.251 761.148 L151.251 767.027 L146.366 767.027 L146.366 761.148 Z" fill="#000000" fill-rule="evenodd" fill-opacity="1"></path><path clip-path="url(#clip620)" d="M174.283 736.541 L162.477 754.99 L174.283 754.99 L174.283 736.541 M173.056 732.467 L178.936 732.467 L178.936 754.99 L183.866 754.99 L183.866 758.879 L178.936 758.879 L178.936 767.027 L174.283 767.027 L174.283 758.879 L158.681 758.879 L158.681 754.365 L173.056 732.467 Z" fill="#000000" fill-rule="evenodd" fill-opacity="1"></path><path clip-path="url(#clip620)" d="M126.529 418.301 Q122.918 418.301 121.089 421.865 Q119.283 425.407 119.283 432.537 Q119.283 439.643 121.089 443.208 Q122.918 446.75 126.529 446.75 Q130.163 446.75 131.968 443.208 Q133.797 439.643 133.797 432.537 Q133.797 425.407 131.968 421.865 Q130.163 418.301 126.529 418.301 M126.529 414.597 Q132.339 414.597 135.394 419.203 Q138.473 423.787 138.473 432.537 Q138.473 441.264 135.394 445.87 Q132.339 450.453 126.529 450.453 Q120.718 450.453 117.64 445.87 Q114.584 441.264 114.584 432.537 Q114.584 423.787 117.64 419.203 Q120.718 414.597 126.529 414.597 Z" fill="#000000" fill-rule="evenodd" fill-opacity="1"></path><path clip-path="url(#clip620)" d="M146.691 443.902 L151.575 443.902 L151.575 449.782 L146.691 449.782 L146.691 443.902 Z" fill="#000000" fill-rule="evenodd" fill-opacity="1"></path><path clip-path="url(#clip620)" d="M172.339 430.639 Q169.19 430.639 167.339 432.791 Q165.51 434.944 165.51 438.694 Q165.51 442.421 167.339 444.597 Q169.19 446.75 172.339 446.75 Q175.487 446.75 177.315 444.597 Q179.167 442.421 179.167 438.694 Q179.167 434.944 177.315 432.791 Q175.487 430.639 172.339 430.639 M181.621 415.986 L181.621 420.245 Q179.862 419.412 178.056 418.972 Q176.274 418.532 174.514 418.532 Q169.885 418.532 167.431 421.657 Q165.001 424.782 164.653 431.102 Q166.019 429.088 168.079 428.023 Q170.139 426.935 172.616 426.935 Q177.825 426.935 180.834 430.106 Q183.866 433.254 183.866 438.694 Q183.866 444.018 180.718 447.236 Q177.57 450.453 172.339 450.453 Q166.343 450.453 163.172 445.87 Q160.001 441.264 160.001 432.537 Q160.001 424.342 163.89 419.481 Q167.778 414.597 174.329 414.597 Q176.089 414.597 177.871 414.944 Q179.676 415.291 181.621 415.986 Z" fill="#000000" fill-rule="evenodd" fill-opacity="1"></path><path clip-path="url(#clip620)" d="M126.783 101.055 Q123.172 101.055 121.343 104.62 Q119.538 108.162 119.538 115.291 Q119.538 122.398 121.343 125.963 Q123.172 129.504 126.783 129.504 Q130.417 129.504 132.223 125.963 Q134.052 122.398 134.052 115.291 Q134.052 108.162 132.223 104.62 Q130.417 101.055 126.783 101.055 M126.783 97.3516 Q132.593 97.3516 135.649 101.958 Q138.728 106.541 138.728 115.291 Q138.728 124.018 135.649 128.625 Q132.593 133.208 126.783 133.208 Q120.973 133.208 117.894 128.625 Q114.839 124.018 114.839 115.291 Q114.839 106.541 117.894 101.958 Q120.973 97.3516 126.783 97.3516 Z" fill="#000000" fill-rule="evenodd" fill-opacity="1"></path><path clip-path="url(#clip620)" d="M146.945 126.657 L151.829 126.657 L151.829 132.537 L146.945 132.537 L146.945 126.657 Z" fill="#000000" fill-rule="evenodd" fill-opacity="1"></path><path clip-path="url(#clip620)" d="M172.014 116.125 Q168.681 116.125 166.76 117.907 Q164.862 119.689 164.862 122.814 Q164.862 125.939 166.76 127.722 Q168.681 129.504 172.014 129.504 Q175.348 129.504 177.269 127.722 Q179.19 125.916 179.19 122.814 Q179.19 119.689 177.269 117.907 Q175.371 116.125 172.014 116.125 M167.339 114.134 Q164.329 113.393 162.64 111.333 Q160.973 109.273 160.973 106.31 Q160.973 102.166 163.913 99.759 Q166.876 97.3516 172.014 97.3516 Q177.176 97.3516 180.116 99.759 Q183.056 102.166 183.056 106.31 Q183.056 109.273 181.366 111.333 Q179.7 113.393 176.714 114.134 Q180.093 114.921 181.968 117.213 Q183.866 119.504 183.866 122.814 Q183.866 127.838 180.788 130.523 Q177.732 133.208 172.014 133.208 Q166.297 133.208 163.218 130.523 Q160.163 127.838 160.163 122.814 Q160.163 119.504 162.061 117.213 Q163.959 114.921 167.339 114.134 M165.626 106.75 Q165.626 109.435 167.292 110.939 Q168.982 112.444 172.014 112.444 Q175.024 112.444 176.714 110.939 Q178.426 109.435 178.426 106.75 Q178.426 104.064 176.714 102.56 Q175.024 101.055 172.014 101.055 Q168.982 101.055 167.292 102.56 Q165.626 104.064 165.626 106.75 Z" fill="#000000" fill-rule="evenodd" fill-opacity="1"></path><path clip-path="url(#clip620)" d="M18.0438 1064.45 L24.314 1064.45 Q22.5634 1068.11 21.704 1071.35 Q20.8447 1074.6 20.8447 1077.62 Q20.8447 1082.88 22.8817 1085.74 Q24.9187 1088.57 28.6745 1088.57 Q31.8255 1088.57 33.4488 1086.69 Q35.0402 1084.78 36.0269 1079.5 L36.8226 1075.62 Q38.1912 1068.42 41.6605 1065.02 Q45.098 1061.58 50.8908 1061.58 Q57.7976 1061.58 61.3624 1066.23 Q64.9272 1070.84 64.9272 1079.79 Q64.9272 1083.16 64.1633 1086.98 Q63.3994 1090.77 61.9035 1094.84 L55.2831 1094.84 Q57.4793 1090.93 58.5933 1087.17 Q59.7073 1083.42 59.7073 1079.79 Q59.7073 1074.28 57.543 1071.29 Q55.3786 1068.3 51.3682 1068.3 Q47.8671 1068.3 45.8937 1070.46 Q43.9204 1072.59 42.9337 1077.5 L42.1698 1081.41 Q40.7375 1088.6 37.682 1091.82 Q34.6264 1095.03 29.1837 1095.03 Q22.8817 1095.03 19.2532 1090.61 Q15.6248 1086.15 15.6248 1078.36 Q15.6248 1075.01 16.2295 1071.54 Q16.8343 1068.07 18.0438 1064.45 Z" fill="#000000" fill-rule="evenodd" fill-opacity="1"></path><path clip-path="url(#clip620)" d="M44.7161 1021.32 L47.5806 1021.32 L47.5806 1048.25 Q53.6281 1047.86 56.8109 1044.62 Q59.9619 1041.34 59.9619 1035.51 Q59.9619 1032.14 59.1344 1028.99 Q58.3069 1025.81 56.6518 1022.69 L62.1899 1022.69 Q63.5267 1025.84 64.227 1029.15 Q64.9272 1032.46 64.9272 1035.86 Q64.9272 1044.39 59.9619 1049.39 Q54.9967 1054.36 46.5303 1054.36 Q37.7774 1054.36 32.6531 1049.65 Q27.4968 1044.9 27.4968 1036.88 Q27.4968 1029.69 32.1438 1025.52 Q36.7589 1021.32 44.7161 1021.32 M42.9973 1027.18 Q38.1912 1027.24 35.3266 1029.88 Q32.4621 1032.49 32.4621 1036.82 Q32.4621 1041.72 35.2312 1044.68 Q38.0002 1047.61 43.0292 1048.05 L42.9973 1027.18 Z" fill="#000000" fill-rule="evenodd" fill-opacity="1"></path><path clip-path="url(#clip620)" d="M29.7248 986.053 L35.1993 986.053 Q33.8307 988.535 33.1623 991.05 Q32.4621 993.532 32.4621 996.079 Q32.4621 1001.78 36.0905 1004.93 Q39.6872 1008.08 46.212 1008.08 Q52.7369 1008.08 56.3653 1004.93 Q59.9619 1001.78 59.9619 996.079 Q59.9619 993.532 59.2935 991.05 Q58.5933 988.535 57.2247 986.053 L62.6355 986.053 Q63.7814 988.503 64.3543 991.145 Q64.9272 993.755 64.9272 996.715 Q64.9272 1004.77 59.8664 1009.51 Q54.8057 1014.25 46.212 1014.25 Q37.491 1014.25 32.4939 1009.48 Q27.4968 1004.67 27.4968 996.333 Q27.4968 993.628 28.0697 991.05 Q28.6108 988.472 29.7248 986.053 Z" fill="#000000" fill-rule="evenodd" fill-opacity="1"></path><path clip-path="url(#clip620)" d="M32.4621 962.054 Q32.4621 966.765 36.1542 969.502 Q39.8145 972.239 46.212 972.239 Q52.6095 972.239 56.3017 969.534 Q59.9619 966.796 59.9619 962.054 Q59.9619 957.375 56.2698 954.638 Q52.5777 951.901 46.212 951.901 Q39.8781 951.901 36.186 954.638 Q32.4621 957.375 32.4621 962.054 M27.4968 962.054 Q27.4968 954.415 32.4621 950.055 Q37.4273 945.694 46.212 945.694 Q54.9649 945.694 59.9619 950.055 Q64.9272 954.415 64.9272 962.054 Q64.9272 969.725 59.9619 974.085 Q54.9649 978.414 46.212 978.414 Q37.4273 978.414 32.4621 974.085 Q27.4968 969.725 27.4968 962.054 Z" fill="#000000" fill-rule="evenodd" fill-opacity="1"></path><path clip-path="url(#clip620)" d="M42.4881 906.354 L64.0042 906.354 L64.0042 912.21 L42.679 912.21 Q37.6183 912.21 35.1038 914.184 Q32.5894 916.157 32.5894 920.104 Q32.5894 924.846 35.6131 927.584 Q38.6368 930.321 43.8567 930.321 L64.0042 930.321 L64.0042 936.209 L28.3562 936.209 L28.3562 930.321 L33.8944 930.321 Q30.6797 928.22 29.0883 925.387 Q27.4968 922.523 27.4968 918.799 Q27.4968 912.656 31.3163 909.505 Q35.1038 906.354 42.4881 906.354 Z" fill="#000000" fill-rule="evenodd" fill-opacity="1"></path><path clip-path="url(#clip620)" d="M33.7671 871.215 L14.479 871.215 L14.479 865.359 L64.0042 865.359 L64.0042 871.215 L58.657 871.215 Q61.8398 873.061 63.3994 875.894 Q64.9272 878.695 64.9272 882.642 Q64.9272 889.103 59.771 893.177 Q54.6147 897.219 46.212 897.219 Q37.8093 897.219 32.6531 893.177 Q27.4968 889.103 27.4968 882.642 Q27.4968 878.695 29.0564 875.894 Q30.5842 873.061 33.7671 871.215 M46.212 891.172 Q52.6732 891.172 56.3653 888.53 Q60.0256 885.856 60.0256 881.209 Q60.0256 876.562 56.3653 873.889 Q52.6732 871.215 46.212 871.215 Q39.7508 871.215 36.0905 873.889 Q32.3984 876.562 32.3984 881.209 Q32.3984 885.856 36.0905 888.53 Q39.7508 891.172 46.212 891.172 Z" fill="#000000" fill-rule="evenodd" fill-opacity="1"></path><path clip-path="url(#clip620)" d="M16.4842 832.321 L16.4842 825.891 L58.5933 825.891 L58.5933 802.752 L64.0042 802.752 L64.0042 832.321 L16.4842 832.321 Z" fill="#000000" fill-rule="evenodd" fill-opacity="1"></path><path clip-path="url(#clip620)" d="M46.0847 780.058 Q46.0847 787.156 47.7079 789.893 Q49.3312 792.631 53.2461 792.631 Q56.3653 792.631 58.2114 790.594 Q60.0256 788.525 60.0256 784.992 Q60.0256 780.122 56.5881 777.194 Q53.1188 774.234 47.3897 774.234 L46.0847 774.234 L46.0847 780.058 M43.6657 768.377 L64.0042 768.377 L64.0042 774.234 L58.5933 774.234 Q61.8398 776.239 63.3994 779.231 Q64.9272 782.223 64.9272 786.551 Q64.9272 792.026 61.8716 795.272 Q58.7843 798.487 53.6281 798.487 Q47.6125 798.487 44.5569 794.477 Q41.5014 790.434 41.5014 782.446 L41.5014 774.234 L40.9285 774.234 Q36.8862 774.234 34.6901 776.907 Q32.4621 779.549 32.4621 784.355 Q32.4621 787.411 33.1941 790.307 Q33.9262 793.204 35.3903 795.877 L29.9795 795.877 Q28.7381 792.662 28.1334 789.639 Q27.4968 786.615 27.4968 783.75 Q27.4968 776.016 31.5072 772.197 Q35.5176 768.377 43.6657 768.377 Z" fill="#000000" fill-rule="evenodd" fill-opacity="1"></path><path clip-path="url(#clip620)" d="M28.3562 759.72 L28.3562 753.863 L56.1743 746.543 L28.3562 739.254 L28.3562 732.347 L56.1743 725.027 L28.3562 717.738 L28.3562 711.882 L64.0042 721.207 L64.0042 728.114 L34.7856 735.785 L64.0042 743.487 L64.0042 750.394 L28.3562 759.72 Z" fill="#000000" fill-rule="evenodd" fill-opacity="1"></path><path clip-path="url(#clip620)" d="M16.4842 682.026 L16.4842 651.98 L21.895 651.98 L21.895 675.597 L35.9632 675.597 L35.9632 652.967 L41.3741 652.967 L41.3741 675.597 L58.5933 675.597 L58.5933 651.407 L64.0042 651.407 L64.0042 682.026 L16.4842 682.026 Z" fill="#000000" fill-rule="evenodd" fill-opacity="1"></path><path clip-path="url(#clip620)" d="M14.479 623.048 L19.3487 623.048 L19.3487 628.65 Q19.3487 631.801 20.6219 633.042 Q21.895 634.252 25.2052 634.252 L28.3562 634.252 L28.3562 624.608 L32.9077 624.608 L32.9077 634.252 L64.0042 634.252 L64.0042 640.14 L32.9077 640.14 L32.9077 645.742 L28.3562 645.742 L28.3562 640.14 L25.8736 640.14 Q19.9216 640.14 17.2162 637.371 Q14.479 634.602 14.479 628.586 L14.479 623.048 Z" fill="#000000" fill-rule="evenodd" fill-opacity="1"></path><path clip-path="url(#clip620)" d="M14.479 600.1 L19.3487 600.1 L19.3487 605.702 Q19.3487 608.853 20.6219 610.094 Q21.895 611.303 25.2052 611.303 L28.3562 611.303 L28.3562 601.659 L32.9077 601.659 L32.9077 611.303 L64.0042 611.303 L64.0042 617.192 L32.9077 617.192 L32.9077 622.794 L28.3562 622.794 L28.3562 617.192 L25.8736 617.192 Q19.9216 617.192 17.2162 614.423 Q14.479 611.654 14.479 605.638 L14.479 600.1 Z" fill="#000000" fill-rule="evenodd" fill-opacity="1"></path><path clip-path="url(#clip620)" d="M28.3562 595.198 L28.3562 589.342 L64.0042 589.342 L64.0042 595.198 L28.3562 595.198 M14.479 595.198 L14.479 589.342 L21.895 589.342 L21.895 595.198 L14.479 595.198 Z" fill="#000000" fill-rule="evenodd" fill-opacity="1"></path><path clip-path="url(#clip620)" d="M29.7248 551.434 L35.1993 551.434 Q33.8307 553.917 33.1623 556.431 Q32.4621 558.914 32.4621 561.46 Q32.4621 567.157 36.0905 570.308 Q39.6872 573.459 46.212 573.459 Q52.7369 573.459 56.3653 570.308 Q59.9619 567.157 59.9619 561.46 Q59.9619 558.914 59.2935 556.431 Q58.5933 553.917 57.2247 551.434 L62.6355 551.434 Q63.7814 553.885 64.3543 556.527 Q64.9272 559.137 64.9272 562.097 Q64.9272 570.149 59.8664 574.892 Q54.8057 579.634 46.212 579.634 Q37.491 579.634 32.4939 574.86 Q27.4968 570.054 27.4968 561.715 Q27.4968 559.009 28.0697 556.431 Q28.6108 553.853 29.7248 551.434 Z" fill="#000000" fill-rule="evenodd" fill-opacity="1"></path><path clip-path="url(#clip620)" d="M28.3562 541.249 L28.3562 535.392 L64.0042 535.392 L64.0042 541.249 L28.3562 541.249 M14.479 541.249 L14.479 535.392 L21.895 535.392 L21.895 541.249 L14.479 541.249 Z" fill="#000000" fill-rule="evenodd" fill-opacity="1"></path><path clip-path="url(#clip620)" d="M44.7161 492.647 L47.5806 492.647 L47.5806 519.574 Q53.6281 519.192 56.8109 515.945 Q59.9619 512.667 59.9619 506.842 Q59.9619 503.468 59.1344 500.317 Q58.3069 497.135 56.6518 494.015 L62.1899 494.015 Q63.5267 497.166 64.227 500.477 Q64.9272 503.787 64.9272 507.192 Q64.9272 515.722 59.9619 520.719 Q54.9967 525.685 46.5303 525.685 Q37.7774 525.685 32.6531 520.974 Q27.4968 516.232 27.4968 508.211 Q27.4968 501.018 32.1438 496.848 Q36.7589 492.647 44.7161 492.647 M42.9973 498.503 Q38.1912 498.567 35.3266 501.209 Q32.4621 503.819 32.4621 508.147 Q32.4621 513.049 35.2312 516.009 Q38.0002 518.937 43.0292 519.383 L42.9973 498.503 Z" fill="#000000" fill-rule="evenodd" fill-opacity="1"></path><path clip-path="url(#clip620)" d="M42.4881 453.402 L64.0042 453.402 L64.0042 459.259 L42.679 459.259 Q37.6183 459.259 35.1038 461.232 Q32.5894 463.205 32.5894 467.152 Q32.5894 471.895 35.6131 474.632 Q38.6368 477.369 43.8567 477.369 L64.0042 477.369 L64.0042 483.257 L28.3562 483.257 L28.3562 477.369 L33.8944 477.369 Q30.6797 475.268 29.0883 472.436 Q27.4968 469.571 27.4968 465.847 Q27.4968 459.704 31.3163 456.553 Q35.1038 453.402 42.4881 453.402 Z" fill="#000000" fill-rule="evenodd" fill-opacity="1"></path><path clip-path="url(#clip620)" d="M29.7248 416.067 L35.1993 416.067 Q33.8307 418.55 33.1623 421.064 Q32.4621 423.547 32.4621 426.093 Q32.4621 431.791 36.0905 434.942 Q39.6872 438.093 46.212 438.093 Q52.7369 438.093 56.3653 434.942 Q59.9619 431.791 59.9619 426.093 Q59.9619 423.547 59.2935 421.064 Q58.5933 418.55 57.2247 416.067 L62.6355 416.067 Q63.7814 418.518 64.3543 421.16 Q64.9272 423.77 64.9272 426.73 Q64.9272 434.782 59.8664 439.525 Q54.8057 444.267 46.212 444.267 Q37.491 444.267 32.4939 439.493 Q27.4968 434.687 27.4968 426.348 Q27.4968 423.642 28.0697 421.064 Q28.6108 418.486 29.7248 416.067 Z" fill="#000000" fill-rule="evenodd" fill-opacity="1"></path><path clip-path="url(#clip620)" d="M67.3143 391.05 Q73.68 393.533 75.6216 395.888 Q77.5631 398.243 77.5631 402.19 L77.5631 406.869 L72.6615 406.869 L72.6615 403.431 Q72.6615 401.012 71.5157 399.676 Q70.3699 398.339 66.1048 396.716 L63.4312 395.665 L28.3562 410.084 L28.3562 403.877 L56.238 392.737 L28.3562 381.597 L28.3562 375.39 L67.3143 391.05 Z" fill="#000000" fill-rule="evenodd" fill-opacity="1"></path><path clip-path="url(#clip622)" d="
M280.231 1384.24 L314.335 810.985 L348.44 568.783 L382.544 431.774 L416.649 343.364 L450.753 281.87 L484.858 237 L518.962 203.183 L553.066 177.116 L587.171 156.704 
  L621.275 140.55 L655.38 127.686 L689.484 117.417 L723.588 109.228 L757.693 102.735 L791.797 97.6393 L825.902 93.709 L860.006 90.7595 L894.11 88.6427 L928.215 87.238 
  L962.319 86.4464 L996.424 86.1857 L1030.53 86.3873 L1064.63 86.9934 L1098.74 87.9549 L1132.84 89.2301 L1166.95 90.7829 L1201.05 92.5824 L1235.15 94.6017 L1269.26 96.8175 
  L1303.36 99.2091 L1337.47 101.759 L1371.57 104.45 L1405.68 107.27 L1439.78 110.205 L1473.89 113.245 L1507.99 116.38 L1542.09 119.6 L1576.2 122.898 L1610.3 126.267 
  L1644.41 129.701 L1678.51 133.193 L1712.62 136.738 L1746.72 140.332 L1780.82 143.97 L1814.93 147.648 L1849.03 151.363 L1883.14 155.112 L1917.24 158.891 L1951.35 162.697 
  L1985.45 166.529 L2019.56 170.384 L2053.66 174.26 L2087.76 178.155 L2121.87 182.067 L2155.97 185.994 L2190.08 189.936 L2224.18 193.89 L2258.29 197.855 L2292.39 201.83 
  L2292.39 201.83 L2258.29 197.855 L2224.18 193.89 L2190.08 189.936 L2155.97 185.994 L2121.87 182.067 L2087.76 178.155 L2053.66 174.26 L2019.56 170.384 L1985.45 166.529 
  L1951.35 162.697 L1917.24 158.891 L1883.14 155.112 L1849.03 151.363 L1814.93 147.648 L1780.82 143.97 L1746.72 140.332 L1712.62 136.738 L1678.51 133.193 L1644.41 129.701 
  L1610.3 126.267 L1576.2 122.898 L1542.09 119.6 L1507.99 116.38 L1473.89 113.245 L1439.78 110.205 L1405.68 107.27 L1371.57 104.45 L1337.47 101.759 L1303.36 99.2091 
  L1269.26 96.8175 L1235.15 94.6017 L1201.05 92.5824 L1166.95 90.7829 L1132.84 89.2301 L1098.74 87.9549 L1064.63 86.9934 L1030.53 86.3873 L996.424 86.1857 L962.319 86.4464 
  L928.215 87.238 L894.11 88.6427 L860.006 90.7595 L825.902 93.709 L791.797 97.6393 L757.693 102.735 L723.588 109.228 L689.484 117.417 L655.38 127.686 L621.275 140.55 
  L587.171 156.704 L553.066 177.116 L518.962 203.183 L484.858 237 L450.753 281.87 L416.649 343.364 L382.544 431.774 L348.44 568.783 L314.335 810.985 L280.231 1384.24 
   Z
  " fill="#009af9" fill-rule="evenodd" fill-opacity="0.5"></path>
<polyline clip-path="url(#clip622)" style="stroke:#009af9; stroke-linecap:round; stroke-linejoin:round; stroke-width:4; stroke-opacity:0.2; fill:none" points="
  280.231,1384.24 314.335,810.985 348.44,568.783 382.544,431.774 416.649,343.364 450.753,281.87 484.858,237 518.962,203.183 553.066,177.116 587.171,156.704 
  621.275,140.55 655.38,127.686 689.484,117.417 723.588,109.228 757.693,102.735 791.797,97.6393 825.902,93.709 860.006,90.7595 894.11,88.6427 928.215,87.238 
  962.319,86.4464 996.424,86.1857 1030.53,86.3873 1064.63,86.9934 1098.74,87.9549 1132.84,89.2301 1166.95,90.7829 1201.05,92.5824 1235.15,94.6017 1269.26,96.8175 
  1303.36,99.2091 1337.47,101.759 1371.57,104.45 1405.68,107.27 1439.78,110.205 1473.89,113.245 1507.99,116.38 1542.09,119.6 1576.2,122.898 1610.3,126.267 
  1644.41,129.701 1678.51,133.193 1712.62,136.738 1746.72,140.332 1780.82,143.97 1814.93,147.648 1849.03,151.363 1883.14,155.112 1917.24,158.891 1951.35,162.697 
  1985.45,166.529 2019.56,170.384 2053.66,174.26 2087.76,178.155 2121.87,182.067 2155.97,185.994 2190.08,189.936 2224.18,193.89 2258.29,197.855 2292.39,201.83 
  
  "></polyline>
<polyline clip-path="url(#clip622)" style="stroke:#009af9; stroke-linecap:round; stroke-linejoin:round; stroke-width:4; stroke-opacity:1; fill:none" stroke-dasharray="16, 10" points="
  280.231,1384.24 314.335,810.985 348.44,568.783 382.544,431.774 416.649,343.364 450.753,281.87 484.858,237 518.962,203.183 553.066,177.116 587.171,156.704 
  621.275,140.55 655.38,127.686 689.484,117.417 723.588,109.228 757.693,102.735 791.797,97.6393 825.902,93.709 860.006,90.7595 894.11,88.6427 928.215,87.238 
  962.319,86.4464 996.424,86.1857 1030.53,86.3873 1064.63,86.9934 1098.74,87.9549 1132.84,89.2301 1166.95,90.7829 1201.05,92.5824 1235.15,94.6017 1269.26,96.8175 
  1303.36,99.2091 1337.47,101.759 1371.57,104.45 1405.68,107.27 1439.78,110.205 1473.89,113.245 1507.99,116.38 1542.09,119.6 1576.2,122.898 1610.3,126.267 
  1644.41,129.701 1678.51,133.193 1712.62,136.738 1746.72,140.332 1780.82,143.97 1814.93,147.648 1849.03,151.363 1883.14,155.112 1917.24,158.891 1951.35,162.697 
  1985.45,166.529 2019.56,170.384 2053.66,174.26 2087.76,178.155 2121.87,182.067 2155.97,185.994 2190.08,189.936 2224.18,193.89 2258.29,197.855 2292.39,201.83 
  
  "></polyline>
<polyline clip-path="url(#clip622)" style="stroke:#009af9; stroke-linecap:round; stroke-linejoin:round; stroke-width:4; stroke-opacity:1; fill:none" points="
  280.231,1384.24 314.335,810.985 348.44,568.783 382.544,431.774 416.649,343.364 450.753,281.87 484.858,237 518.962,203.183 553.066,177.116 587.171,156.704 
  621.275,140.55 655.38,127.686 689.484,117.417 723.588,109.228 757.693,102.735 791.797,97.6393 825.902,93.709 860.006,90.7595 894.11,88.6427 928.215,87.238 
  962.319,86.4464 996.424,86.1857 1030.53,86.3873 1064.63,86.9934 1098.74,87.9549 1132.84,89.2301 1166.95,90.7829 1201.05,92.5824 1235.15,94.6017 1269.26,96.8175 
  1303.36,99.2091 1337.47,101.759 1371.57,104.45 1405.68,107.27 1439.78,110.205 1473.89,113.245 1507.99,116.38 1542.09,119.6 1576.2,122.898 1610.3,126.267 
  1644.41,129.701 1678.51,133.193 1712.62,136.738 1746.72,140.332 1780.82,143.97 1814.93,147.648 1849.03,151.363 1883.14,155.112 1917.24,158.891 1951.35,162.697 
  1985.45,166.529 2019.56,170.384 2053.66,174.26 2087.76,178.155 2121.87,182.067 2155.97,185.994 2190.08,189.936 2224.18,193.89 2258.29,197.855 2292.39,201.83 
  
  "></polyline>
<path clip-path="url(#clip622)" d="
M280.231 1384.24 L314.335 953.741 L348.44 752.375 L382.544 629.3 L416.649 544.249 L450.753 481.115 L484.858 431.992 L518.962 392.473 L553.066 359.879 L587.171 332.473 
  L621.275 309.071 L655.38 288.837 L689.484 271.158 L723.588 255.575 L757.693 241.737 L791.797 229.369 L825.902 218.252 L860.006 208.211 L894.11 199.101 L928.215 190.806 
  L962.319 183.225 L996.424 176.276 L1030.53 169.89 L1064.63 164.005 L1098.74 158.571 L1132.84 153.543 L1166.95 148.881 L1201.05 144.553 L1235.15 140.529 L1269.26 136.781 
  L1303.36 133.288 L1337.47 130.027 L1371.57 126.982 L1405.68 124.134 L1439.78 121.47 L1473.89 118.975 L1507.99 116.639 L1542.09 114.449 L1576.2 112.395 L1610.3 110.47 
  L1644.41 108.663 L1678.51 106.969 L1712.62 105.379 L1746.72 103.887 L1780.82 102.488 L1814.93 101.175 L1849.03 99.9451 L1883.14 98.7921 L1917.24 97.7122 L1951.35 96.7012 
  L1985.45 95.7556 L2019.56 94.8718 L2053.66 94.0466 L2087.76 93.2771 L2121.87 92.5603 L2155.97 91.8938 L2190.08 91.2749 L2224.18 90.7016 L2258.29 90.1714 L2292.39 89.6825 
  L2292.39 89.6825 L2258.29 90.1714 L2224.18 90.7016 L2190.08 91.2749 L2155.97 91.8938 L2121.87 92.5603 L2087.76 93.2771 L2053.66 94.0466 L2019.56 94.8718 L1985.45 95.7556 
  L1951.35 96.7012 L1917.24 97.7122 L1883.14 98.7921 L1849.03 99.9451 L1814.93 101.175 L1780.82 102.488 L1746.72 103.887 L1712.62 105.379 L1678.51 106.969 L1644.41 108.663 
  L1610.3 110.47 L1576.2 112.395 L1542.09 114.449 L1507.99 116.639 L1473.89 118.975 L1439.78 121.47 L1405.68 124.134 L1371.57 126.982 L1337.47 130.027 L1303.36 133.288 
  L1269.26 136.781 L1235.15 140.529 L1201.05 144.553 L1166.95 148.881 L1132.84 153.543 L1098.74 158.571 L1064.63 164.005 L1030.53 169.89 L996.424 176.276 L962.319 183.225 
  L928.215 190.806 L894.11 199.101 L860.006 208.211 L825.902 218.252 L791.797 229.369 L757.693 241.737 L723.588 255.575 L689.484 271.158 L655.38 288.837 L621.275 309.071 
  L587.171 332.473 L553.066 359.879 L518.962 392.473 L484.858 431.992 L450.753 481.115 L416.649 544.249 L382.544 629.3 L348.44 752.375 L314.335 953.741 L280.231 1384.24 
   Z
  " fill="#e26f46" fill-rule="evenodd" fill-opacity="0.5"></path>
<polyline clip-path="url(#clip622)" style="stroke:#e26f46; stroke-linecap:round; stroke-linejoin:round; stroke-width:4; stroke-opacity:0.2; fill:none" points="
  280.231,1384.24 314.335,953.741 348.44,752.375 382.544,629.3 416.649,544.249 450.753,481.115 484.858,431.992 518.962,392.473 553.066,359.879 587.171,332.473 
  621.275,309.071 655.38,288.837 689.484,271.158 723.588,255.575 757.693,241.737 791.797,229.369 825.902,218.252 860.006,208.211 894.11,199.101 928.215,190.806 
  962.319,183.225 996.424,176.276 1030.53,169.89 1064.63,164.005 1098.74,158.571 1132.84,153.543 1166.95,148.881 1201.05,144.553 1235.15,140.529 1269.26,136.781 
  1303.36,133.288 1337.47,130.027 1371.57,126.982 1405.68,124.134 1439.78,121.47 1473.89,118.975 1507.99,116.639 1542.09,114.449 1576.2,112.395 1610.3,110.47 
  1644.41,108.663 1678.51,106.969 1712.62,105.379 1746.72,103.887 1780.82,102.488 1814.93,101.175 1849.03,99.9451 1883.14,98.7921 1917.24,97.7122 1951.35,96.7012 
  1985.45,95.7556 2019.56,94.8718 2053.66,94.0466 2087.76,93.2771 2121.87,92.5603 2155.97,91.8938 2190.08,91.2749 2224.18,90.7016 2258.29,90.1714 2292.39,89.6825 
  
  "></polyline>
<polyline clip-path="url(#clip622)" style="stroke:#e26f46; stroke-linecap:round; stroke-linejoin:round; stroke-width:4; stroke-opacity:1; fill:none" stroke-dasharray="16, 10" points="
  280.231,1384.24 314.335,953.741 348.44,752.375 382.544,629.3 416.649,544.249 450.753,481.115 484.858,431.992 518.962,392.473 553.066,359.879 587.171,332.473 
  621.275,309.071 655.38,288.837 689.484,271.158 723.588,255.575 757.693,241.737 791.797,229.369 825.902,218.252 860.006,208.211 894.11,199.101 928.215,190.806 
  962.319,183.225 996.424,176.276 1030.53,169.89 1064.63,164.005 1098.74,158.571 1132.84,153.543 1166.95,148.881 1201.05,144.553 1235.15,140.529 1269.26,136.781 
  1303.36,133.288 1337.47,130.027 1371.57,126.982 1405.68,124.134 1439.78,121.47 1473.89,118.975 1507.99,116.639 1542.09,114.449 1576.2,112.395 1610.3,110.47 
  1644.41,108.663 1678.51,106.969 1712.62,105.379 1746.72,103.887 1780.82,102.488 1814.93,101.175 1849.03,99.9451 1883.14,98.7921 1917.24,97.7122 1951.35,96.7012 
  1985.45,95.7556 2019.56,94.8718 2053.66,94.0466 2087.76,93.2771 2121.87,92.5603 2155.97,91.8938 2190.08,91.2749 2224.18,90.7016 2258.29,90.1714 2292.39,89.6825 
  
  "></polyline>
<polyline clip-path="url(#clip622)" style="stroke:#e26f46; stroke-linecap:round; stroke-linejoin:round; stroke-width:4; stroke-opacity:1; fill:none" points="
  280.231,1384.24 314.335,953.741 348.44,752.375 382.544,629.3 416.649,544.249 450.753,481.115 484.858,431.992 518.962,392.473 553.066,359.879 587.171,332.473 
  621.275,309.071 655.38,288.837 689.484,271.158 723.588,255.575 757.693,241.737 791.797,229.369 825.902,218.252 860.006,208.211 894.11,199.101 928.215,190.806 
  962.319,183.225 996.424,176.276 1030.53,169.89 1064.63,164.005 1098.74,158.571 1132.84,153.543 1166.95,148.881 1201.05,144.553 1235.15,140.529 1269.26,136.781 
  1303.36,133.288 1337.47,130.027 1371.57,126.982 1405.68,124.134 1439.78,121.47 1473.89,118.975 1507.99,116.639 1542.09,114.449 1576.2,112.395 1610.3,110.47 
  1644.41,108.663 1678.51,106.969 1712.62,105.379 1746.72,103.887 1780.82,102.488 1814.93,101.175 1849.03,99.9451 1883.14,98.7921 1917.24,97.7122 1951.35,96.7012 
  1985.45,95.7556 2019.56,94.8718 2053.66,94.0466 2087.76,93.2771 2121.87,92.5603 2155.97,91.8938 2190.08,91.2749 2224.18,90.7016 2258.29,90.1714 2292.39,89.6825 
  
  "></polyline>
<path clip-path="url(#clip622)" d="
M280.231 1384.24 L314.335 812.241 L348.44 570.331 L382.544 433.377 L416.649 344.937 L450.753 283.374 L484.858 238.418 L518.962 204.506 L553.066 178.34 L587.171 157.827 
  L621.275 141.574 L655.38 128.61 L689.484 118.242 L723.588 109.957 L757.693 103.368 L791.797 98.1792 L825.902 94.157 L860.006 91.1172 L894.11 88.9116 L928.215 87.4196 
  L962.319 86.5421 L996.424 86.1968 L1030.53 86.3152 L1064.63 86.8394 L1098.74 87.7201 L1132.84 88.9156 L1166.95 90.3899 L1201.05 92.1119 L1235.15 94.0546 L1269.26 96.1947 
  L1303.36 98.5116 L1337.47 100.987 L1371.57 103.606 L1405.68 106.353 L1439.78 109.217 L1473.89 112.186 L1507.99 115.25 L1542.09 118.401 L1576.2 121.63 L1610.3 124.931 
  L1644.41 128.296 L1678.51 131.721 L1712.62 135.199 L1746.72 138.727 L1780.82 142.299 L1814.93 145.912 L1849.03 149.562 L1883.14 153.246 L1917.24 156.961 L1951.35 160.704 
  L1985.45 164.473 L2019.56 168.265 L2053.66 172.079 L2087.76 175.911 L2121.87 179.761 L2155.97 183.627 L2190.08 187.507 L2224.18 191.401 L2258.29 195.305 L2292.39 199.221 
  L2292.39 199.221 L2258.29 195.305 L2224.18 191.401 L2190.08 187.507 L2155.97 183.627 L2121.87 179.761 L2087.76 175.911 L2053.66 172.079 L2019.56 168.265 L1985.45 164.473 
  L1951.35 160.704 L1917.24 156.961 L1883.14 153.246 L1849.03 149.562 L1814.93 145.912 L1780.82 142.299 L1746.72 138.727 L1712.62 135.199 L1678.51 131.721 L1644.41 128.296 
  L1610.3 124.931 L1576.2 121.63 L1542.09 118.401 L1507.99 115.25 L1473.89 112.186 L1439.78 109.217 L1405.68 106.353 L1371.57 103.606 L1337.47 100.987 L1303.36 98.5116 
  L1269.26 96.1947 L1235.15 94.0546 L1201.05 92.1119 L1166.95 90.3899 L1132.84 88.9156 L1098.74 87.7201 L1064.63 86.8394 L1030.53 86.3152 L996.424 86.1968 L962.319 86.5421 
  L928.215 87.4196 L894.11 88.9116 L860.006 91.1172 L825.902 94.157 L791.797 98.1792 L757.693 103.368 L723.588 109.957 L689.484 118.242 L655.38 128.61 L621.275 141.574 
  L587.171 157.827 L553.066 178.34 L518.962 204.506 L484.858 238.418 L450.753 283.374 L416.649 344.937 L382.544 433.377 L348.44 570.331 L314.335 812.241 L280.231 1384.24 
   Z
  " fill="#3da44d" fill-rule="evenodd" fill-opacity="0.5"></path>
<polyline clip-path="url(#clip622)" style="stroke:#3da44d; stroke-linecap:round; stroke-linejoin:round; stroke-width:4; stroke-opacity:0.2; fill:none" points="
  280.231,1384.24 314.335,812.241 348.44,570.331 382.544,433.377 416.649,344.937 450.753,283.374 484.858,238.418 518.962,204.506 553.066,178.34 587.171,157.827 
  621.275,141.574 655.38,128.61 689.484,118.242 723.588,109.957 757.693,103.368 791.797,98.1792 825.902,94.157 860.006,91.1172 894.11,88.9116 928.215,87.4196 
  962.319,86.5421 996.424,86.1968 1030.53,86.3152 1064.63,86.8394 1098.74,87.7201 1132.84,88.9156 1166.95,90.3899 1201.05,92.1119 1235.15,94.0546 1269.26,96.1947 
  1303.36,98.5116 1337.47,100.987 1371.57,103.606 1405.68,106.353 1439.78,109.217 1473.89,112.186 1507.99,115.25 1542.09,118.401 1576.2,121.63 1610.3,124.931 
  1644.41,128.296 1678.51,131.721 1712.62,135.199 1746.72,138.727 1780.82,142.299 1814.93,145.912 1849.03,149.562 1883.14,153.246 1917.24,156.961 1951.35,160.704 
  1985.45,164.473 2019.56,168.265 2053.66,172.079 2087.76,175.911 2121.87,179.761 2155.97,183.627 2190.08,187.507 2224.18,191.401 2258.29,195.305 2292.39,199.221 
  
  "></polyline>
<polyline clip-path="url(#clip622)" style="stroke:#3da44d; stroke-linecap:round; stroke-linejoin:round; stroke-width:4; stroke-opacity:1; fill:none" stroke-dasharray="16, 10" points="
  280.231,1384.24 314.335,812.241 348.44,570.331 382.544,433.377 416.649,344.937 450.753,283.374 484.858,238.418 518.962,204.506 553.066,178.34 587.171,157.827 
  621.275,141.574 655.38,128.61 689.484,118.242 723.588,109.957 757.693,103.368 791.797,98.1792 825.902,94.157 860.006,91.1172 894.11,88.9116 928.215,87.4196 
  962.319,86.5421 996.424,86.1968 1030.53,86.3152 1064.63,86.8394 1098.74,87.7201 1132.84,88.9156 1166.95,90.3899 1201.05,92.1119 1235.15,94.0546 1269.26,96.1947 
  1303.36,98.5116 1337.47,100.987 1371.57,103.606 1405.68,106.353 1439.78,109.217 1473.89,112.186 1507.99,115.25 1542.09,118.401 1576.2,121.63 1610.3,124.931 
  1644.41,128.296 1678.51,131.721 1712.62,135.199 1746.72,138.727 1780.82,142.299 1814.93,145.912 1849.03,149.562 1883.14,153.246 1917.24,156.961 1951.35,160.704 
  1985.45,164.473 2019.56,168.265 2053.66,172.079 2087.76,175.911 2121.87,179.761 2155.97,183.627 2190.08,187.507 2224.18,191.401 2258.29,195.305 2292.39,199.221 
  
  "></polyline>
<polyline clip-path="url(#clip622)" style="stroke:#3da44d; stroke-linecap:round; stroke-linejoin:round; stroke-width:4; stroke-opacity:1; fill:none" points="
  280.231,1384.24 314.335,812.241 348.44,570.331 382.544,433.377 416.649,344.937 450.753,283.374 484.858,238.418 518.962,204.506 553.066,178.34 587.171,157.827 
  621.275,141.574 655.38,128.61 689.484,118.242 723.588,109.957 757.693,103.368 791.797,98.1792 825.902,94.157 860.006,91.1172 894.11,88.9116 928.215,87.4196 
  962.319,86.5421 996.424,86.1968 1030.53,86.3152 1064.63,86.8394 1098.74,87.7201 1132.84,88.9156 1166.95,90.3899 1201.05,92.1119 1235.15,94.0546 1269.26,96.1947 
  1303.36,98.5116 1337.47,100.987 1371.57,103.606 1405.68,106.353 1439.78,109.217 1473.89,112.186 1507.99,115.25 1542.09,118.401 1576.2,121.63 1610.3,124.931 
  1644.41,128.296 1678.51,131.721 1712.62,135.199 1746.72,138.727 1780.82,142.299 1814.93,145.912 1849.03,149.562 1883.14,153.246 1917.24,156.961 1951.35,160.704 
  1985.45,164.473 2019.56,168.265 2053.66,172.079 2087.76,175.911 2121.87,179.761 2155.97,183.627 2190.08,187.507 2224.18,191.401 2258.29,195.305 2292.39,199.221 
  
  "></polyline>
<path clip-path="url(#clip622)" d="
M280.231 1384.24 L314.335 950.418 L348.44 747.934 L382.544 624.368 L416.649 539.088 L450.753 475.857 L484.858 426.712 L518.962 387.215 L553.066 354.671 L587.171 327.333 
  L621.275 304.011 L655.38 283.865 L689.484 266.28 L723.588 250.794 L757.693 237.055 L791.797 224.787 L825.902 213.772 L860.006 203.831 L894.11 194.823 L928.215 186.627 
  L962.319 179.146 L996.424 172.296 L1030.53 166.007 L1064.63 160.22 L1098.74 154.881 L1132.84 149.947 L1166.95 145.379 L1201.05 141.144 L1235.15 137.21 L1269.26 133.553 
  L1303.36 130.148 L1337.47 126.976 L1371.57 124.017 L1405.68 121.255 L1439.78 118.675 L1473.89 116.265 L1507.99 114.011 L1542.09 111.902 L1576.2 109.93 L1610.3 108.084 
  L1644.41 106.357 L1678.51 104.74 L1712.62 103.228 L1746.72 101.812 L1780.82 100.489 L1814.93 99.2513 L1849.03 98.0951 L1883.14 97.0155 L1917.24 96.0081 L1951.35 95.069 
  L1985.45 94.1945 L2019.56 93.3812 L2053.66 92.6258 L2087.76 91.9254 L2121.87 91.2772 L2155.97 90.6785 L2190.08 90.127 L2224.18 89.6202 L2258.29 89.1562 L2292.39 88.7328 
  L2292.39 88.7328 L2258.29 89.1562 L2224.18 89.6202 L2190.08 90.127 L2155.97 90.6785 L2121.87 91.2772 L2087.76 91.9254 L2053.66 92.6258 L2019.56 93.3812 L1985.45 94.1945 
  L1951.35 95.069 L1917.24 96.0081 L1883.14 97.0155 L1849.03 98.0951 L1814.93 99.2513 L1780.82 100.489 L1746.72 101.812 L1712.62 103.228 L1678.51 104.74 L1644.41 106.357 
  L1610.3 108.084 L1576.2 109.93 L1542.09 111.902 L1507.99 114.011 L1473.89 116.265 L1439.78 118.675 L1405.68 121.255 L1371.57 124.017 L1337.47 126.976 L1303.36 130.148 
  L1269.26 133.553 L1235.15 137.21 L1201.05 141.144 L1166.95 145.379 L1132.84 149.947 L1098.74 154.881 L1064.63 160.22 L1030.53 166.007 L996.424 172.296 L962.319 179.146 
  L928.215 186.627 L894.11 194.823 L860.006 203.831 L825.902 213.772 L791.797 224.787 L757.693 237.055 L723.588 250.794 L689.484 266.28 L655.38 283.865 L621.275 304.011 
  L587.171 327.333 L553.066 354.671 L518.962 387.215 L484.858 426.712 L450.753 475.857 L416.649 539.088 L382.544 624.368 L348.44 747.934 L314.335 950.418 L280.231 1384.24 
   Z
  " fill="#c271d2" fill-rule="evenodd" fill-opacity="0.5"></path>
<polyline clip-path="url(#clip622)" style="stroke:#c271d2; stroke-linecap:round; stroke-linejoin:round; stroke-width:4; stroke-opacity:0.2; fill:none" points="
  280.231,1384.24 314.335,950.418 348.44,747.934 382.544,624.368 416.649,539.088 450.753,475.857 484.858,426.712 518.962,387.215 553.066,354.671 587.171,327.333 
  621.275,304.011 655.38,283.865 689.484,266.28 723.588,250.794 757.693,237.055 791.797,224.787 825.902,213.772 860.006,203.831 894.11,194.823 928.215,186.627 
  962.319,179.146 996.424,172.296 1030.53,166.007 1064.63,160.22 1098.74,154.881 1132.84,149.947 1166.95,145.379 1201.05,141.144 1235.15,137.21 1269.26,133.553 
  1303.36,130.148 1337.47,126.976 1371.57,124.017 1405.68,121.255 1439.78,118.675 1473.89,116.265 1507.99,114.011 1542.09,111.902 1576.2,109.93 1610.3,108.084 
  1644.41,106.357 1678.51,104.74 1712.62,103.228 1746.72,101.812 1780.82,100.489 1814.93,99.2513 1849.03,98.0951 1883.14,97.0155 1917.24,96.0081 1951.35,95.069 
  1985.45,94.1945 2019.56,93.3812 2053.66,92.6258 2087.76,91.9254 2121.87,91.2772 2155.97,90.6785 2190.08,90.127 2224.18,89.6202 2258.29,89.1562 2292.39,88.7328 
  
  "></polyline>
<polyline clip-path="url(#clip622)" style="stroke:#c271d2; stroke-linecap:round; stroke-linejoin:round; stroke-width:4; stroke-opacity:1; fill:none" stroke-dasharray="16, 10" points="
  280.231,1384.24 314.335,950.418 348.44,747.934 382.544,624.368 416.649,539.088 450.753,475.857 484.858,426.712 518.962,387.215 553.066,354.671 587.171,327.333 
  621.275,304.011 655.38,283.865 689.484,266.28 723.588,250.794 757.693,237.055 791.797,224.787 825.902,213.772 860.006,203.831 894.11,194.823 928.215,186.627 
  962.319,179.146 996.424,172.296 1030.53,166.007 1064.63,160.22 1098.74,154.881 1132.84,149.947 1166.95,145.379 1201.05,141.144 1235.15,137.21 1269.26,133.553 
  1303.36,130.148 1337.47,126.976 1371.57,124.017 1405.68,121.255 1439.78,118.675 1473.89,116.265 1507.99,114.011 1542.09,111.902 1576.2,109.93 1610.3,108.084 
  1644.41,106.357 1678.51,104.74 1712.62,103.228 1746.72,101.812 1780.82,100.489 1814.93,99.2513 1849.03,98.0951 1883.14,97.0155 1917.24,96.0081 1951.35,95.069 
  1985.45,94.1945 2019.56,93.3812 2053.66,92.6258 2087.76,91.9254 2121.87,91.2772 2155.97,90.6785 2190.08,90.127 2224.18,89.6202 2258.29,89.1562 2292.39,88.7328 
  
  "></polyline>
<polyline clip-path="url(#clip622)" style="stroke:#c271d2; stroke-linecap:round; stroke-linejoin:round; stroke-width:4; stroke-opacity:1; fill:none" points="
  280.231,1384.24 314.335,950.418 348.44,747.934 382.544,624.368 416.649,539.088 450.753,475.857 484.858,426.712 518.962,387.215 553.066,354.671 587.171,327.333 
  621.275,304.011 655.38,283.865 689.484,266.28 723.588,250.794 757.693,237.055 791.797,224.787 825.902,213.772 860.006,203.831 894.11,194.823 928.215,186.627 
  962.319,179.146 996.424,172.296 1030.53,166.007 1064.63,160.22 1098.74,154.881 1132.84,149.947 1166.95,145.379 1201.05,141.144 1235.15,137.21 1269.26,133.553 
  1303.36,130.148 1337.47,126.976 1371.57,124.017 1405.68,121.255 1439.78,118.675 1473.89,116.265 1507.99,114.011 1542.09,111.902 1576.2,109.93 1610.3,108.084 
  1644.41,106.357 1678.51,104.74 1712.62,103.228 1746.72,101.812 1780.82,100.489 1814.93,99.2513 1849.03,98.0951 1883.14,97.0155 1917.24,96.0081 1951.35,95.069 
  1985.45,94.1945 2019.56,93.3812 2053.66,92.6258 2087.76,91.9254 2121.87,91.2772 2155.97,90.6785 2190.08,90.127 2224.18,89.6202 2258.29,89.1562 2292.39,88.7328 
  
  "></polyline>
<path clip-path="url(#clip620)" d="
M1995.35 1377.32 L2281.66 1377.32 L2281.66 1118.12 L1995.35 1118.12  Z
  " fill="#ffffff" fill-rule="evenodd" fill-opacity="1"></path>
<polyline clip-path="url(#clip620)" style="stroke:#000000; stroke-linecap:round; stroke-linejoin:round; stroke-width:4; stroke-opacity:1; fill:none" points="
  1995.35,1377.32 2281.66,1377.32 2281.66,1118.12 1995.35,1118.12 1995.35,1377.32 
  "></polyline>
<path clip-path="url(#clip620)" d="
M2019.05 1190.69 L2161.24 1190.69 L2161.24 1149.22 L2019.05 1149.22 L2019.05 1190.69  Z
  " fill="#009af9" fill-rule="evenodd" fill-opacity="0.5"></path>
<polyline clip-path="url(#clip620)" style="stroke:#009af9; stroke-linecap:round; stroke-linejoin:round; stroke-width:4; stroke-opacity:0.2; fill:none" points="
  2019.05,1149.22 2161.24,1149.22 
  "></polyline>
<path clip-path="url(#clip620)" d="M2217.85 1185.73 Q2217.85 1186.17 2217.66 1186.41 Q2217.5 1186.62 2217.33 1186.67 Q2217.19 1186.69 2216.98 1186.69 Q2216.37 1186.69 2214.26 1186.62 Q2212.15 1186.55 2211.55 1186.55 Q2210.56 1186.55 2208.55 1186.62 Q2206.53 1186.69 2205.55 1186.69 Q2204.89 1186.69 2204.89 1186.15 Q2204.89 1185.8 2204.96 1185.61 Q2205.03 1185.4 2205.22 1185.33 Q2205.43 1185.24 2205.55 1185.24 Q2205.69 1185.21 2206.04 1185.21 Q2206.51 1185.21 2207 1185.17 Q2207.49 1185.1 2208.1 1184.96 Q2208.71 1184.82 2209.09 1184.46 Q2209.48 1184.11 2209.48 1183.62 Q2209.48 1183.41 2209.32 1181.68 Q2209.16 1179.94 2208.95 1177.93 Q2208.74 1175.89 2208.71 1175.61 L2196.67 1175.61 Q2195.57 1177.51 2194.8 1178.82 Q2194.03 1180.13 2193.74 1180.58 Q2193.46 1181.02 2193.3 1181.3 Q2193.14 1181.58 2193.04 1181.75 Q2192.36 1182.99 2192.36 1183.53 Q2192.36 1185.03 2194.61 1185.21 Q2195.38 1185.21 2195.38 1185.78 Q2195.38 1186.2 2195.2 1186.43 Q2195.01 1186.64 2194.85 1186.67 Q2194.7 1186.69 2194.47 1186.69 Q2193.7 1186.69 2192.08 1186.62 Q2190.47 1186.55 2189.67 1186.55 Q2188.99 1186.55 2187.58 1186.62 Q2186.18 1186.69 2185.55 1186.69 Q2185.27 1186.69 2185.1 1186.53 Q2184.94 1186.36 2184.94 1186.15 Q2184.94 1185.82 2184.98 1185.64 Q2185.05 1185.45 2185.24 1185.35 Q2185.43 1185.26 2185.52 1185.26 Q2185.62 1185.24 2185.94 1185.21 Q2187.73 1185.1 2189.11 1184.25 Q2190.51 1183.39 2191.85 1181.16 L2208.52 1153.15 Q2208.69 1152.87 2208.81 1152.73 Q2208.92 1152.59 2209.16 1152.47 Q2209.41 1152.35 2209.79 1152.35 Q2210.37 1152.35 2210.49 1152.54 Q2210.61 1152.7 2210.68 1153.5 L2213.61 1183.48 Q2213.68 1184.11 2213.72 1184.37 Q2213.79 1184.61 2214.1 1184.86 Q2214.43 1185.1 2215.01 1185.17 Q2215.62 1185.21 2216.75 1185.21 Q2217.17 1185.21 2217.33 1185.24 Q2217.5 1185.24 2217.66 1185.35 Q2217.85 1185.47 2217.85 1185.73 M2208.57 1174.11 L2207.05 1158.3 L2197.59 1174.11 L2208.57 1174.11 Z" fill="#000000" fill-rule="evenodd" fill-opacity="1"></path><path clip-path="url(#clip620)" d="M2239.33 1168.61 Q2239.33 1169.85 2238.51 1170.65 Q2237.71 1171.44 2236.68 1171.44 Q2235.79 1171.44 2235.32 1170.93 Q2234.86 1170.41 2234.86 1169.76 Q2234.86 1168.82 2235.58 1168.05 Q2236.31 1167.27 2237.36 1167.11 Q2236.59 1166.55 2235.35 1166.55 Q2233.31 1166.55 2231.51 1168.12 Q2230.71 1168.84 2229.84 1170.18 Q2228.98 1171.49 2228.81 1172.05 L2227.29 1178.3 Q2227.15 1179.01 2226.28 1182.38 Q2225.44 1185.73 2225.37 1185.87 Q2225.14 1186.53 2224.62 1186.88 Q2224.1 1187.23 2223.59 1187.23 Q2223 1187.23 2222.61 1186.88 Q2222.21 1186.53 2222.21 1185.92 Q2222.21 1185.82 2222.28 1185.47 Q2222.35 1185.12 2222.46 1184.63 Q2222.58 1184.14 2222.63 1183.86 L2225.42 1172.78 Q2225.93 1170.76 2226.05 1170.13 Q2226.19 1169.47 2226.19 1168.75 Q2226.19 1167.48 2225.79 1167.01 Q2225.39 1166.55 2224.69 1166.55 Q2223.47 1166.55 2222.68 1168 Q2221.88 1169.45 2221.2 1172.26 Q2220.99 1173.03 2220.85 1173.2 Q2220.73 1173.36 2220.38 1173.36 Q2219.79 1173.34 2219.79 1172.87 Q2219.79 1172.75 2219.98 1172 Q2220.17 1171.23 2220.52 1170.11 Q2220.9 1168.96 2221.29 1168.23 Q2221.53 1167.74 2221.74 1167.41 Q2221.95 1167.09 2222.37 1166.57 Q2222.79 1166.05 2223.43 1165.77 Q2224.06 1165.49 2224.83 1165.49 Q2226.52 1165.49 2227.71 1166.52 Q2228.93 1167.55 2229.21 1169.17 Q2229.8 1168.33 2230.52 1167.6 Q2231.25 1166.85 2232.58 1166.17 Q2233.92 1165.49 2235.35 1165.49 Q2237.13 1165.49 2238.23 1166.41 Q2239.33 1167.3 2239.33 1168.61 Z" fill="#000000" fill-rule="evenodd" fill-opacity="1"></path><path clip-path="url(#clip620)" d="
M2019.05 1242.53 L2161.24 1242.53 L2161.24 1201.06 L2019.05 1201.06 L2019.05 1242.53  Z
  " fill="#e26f46" fill-rule="evenodd" fill-opacity="0.5"></path>
<polyline clip-path="url(#clip620)" style="stroke:#e26f46; stroke-linecap:round; stroke-linejoin:round; stroke-width:4; stroke-opacity:0.2; fill:none" points="
  2019.05,1201.06 2161.24,1201.06 
  "></polyline>
<path clip-path="url(#clip620)" d="M2217.85 1237.57 Q2217.85 1238.01 2217.66 1238.25 Q2217.5 1238.46 2217.33 1238.51 Q2217.19 1238.53 2216.98 1238.53 Q2216.37 1238.53 2214.26 1238.46 Q2212.15 1238.39 2211.55 1238.39 Q2210.56 1238.39 2208.55 1238.46 Q2206.53 1238.53 2205.55 1238.53 Q2204.89 1238.53 2204.89 1237.99 Q2204.89 1237.64 2204.96 1237.45 Q2205.03 1237.24 2205.22 1237.17 Q2205.43 1237.08 2205.55 1237.08 Q2205.69 1237.05 2206.04 1237.05 Q2206.51 1237.05 2207 1237.01 Q2207.49 1236.94 2208.1 1236.8 Q2208.71 1236.66 2209.09 1236.3 Q2209.48 1235.95 2209.48 1235.46 Q2209.48 1235.25 2209.32 1233.52 Q2209.16 1231.78 2208.95 1229.77 Q2208.74 1227.73 2208.71 1227.45 L2196.67 1227.45 Q2195.57 1229.35 2194.8 1230.66 Q2194.03 1231.97 2193.74 1232.42 Q2193.46 1232.86 2193.3 1233.14 Q2193.14 1233.42 2193.04 1233.59 Q2192.36 1234.83 2192.36 1235.37 Q2192.36 1236.87 2194.61 1237.05 Q2195.38 1237.05 2195.38 1237.62 Q2195.38 1238.04 2195.2 1238.27 Q2195.01 1238.48 2194.85 1238.51 Q2194.7 1238.53 2194.47 1238.53 Q2193.7 1238.53 2192.08 1238.46 Q2190.47 1238.39 2189.67 1238.39 Q2188.99 1238.39 2187.58 1238.46 Q2186.18 1238.53 2185.55 1238.53 Q2185.27 1238.53 2185.1 1238.37 Q2184.94 1238.2 2184.94 1237.99 Q2184.94 1237.66 2184.98 1237.48 Q2185.05 1237.29 2185.24 1237.19 Q2185.43 1237.1 2185.52 1237.1 Q2185.62 1237.08 2185.94 1237.05 Q2187.73 1236.94 2189.11 1236.09 Q2190.51 1235.23 2191.85 1233 L2208.52 1204.99 Q2208.69 1204.71 2208.81 1204.57 Q2208.92 1204.43 2209.16 1204.31 Q2209.41 1204.19 2209.79 1204.19 Q2210.37 1204.19 2210.49 1204.38 Q2210.61 1204.54 2210.68 1205.34 L2213.61 1235.32 Q2213.68 1235.95 2213.72 1236.21 Q2213.79 1236.45 2214.1 1236.7 Q2214.43 1236.94 2215.01 1237.01 Q2215.62 1237.05 2216.75 1237.05 Q2217.17 1237.05 2217.33 1237.08 Q2217.5 1237.08 2217.66 1237.19 Q2217.85 1237.31 2217.85 1237.57 M2208.57 1225.95 L2207.05 1210.14 L2197.59 1225.95 L2208.57 1225.95 Z" fill="#000000" fill-rule="evenodd" fill-opacity="1"></path><path clip-path="url(#clip620)" d="M2232.04 1208.55 Q2232.04 1209.58 2231.2 1210.35 Q2230.38 1211.1 2229.49 1211.1 Q2228.67 1211.1 2228.16 1210.61 Q2227.66 1210.09 2227.66 1209.37 Q2227.66 1208.41 2228.48 1207.61 Q2229.3 1206.82 2230.26 1206.82 Q2231.06 1206.82 2231.55 1207.31 Q2232.04 1207.8 2232.04 1208.55 M2232.47 1231.67 Q2232.47 1231.85 2232.26 1232.6 Q2232.04 1233.33 2231.53 1234.45 Q2231.04 1235.56 2230.36 1236.59 Q2229.68 1237.62 2228.55 1238.34 Q2227.45 1239.07 2226.19 1239.07 Q2224.48 1239.07 2223.36 1237.94 Q2222.25 1236.82 2222.25 1235.13 Q2222.25 1234.22 2223.36 1231.29 Q2226.54 1222.77 2226.66 1222.42 Q2227.2 1221.08 2227.2 1219.91 Q2227.2 1219.37 2227.08 1219.04 Q2226.96 1218.69 2226.73 1218.57 Q2226.49 1218.43 2226.35 1218.41 Q2226.24 1218.39 2226 1218.39 Q2224.62 1218.39 2223.33 1219.79 Q2222.04 1221.2 2221.15 1224.34 Q2220.97 1224.92 2220.85 1225.06 Q2220.73 1225.2 2220.38 1225.2 Q2219.79 1225.18 2219.79 1224.71 Q2219.79 1224.57 2219.96 1224.03 Q2220.12 1223.47 2220.43 1222.63 Q2220.73 1221.76 2221.27 1220.87 Q2221.81 1219.96 2222.46 1219.16 Q2223.14 1218.36 2224.1 1217.85 Q2225.06 1217.33 2226.14 1217.33 Q2227.9 1217.33 2228.98 1218.48 Q2230.08 1219.6 2230.08 1221.27 Q2230.08 1222.18 2229.44 1223.8 Q2228.67 1225.9 2228.39 1226.58 L2226.52 1231.62 Q2225.84 1233.45 2225.63 1234.01 Q2225.44 1234.55 2225.28 1235.2 Q2225.14 1235.84 2225.14 1236.42 Q2225.14 1237.24 2225.39 1237.62 Q2225.67 1237.99 2226.28 1237.99 Q2227.97 1237.99 2229.21 1236.33 Q2230.45 1234.64 2231.18 1232.07 Q2231.2 1231.99 2231.22 1231.88 Q2231.41 1231.29 2231.6 1231.22 Q2231.69 1231.2 2231.88 1231.2 Q2232.47 1231.2 2232.47 1231.67 Z" fill="#000000" fill-rule="evenodd" fill-opacity="1"></path><path clip-path="url(#clip620)" d="M2256.09 1220.45 Q2256.09 1221.69 2255.27 1222.49 Q2254.47 1223.28 2253.44 1223.28 Q2252.55 1223.28 2252.08 1222.77 Q2251.61 1222.25 2251.61 1221.6 Q2251.61 1220.66 2252.34 1219.89 Q2253.07 1219.11 2254.12 1218.95 Q2253.35 1218.39 2252.11 1218.39 Q2250.07 1218.39 2248.26 1219.96 Q2247.47 1220.68 2246.6 1222.02 Q2245.73 1223.33 2245.57 1223.89 L2244.05 1230.14 Q2243.91 1230.85 2243.04 1234.22 Q2242.2 1237.57 2242.13 1237.71 Q2241.89 1238.37 2241.38 1238.72 Q2240.86 1239.07 2240.35 1239.07 Q2239.76 1239.07 2239.36 1238.72 Q2238.97 1238.37 2238.97 1237.76 Q2238.97 1237.66 2239.04 1237.31 Q2239.11 1236.96 2239.22 1236.47 Q2239.34 1235.98 2239.39 1235.7 L2242.17 1224.62 Q2242.69 1222.6 2242.81 1221.97 Q2242.95 1221.31 2242.95 1220.59 Q2242.95 1219.32 2242.55 1218.85 Q2242.15 1218.39 2241.45 1218.39 Q2240.23 1218.39 2239.43 1219.84 Q2238.64 1221.29 2237.96 1224.1 Q2237.75 1224.87 2237.61 1225.04 Q2237.49 1225.2 2237.14 1225.2 Q2236.55 1225.18 2236.55 1224.71 Q2236.55 1224.59 2236.74 1223.84 Q2236.93 1223.07 2237.28 1221.95 Q2237.65 1220.8 2238.05 1220.07 Q2238.29 1219.58 2238.5 1219.25 Q2238.71 1218.93 2239.13 1218.41 Q2239.55 1217.89 2240.18 1217.61 Q2240.82 1217.33 2241.59 1217.33 Q2243.28 1217.33 2244.47 1218.36 Q2245.69 1219.39 2245.97 1221.01 Q2246.55 1220.17 2247.28 1219.44 Q2248.01 1218.69 2249.34 1218.01 Q2250.68 1217.33 2252.11 1217.33 Q2253.89 1217.33 2254.99 1218.25 Q2256.09 1219.14 2256.09 1220.45 Z" fill="#000000" fill-rule="evenodd" fill-opacity="1"></path><path clip-path="url(#clip620)" d="
M2019.05 1294.37 L2161.24 1294.37 L2161.24 1252.9 L2019.05 1252.9 L2019.05 1294.37  Z
  " fill="#3da44d" fill-rule="evenodd" fill-opacity="0.5"></path>
<polyline clip-path="url(#clip620)" style="stroke:#3da44d; stroke-linecap:round; stroke-linejoin:round; stroke-width:4; stroke-opacity:0.2; fill:none" points="
  2019.05,1252.9 2161.24,1252.9 
  "></polyline>
<path clip-path="url(#clip620)" d="M2225.32 1257.37 Q2225.32 1258.05 2225.01 1258.19 Q2224.73 1258.33 2223.7 1258.33 Q2221.95 1258.33 2221.15 1258.56 Q2220.38 1258.77 2220.14 1259.15 Q2219.93 1259.5 2219.67 1260.53 L2213.19 1286.43 Q2213.19 1286.46 2213.12 1286.79 Q2213.04 1287.09 2213.04 1287.25 Q2213.04 1287.56 2213.23 1287.75 Q2213.44 1287.93 2213.96 1288.03 Q2214.47 1288.1 2214.87 1288.12 Q2215.29 1288.12 2216.16 1288.12 Q2217.24 1288.12 2217.4 1288.31 Q2217.5 1288.43 2217.5 1288.64 Q2217.5 1289.08 2217.31 1289.32 Q2217.14 1289.53 2216.98 1289.57 Q2216.84 1289.6 2216.56 1289.6 Q2216.07 1289.6 2215.01 1289.55 Q2213.96 1289.5 2213.42 1289.5 L2210.35 1289.46 L2204.26 1289.6 Q2203.61 1289.6 2203.61 1289.06 Q2203.61 1288.59 2203.77 1288.38 Q2203.93 1288.17 2204.1 1288.14 Q2204.28 1288.12 2204.75 1288.12 Q2207.17 1288.12 2207.96 1287.89 Q2208.78 1287.63 2209.11 1286.53 L2212.41 1273.29 L2197.8 1273.29 L2194.52 1286.43 Q2194.52 1286.46 2194.45 1286.79 Q2194.38 1287.09 2194.38 1287.25 Q2194.38 1287.56 2194.56 1287.75 Q2194.78 1287.93 2195.29 1288.03 Q2195.81 1288.1 2196.2 1288.12 Q2196.63 1288.12 2197.49 1288.12 Q2198.57 1288.12 2198.76 1288.31 Q2198.85 1288.43 2198.85 1288.64 Q2198.85 1288.96 2198.76 1289.2 Q2198.69 1289.41 2198.5 1289.48 Q2198.34 1289.55 2198.22 1289.57 Q2198.1 1289.6 2197.89 1289.6 Q2197.4 1289.6 2196.34 1289.55 Q2195.31 1289.5 2194.78 1289.5 L2191.71 1289.46 L2185.62 1289.6 Q2184.94 1289.6 2184.94 1289.06 Q2184.94 1288.59 2185.1 1288.4 Q2185.27 1288.19 2185.48 1288.17 Q2185.69 1288.12 2186.23 1288.12 Q2187.4 1288.12 2188.1 1288.05 Q2188.8 1287.98 2189.25 1287.89 Q2189.72 1287.77 2189.95 1287.44 Q2190.21 1287.11 2190.32 1286.83 Q2190.44 1286.53 2190.61 1285.85 L2197.02 1260.08 Q2197.21 1259.31 2197.21 1259.19 Q2197.21 1258.75 2196.93 1258.63 Q2196.67 1258.49 2195.92 1258.42 L2194.1 1258.33 Q2193.53 1258.33 2193.3 1258.3 Q2193.09 1258.28 2192.92 1258.16 Q2192.76 1258.05 2192.76 1257.79 Q2192.76 1257.46 2192.83 1257.25 Q2192.92 1257.02 2193.09 1256.95 Q2193.25 1256.88 2193.37 1256.85 Q2193.49 1256.83 2193.67 1256.83 L2199.86 1256.97 L2205.99 1256.83 Q2206.67 1256.83 2206.67 1257.37 Q2206.67 1258.05 2206.37 1258.19 Q2206.06 1258.33 2205.03 1258.33 Q2203.32 1258.33 2202.53 1258.56 Q2201.73 1258.77 2201.47 1259.15 Q2201.24 1259.52 2201.01 1260.53 L2198.17 1271.8 L2212.81 1271.8 L2215.69 1260.08 Q2215.88 1259.24 2215.88 1259.19 Q2215.88 1258.75 2215.6 1258.63 Q2215.34 1258.49 2214.59 1258.42 L2212.76 1258.33 Q2212.2 1258.33 2211.97 1258.3 Q2211.76 1258.28 2211.57 1258.16 Q2211.41 1258.05 2211.41 1257.79 Q2211.41 1257.46 2211.48 1257.25 Q2211.57 1257.02 2211.73 1256.95 Q2211.9 1256.88 2212.01 1256.85 Q2212.13 1256.83 2212.32 1256.83 L2218.5 1256.97 L2224.66 1256.83 Q2225.32 1256.83 2225.32 1257.37 Z" fill="#000000" fill-rule="evenodd" fill-opacity="1"></path><path clip-path="url(#clip620)" d="M2245.71 1284.05 Q2245.9 1284.26 2245.9 1284.47 Q2245.9 1284.68 2245.43 1285.29 Q2244.98 1285.9 2244.02 1286.72 Q2243.06 1287.54 2241.82 1288.31 Q2240.58 1289.08 2238.75 1289.6 Q2236.92 1290.13 2235 1290.13 Q2231.56 1290.13 2229.5 1287.68 Q2227.46 1285.22 2227.46 1281.45 Q2227.46 1279.03 2228.26 1276.9 Q2229.05 1274.75 2230.34 1273.22 Q2231.65 1271.7 2233.29 1270.6 Q2234.96 1269.48 2236.69 1268.94 Q2238.42 1268.4 2240.04 1268.4 Q2242.41 1268.4 2243.79 1269.59 Q2245.17 1270.79 2245.17 1272.47 Q2245.17 1272.87 2245.05 1273.36 Q2244.96 1273.86 2244.63 1274.63 Q2244.33 1275.4 2243.53 1276.18 Q2242.73 1276.92 2241.56 1277.42 Q2238.96 1278.52 2234.23 1278.52 L2231.68 1278.52 Q2230.93 1281.54 2230.93 1283.51 Q2230.93 1284.28 2231.07 1285.08 Q2231.21 1285.85 2231.58 1286.83 Q2231.98 1287.82 2232.87 1288.45 Q2233.79 1289.06 2235.1 1289.06 Q2235.52 1289.06 2235.96 1289.03 Q2236.43 1289.01 2237.6 1288.75 Q2238.8 1288.5 2239.85 1288.05 Q2240.91 1287.61 2242.24 1286.65 Q2243.6 1285.66 2244.68 1284.33 Q2245.05 1283.83 2245.31 1283.83 Q2245.52 1283.83 2245.71 1284.05 M2243.58 1272.47 Q2243.58 1271.19 2242.62 1270.32 Q2241.68 1269.45 2240.04 1269.45 Q2239.52 1269.45 2238.89 1269.57 Q2238.26 1269.69 2237.21 1270.18 Q2236.17 1270.67 2235.26 1271.49 Q2234.35 1272.29 2233.43 1273.86 Q2232.52 1275.4 2231.98 1277.46 L2233.95 1277.46 Q2234.63 1277.46 2235.12 1277.46 Q2235.61 1277.44 2236.69 1277.35 Q2237.79 1277.25 2238.59 1277.09 Q2239.38 1276.9 2240.39 1276.53 Q2241.4 1276.15 2242.03 1275.66 Q2242.69 1275.14 2243.13 1274.32 Q2243.58 1273.51 2243.58 1272.47 Z" fill="#000000" fill-rule="evenodd" fill-opacity="1"></path><path clip-path="url(#clip620)" d="
M2019.05 1346.21 L2161.24 1346.21 L2161.24 1304.74 L2019.05 1304.74 L2019.05 1346.21  Z
  " fill="#c271d2" fill-rule="evenodd" fill-opacity="0.5"></path>
<polyline clip-path="url(#clip620)" style="stroke:#c271d2; stroke-linecap:round; stroke-linejoin:round; stroke-width:4; stroke-opacity:0.2; fill:none" points="
  2019.05,1304.74 2161.24,1304.74 
  "></polyline>
<path clip-path="url(#clip620)" d="M2225.32 1302.83 Q2225.32 1303.51 2225.01 1303.65 Q2224.73 1303.79 2223.7 1303.79 Q2221.95 1303.79 2221.15 1304.02 Q2220.38 1304.23 2220.14 1304.61 Q2219.93 1304.96 2219.67 1305.99 L2213.19 1331.9 Q2213.19 1331.92 2213.12 1332.25 Q2213.04 1332.55 2213.04 1332.72 Q2213.04 1333.02 2213.23 1333.21 Q2213.44 1333.39 2213.96 1333.49 Q2214.47 1333.56 2214.87 1333.58 Q2215.29 1333.58 2216.16 1333.58 Q2217.24 1333.58 2217.4 1333.77 Q2217.5 1333.89 2217.5 1334.1 Q2217.5 1334.54 2217.31 1334.78 Q2217.14 1334.99 2216.98 1335.03 Q2216.84 1335.06 2216.56 1335.06 Q2216.07 1335.06 2215.01 1335.01 Q2213.96 1334.96 2213.42 1334.96 L2210.35 1334.92 L2204.26 1335.06 Q2203.61 1335.06 2203.61 1334.52 Q2203.61 1334.05 2203.77 1333.84 Q2203.93 1333.63 2204.1 1333.61 Q2204.28 1333.58 2204.75 1333.58 Q2207.17 1333.58 2207.96 1333.35 Q2208.78 1333.09 2209.11 1331.99 L2212.41 1318.76 L2197.8 1318.76 L2194.52 1331.9 Q2194.52 1331.92 2194.45 1332.25 Q2194.38 1332.55 2194.38 1332.72 Q2194.38 1333.02 2194.56 1333.21 Q2194.78 1333.39 2195.29 1333.49 Q2195.81 1333.56 2196.2 1333.58 Q2196.63 1333.58 2197.49 1333.58 Q2198.57 1333.58 2198.76 1333.77 Q2198.85 1333.89 2198.85 1334.1 Q2198.85 1334.42 2198.76 1334.66 Q2198.69 1334.87 2198.5 1334.94 Q2198.34 1335.01 2198.22 1335.03 Q2198.1 1335.06 2197.89 1335.06 Q2197.4 1335.06 2196.34 1335.01 Q2195.31 1334.96 2194.78 1334.96 L2191.71 1334.92 L2185.62 1335.06 Q2184.94 1335.06 2184.94 1334.52 Q2184.94 1334.05 2185.1 1333.86 Q2185.27 1333.65 2185.48 1333.63 Q2185.69 1333.58 2186.23 1333.58 Q2187.4 1333.58 2188.1 1333.51 Q2188.8 1333.44 2189.25 1333.35 Q2189.72 1333.23 2189.95 1332.9 Q2190.21 1332.57 2190.32 1332.29 Q2190.44 1331.99 2190.61 1331.31 L2197.02 1305.55 Q2197.21 1304.77 2197.21 1304.66 Q2197.21 1304.21 2196.93 1304.09 Q2196.67 1303.95 2195.92 1303.88 L2194.1 1303.79 Q2193.53 1303.79 2193.3 1303.76 Q2193.09 1303.74 2192.92 1303.62 Q2192.76 1303.51 2192.76 1303.25 Q2192.76 1302.92 2192.83 1302.71 Q2192.92 1302.48 2193.09 1302.41 Q2193.25 1302.34 2193.37 1302.31 Q2193.49 1302.29 2193.67 1302.29 L2199.86 1302.43 L2205.99 1302.29 Q2206.67 1302.29 2206.67 1302.83 Q2206.67 1303.51 2206.37 1303.65 Q2206.06 1303.79 2205.03 1303.79 Q2203.32 1303.79 2202.53 1304.02 Q2201.73 1304.23 2201.47 1304.61 Q2201.24 1304.98 2201.01 1305.99 L2198.17 1317.26 L2212.81 1317.26 L2215.69 1305.55 Q2215.88 1304.7 2215.88 1304.66 Q2215.88 1304.21 2215.6 1304.09 Q2215.34 1303.95 2214.59 1303.88 L2212.76 1303.79 Q2212.2 1303.79 2211.97 1303.76 Q2211.76 1303.74 2211.57 1303.62 Q2211.41 1303.51 2211.41 1303.25 Q2211.41 1302.92 2211.48 1302.71 Q2211.57 1302.48 2211.73 1302.41 Q2211.9 1302.34 2212.01 1302.31 Q2212.13 1302.29 2212.32 1302.29 L2218.5 1302.43 L2224.66 1302.29 Q2225.32 1302.29 2225.32 1302.83 Z" fill="#000000" fill-rule="evenodd" fill-opacity="1"></path><path clip-path="url(#clip620)" d="M2230.04 1348.35 Q2230.04 1347.74 2230.09 1347.56 Q2230.16 1347.38 2230.42 1347.1 L2236.86 1339.92 Q2240.39 1335.95 2240.39 1332.49 Q2240.39 1330.25 2239.21 1328.64 Q2238.04 1327.03 2235.9 1327.03 Q2234.42 1327.03 2233.17 1327.93 Q2231.93 1328.84 2231.35 1330.44 Q2231.45 1330.41 2231.8 1330.41 Q2232.63 1330.41 2233.09 1330.93 Q2233.57 1331.46 2233.57 1332.16 Q2233.57 1333.07 2232.98 1333.51 Q2232.4 1333.93 2231.83 1333.93 Q2231.6 1333.93 2231.29 1333.89 Q2230.99 1333.84 2230.52 1333.38 Q2230.04 1332.9 2230.04 1332.07 Q2230.04 1329.72 2231.81 1327.85 Q2233.6 1325.98 2236.32 1325.98 Q2239.4 1325.98 2241.42 1327.82 Q2243.45 1329.64 2243.45 1332.49 Q2243.45 1333.49 2243.14 1334.41 Q2242.85 1335.31 2242.44 1336.02 Q2242.04 1336.72 2240.96 1337.85 Q2239.88 1338.98 2239.01 1339.79 Q2238.14 1340.59 2236.19 1342.3 L2232.63 1345.76 L2238.68 1345.76 Q2241.63 1345.76 2241.86 1345.49 Q2242.19 1345.02 2242.6 1342.51 L2243.45 1342.51 L2242.5 1348.35 L2230.04 1348.35 Z" fill="#000000" fill-rule="evenodd" fill-opacity="1"></path></svg>